<svg xmlns="http://www.w3.org/2000/svg" width="502.766" height="557.155" viewBox="0 0 502.766 557.155">
  <g id="Group_39" data-name="Group 39" transform="translate(0 0)">
    <path id="Path_1056" data-name="Path 1056" d="M550.026,447.844C824.16,631.265,735.065,699.612,379.031,637.363c-93.027-16.264-171-84.85-171-189.519s76.557-189.519,170.995-189.519S463.034,389.638,550.026,447.844Z" transform="translate(-208.036 -102.676)" fill="#3f3d56"/>
    <ellipse id="Ellipse_241" data-name="Ellipse 241" cx="108.296" cy="9.69" rx="108.296" ry="9.69" transform="translate(258.202 504.478)" opacity="0.1"/>
    <ellipse id="Ellipse_242" data-name="Ellipse 242" cx="57.4" cy="9.69" rx="57.4" ry="9.69" transform="translate(95.514 185.09)" opacity="0.1"/>
    <path id="Path_1057" data-name="Path 1057" d="M375.906,356.532a130.547,130.547,0,0,0-117.781,74.2A130.549,130.549,0,0,1,472.587,574.756a130.53,130.53,0,0,0-96.681-218.224Z" transform="translate(-226.001 -137.899)" opacity="0.1"/>
    <path id="Path_1058" data-name="Path 1058" d="M478.216,535.05A129.967,129.967,0,0,1,465.459,591.4a130.553,130.553,0,0,1-214.45-144.046,130.529,130.529,0,0,1,227.206,87.7Z" transform="translate(-218.874 -155.112)" fill="#6c63ff" opacity="0.3"/>
    <path id="Path_1059" data-name="Path 1059" d="M368.42,616.978c-72.326,0-131.168-58.841-131.168-131.167A131.077,131.077,0,0,1,368.42,354.643c72.326,0,131.167,58.842,131.167,131.168A131.16,131.16,0,0,1,368.411,616.978Zm0-261.052A130.639,130.639,0,0,0,251.228,429.74a128.657,128.657,0,0,0-12.693,56.071A129.885,129.885,0,1,0,498.3,485.8c0-71.609-58.266-129.876-129.885-129.876Z" transform="translate(-218.514 -137.222)" fill="#fff"/>
    <path id="Path_1060" data-name="Path 1060" d="M902.676,757.464c-9.48,12.4-8.4,29.154-8.4,29.154s16.454-3.346,25.934-15.744,8.4-29.154,8.4-29.154S912.155,745.065,902.676,757.464Z" transform="translate(-454.149 -276.05)" fill="#d0cde1"/>
    <path id="Path_1061" data-name="Path 1061" d="M904.686,754.188c-1.84,15.5-14.293,26.761-14.293,26.761s-9.47-13.865-7.631-29.364,14.293-26.761,14.293-26.761S906.525,738.69,904.686,754.188Z" transform="translate(-449.947 -269.99)" fill="#6c63ff"/>
    <circle id="Ellipse_243" data-name="Ellipse 243" cx="53.859" cy="53.859" r="53.859" transform="translate(56.982 13.424)" fill="#ff6584"/>
    <path id="Path_1062" data-name="Path 1062" d="M483.043,137.83c.026,53.8-31.947,72.6-71.4,72.615q-1.375,0-2.736-.029-2.742-.058-5.428-.247c-35.605-2.5-63.279-22.237-63.3-72.269-.025-51.778,66.119-117.152,71.08-121.986,0,0,0,0,.009,0,.188-.184.285-.276.285-.276S483.018,84.036,483.043,137.83Z" transform="translate(-255.43 -15.633)" fill="#6c63ff"/>
    <path id="Path_1063" data-name="Path 1063" d="M431.472,202.217,457.58,165.7l-26.172,40.523-.068,4.191q-2.743-.058-5.428-.247l2.789-53.822-.022-.416.048-.079.265-5.086-26.277-40.6,26.354,36.789.066,1.079,2.107-40.665-22.5-41.955,22.771,34.808,2.173-84.309.009-.281v.276L433.361,82.4l22.36-26.369L433.267,88.122l-.574,36.411,20.882-34.952-20.963,40.305-.319,20.246L462.6,101.48,432.178,157.2Z" transform="translate(-277.859 -15.633)" fill="#3f3d56"/>
    <path id="Path_1064" data-name="Path 1064" d="M751.449,247.432c-6.846-11.568-20.39-12.107-20.39-12.107s-13.2-1.688-21.665,15.93c-7.892,16.421-18.783,32.276-1.754,36.121l3.076-9.574,1.9,10.287a66.623,66.623,0,0,0,7.286.125c18.237-.589,35.605.172,35.046-6.372C754.21,273.142,758.036,258.563,751.449,247.432Z" transform="translate(-383.989 -94.412)" fill="#2f2e41"/>
    <path id="Path_1065" data-name="Path 1065" d="M525.862,407.843l1.761,17.61,40.8-4.4.881-13.208Z" transform="translate(-188.605 -146.276)" fill="#a0616a"/>
    <path id="Path_1066" data-name="Path 1066" d="M714.167,437.1l-1.174,10.273s-13.5,18.784-12.327,51.07-18.491,175.81-4.4,176.984,39.33,2.935,40.5-1.468,3.522-171.407,3.522-171.407,6.164,171.615,16.73,172.2,46.08,1.761,46.08-2.642-31.112-200.966-31.112-200.966L767,454.712l-4.99-20.252s-31.112,5.283-39.623,3.229S714.167,437.1,714.167,437.1Z" transform="translate(-381.312 -165.849)" fill="#2f2e41"/>
    <circle id="Ellipse_244" data-name="Ellipse 244" cx="18.784" cy="18.784" r="18.784" transform="translate(328.159 152.383)" fill="#a0616a"/>
    <path id="Path_1067" data-name="Path 1067" d="M769.689,318.393l-3.566,5.189-2.283,3.32L760,332.482l-19.078,1.468s-4.634-1.5-9.982-3.683c-1.975-.81-4.05-1.714-6.023-2.674-7.652-3.716-13.792-8.25-6.888-11.253a22.927,22.927,0,0,0,3.519-1.89,17.878,17.878,0,0,0,2.821-2.283,15.385,15.385,0,0,0,4.226-13.73l18.491-2.642c-.537,4.69,4.127,9.806,9.354,13.983,1.717,1.377,3.5,2.647,5.174,3.769A94.151,94.151,0,0,0,769.689,318.393Z" transform="translate(-389.873 -116.115)" fill="#a0616a"/>
    <path id="Path_1068" data-name="Path 1068" d="M739.349,334.393s-18.051-3.082-22.16-9.539c0,0-17.757,2.2-16.29,11.593S717.042,397.2,717.042,397.2s36.688-7.044,50.189-1.761l8.218-65.451s-2.935-6.457-8.511-4.7-7.778.147-7.778.147S752.85,334.393,739.349,334.393Z" transform="translate(-384.775 -126.537)" fill="#d0cde1"/>
    <path id="Path_1069" data-name="Path 1069" d="M780.946,500.36s12.621,14.088,5.577,16.436-15.556-9.392-15.556-9.392Z" transform="translate(-409.936 -189.484)" fill="#a0616a"/>
    <path id="Path_1070" data-name="Path 1070" d="M788.848,502.19s-10.273,7.044-6.457,11.74,17.023-4.109,17.023-5.87S788.848,502.19,788.848,502.19Z" transform="translate(-413.728 -190.141)" fill="#a0616a"/>
    <path id="Path_1071" data-name="Path 1071" d="M743.4,399.165l-8.512,1.468-5.577-41.384a148.574,148.574,0,0,0-.743-22.5c-.622-4.99-1.661-9.786-3.369-13.143a17.876,17.876,0,0,0,2.821-2.284,43.673,43.673,0,0,1,6.572,18.1,29.159,29.159,0,0,1,0,6.031c-1.468,13.795-1.174,16.436-1.174,16.436Z" transform="translate(-393.521 -125.271)" fill="#2f2e41"/>
    <path id="Path_1072" data-name="Path 1072" d="M714.319,328.249s-13.795-3.816-14.969,4.4.293,29.351,3.522,37.275,14.381,33.753,14.381,33.753,20.252,25.828,21.132,31.992,5.283,12.621,5.283,12.621l14.089-9.1-27.589-46.667-12.034-32.286S723.124,330.891,714.319,328.249Z" transform="translate(-384.106 -127.438)" fill="#d0cde1"/>
    <path id="Path_1073" data-name="Path 1073" d="M801.212,330.574l6.457,1.468s5.87,25.241,3.522,38.743-2.641,18.2-2.641,18.2L806.5,427.431s.587,24.654-3.522,20.839-12.327-5.577-12.327-5.577.88-10.86,4.109-13.5c0,0,3.816-20.252,1.468-29.057S801.212,330.574,801.212,330.574Z" transform="translate(-416.994 -128.589)" fill="#d0cde1"/>
    <path id="Path_1074" data-name="Path 1074" d="M799.6,354.39l-7.485,43.292-4.549-1.908,7.925-41.384L787,334.722,779.6,317.6c1.717,1.377,3.5,2.647,5.174,3.769l4.505,10.038Z" transform="translate(-413.033 -123.934)" fill="#2f2e41"/>
    <path id="Path_1075" data-name="Path 1075" d="M548.281,232.935,534.9,225.926l-18.479,2.867L512.6,245.679l9.517-.366,2.659-6.2v6.1l4.391-.169,2.549-9.877,1.593,10.514,15.612-.319Z" transform="translate(-183.847 -81.03)" fill="#2f2e41"/>
    <ellipse id="Ellipse_245" data-name="Ellipse 245" cx="9.12" cy="3.42" rx="9.12" ry="3.42" transform="translate(328.88 507.328)" fill="#2f2e41"/>
    <ellipse id="Ellipse_246" data-name="Ellipse 246" cx="9.12" cy="3.42" rx="9.12" ry="3.42" transform="translate(390.438 507.328)" fill="#2f2e41"/>
    <path id="Path_1076" data-name="Path 1076" d="M416,598.085a64.008,64.008,0,0,1-63.359,3.691l1.412-2.88a61.248,61.248,0,1,0-34.212-53.045l-3.205.1A64.458,64.458,0,1,1,416,598.085Z" transform="translate(-246.973 -181.985)" fill="#fff"/>
    <path id="Path_1077" data-name="Path 1077" d="M397.235,574.008c-9.482,2.1-22.1,3.378-31.3,2.042l11.544,8.791-32.316,20.843,1.738,2.695,32.316-20.843,3.249,14.144C385.043,592.752,391.413,581.784,397.235,574.008Z" transform="translate(-257.218 -215.899)" fill="#fff"/>
  </g>
</svg>
