<svg id="Group_3" data-name="Group 3" xmlns="http://www.w3.org/2000/svg" width="636.618" height="592.012" viewBox="0 0 636.618 592.012">
  <ellipse id="Ellipse_37" data-name="Ellipse 37" cx="318.309" cy="14.369" rx="318.309" ry="14.369" transform="translate(0 563.274)" fill="#e6e6e6"/>
  <path id="Path_88" data-name="Path 88" d="M556.047,217.251h-3.192V129.8a50.612,50.612,0,0,0-50.612-50.612H316.975A50.612,50.612,0,0,0,266.363,129.8V609.544a50.612,50.612,0,0,0,50.612,50.612H502.243a50.612,50.612,0,0,0,50.612-50.612V279.5h3.192Z" transform="translate(-214.387 -79.192)" fill="#3f3d56"/>
  <path id="Path_89" data-name="Path 89" d="M507.814,95.686H483.63A17.957,17.957,0,0,1,467,120.425H360.867a17.957,17.957,0,0,1-16.626-24.739H321.654a37.8,37.8,0,0,0-37.8,37.8V612.52a37.8,37.8,0,0,0,37.8,37.8h186.16a37.8,37.8,0,0,0,37.8-37.8V133.483a37.8,37.8,0,0,0-37.8-37.8Z" transform="translate(-217.916 -82.519)" fill="#fff"/>
  <rect id="Rectangle_7" data-name="Rectangle 7" width="65.985" height="6.128" transform="translate(156.715 141.856)" fill="#6c63ff"/>
  <rect id="Rectangle_8" data-name="Rectangle 8" width="115.006" height="6.128" transform="translate(156.715 163.054)" fill="#e6e6e6"/>
  <rect id="Rectangle_9" data-name="Rectangle 9" width="114.894" height="6.128" transform="translate(156.715 184.251)" fill="#e6e6e6"/>
  <rect id="Rectangle_10" data-name="Rectangle 10" width="49.021" height="49.021" transform="translate(94.019 141.947)" fill="#6c63ff"/>
  <rect id="Rectangle_11" data-name="Rectangle 11" width="65.985" height="6.128" transform="translate(156.715 270.537)" fill="#6c63ff"/>
  <rect id="Rectangle_12" data-name="Rectangle 12" width="115.006" height="6.128" transform="translate(156.715 291.735)" fill="#e6e6e6"/>
  <rect id="Rectangle_13" data-name="Rectangle 13" width="114.894" height="6.128" transform="translate(156.715 312.932)" fill="#e6e6e6"/>
  <rect id="Rectangle_14" data-name="Rectangle 14" width="49.021" height="49.021" transform="translate(94.019 270.628)" fill="#6c63ff"/>
  <rect id="Rectangle_15" data-name="Rectangle 15" width="65.985" height="6.128" transform="translate(156.715 399.218)" fill="#6c63ff"/>
  <rect id="Rectangle_16" data-name="Rectangle 16" width="115.006" height="6.128" transform="translate(156.715 420.415)" fill="#e6e6e6"/>
  <rect id="Rectangle_17" data-name="Rectangle 17" width="114.894" height="6.128" transform="translate(156.715 441.613)" fill="#e6e6e6"/>
  <rect id="Rectangle_18" data-name="Rectangle 18" width="49.021" height="49.021" transform="translate(94.019 399.309)" fill="#6c63ff"/>
  <circle id="Ellipse_38" data-name="Ellipse 38" cx="24.307" cy="24.307" r="24.307" transform="translate(501.743 215.368)" fill="#2f2e41"/>
  <path id="Path_90" data-name="Path 90" d="M870.907,399.705s-.366,15,1.1,15.37-20.127,6.221-20.127,6.221l-2.2-20.493Z" transform="translate(-332.059 -143.848)" fill="#ffb8b8"/>
  <path id="Path_91" data-name="Path 91" d="M657.558,559.658s-16.1,0-16.468-1.83-3.659,15-3.659,15l6.587,2.2s12.442-5.489,13.54-5.489S657.558,559.658,657.558,559.658Z" transform="translate(-289.242 -175.718)" fill="#ffb8b8"/>
  <path id="Path_92" data-name="Path 92" d="M637.092,561.266s2.928-9.881,6.587-10.247c0,0-12.442-8.051-12.808-10.613s-4.757-9.149-6.587-6.953-1.83,36.961,1.464,40.62,17.932-5.144,17.932-5.144S634.53,564.926,637.092,561.266Z" transform="translate(-286.342 -170.74)" fill="#2f2e41"/>
  <path id="Path_93" data-name="Path 93" d="M685.632,664.793l2.927,15.735-13.54,2.2V664.793Z" transform="translate(-136.171 -134.108)" fill="#ffb8b8"/>
  <path id="Path_94" data-name="Path 94" d="M885.4,759.9s2.2-6.953,3.659-5.855,3.66,8.051,3.293,9.881-2.927,16.1-1.83,18.663-5.489,15.736-13.906,14.638-7.685-8.417-7.685-8.417l2.927-11.344,1.1-17.932S882.472,758.065,885.4,759.9Z" transform="translate(-335.939 -215.304)" fill="#2f2e41"/>
  <circle id="Ellipse_39" data-name="Ellipse 39" cx="10.058" cy="10.058" r="10.058" transform="translate(524.495 204.033)" fill="#2f2e41"/>
  <path id="Path_95" data-name="Path 95" d="M885.414,338.018a10.058,10.058,0,0,0-9.01-10,10.171,10.171,0,0,1,1.047-.054,10.058,10.058,0,0,1,0,20.116,10.181,10.181,0,0,1-1.048-.054,10.059,10.059,0,0,0,9.01-10Z" transform="translate(-337.45 -129.375)" fill="#2f2e41"/>
  <circle id="Ellipse_40" data-name="Ellipse 40" cx="15.37" cy="15.37" r="15.37" transform="translate(510.67 235.363)" fill="#ffb8b8"/>
  <path id="Path_96" data-name="Path 96" d="M849.263,526.668s-.732,18.3-3.66,27.812-13.482,77.276-11.286,82.4,13.482,61.785,10.921,65.079-14.638,2.2-14.638,2.2l-16.41-68.738s3.236-75.812-23.845-77.642-71.36-2.928-71.36-2.928-28.544,8.417-41.353,8.051S657.5,566.19,657.5,566.19l-2.2-15,56.722-12.442S764,520.812,792.54,525.57,849.263,526.668,849.263,526.668Z" transform="translate(-292.848 -169.077)" fill="#2f2e41"/>
  <path id="Path_97" data-name="Path 97" d="M862.894,412.711s4.392-2.562,5.489,0,8.783,4.757,11.71,2.562S890.34,416,890.34,416l8.051,23.787s-4.025,20.493-7.685,31.838-5.123,34.765-3.66,36.961-29.276,10.978-44.28,5.489-18.3-11.71-18.3-11.71,16.468-23.421,10.979-34.4-1.1-23.421-1.1-23.421l-2.2-12.442,12.443-6.953s.732-6.587,3.659-6.587S862.894,412.711,862.894,412.711Z" transform="translate(-326.973 -146.242)" fill="#d0cde1"/>
  <path id="Path_98" data-name="Path 98" d="M838.6,437.754h-5.489a12.285,12.285,0,0,0-3.659,11.344c1.464,6.953,8.065,30,8.065,30l5.475-14.269Z" transform="translate(-327.932 -151.524)" fill="#d0cde1"/>
  <path id="Path_99" data-name="Path 99" d="M819.747,511.375s-10.952,11.859-2.9,18.08,10.035-14.271,10.035-14.271Z" transform="translate(-324.839 -166.375)" fill="#ffb8b8"/>
  <path id="Path_100" data-name="Path 100" d="M835.423,480.388l-2.562,10.247-4.391,8.051s-15,9.881-15,13.54c0,0,6.587-8.417,15,0l7.5-18.115Z" transform="translate(-324.753 -160.124)" fill="#d0cde1"/>
  <ellipse id="Ellipse_41" data-name="Ellipse 41" cx="16.763" cy="10.058" rx="16.763" ry="10.058" transform="translate(506.46 224.463)" fill="#2f2e41"/>
  <path id="Path_101" data-name="Path 101" d="M893.922,373.134s-11.71-6.587-16.468-1.83,14.272,12.076,14.272,12.076Z" transform="translate(-337.507 -137.771)" fill="#ffb8b8"/>
  <path id="Path_102" data-name="Path 102" d="M900.54,409.6l2.562-1.83s2.928-4.391,5.489-2.928,17.566-5.489,17.566-5.489-5.489,2.562-5.489-1.83-.732-3.659-4.391-3.659-3.66,1.83-5.123-.732-.732-4.026-3.294-2.562-5.489.366-6.221-.732-13.906-2.928-13.906-2.928,5.123-15,6.221-16.1,29.276,11.345,29.276,11.345,35.5,9.881,26.349,21.225-42.084,28.544-42.084,28.544Z" transform="translate(-339.735 -138.005)" fill="#d0cde1"/>
</svg>
