<svg xmlns="http://www.w3.org/2000/svg" xmlns:xlink="http://www.w3.org/1999/xlink" width="958" height="502.687" viewBox="0 0 958 502.687">
  <defs>
    <linearGradient id="linear-gradient" x1="0.5" y1="1" x2="0.5" gradientUnits="objectBoundingBox">
      <stop offset="0" stop-color="gray" stop-opacity="0.251"/>
      <stop offset="0.54" stop-color="gray" stop-opacity="0.122"/>
      <stop offset="1" stop-color="gray" stop-opacity="0.102"/>
    </linearGradient>
    <linearGradient id="linear-gradient-2" x1="0.5" y1="1" x2="0.5" y2="-0.001" xlink:href="#linear-gradient"/>
  </defs>
  <g id="Group_29" data-name="Group 29" transform="translate(0 0.359)">
    <g id="Group_21" data-name="Group 21" transform="translate(371.618 34.605)" opacity="0.1">
      <ellipse id="Ellipse_164" data-name="Ellipse 164" cx="9.947" cy="13.024" rx="9.947" ry="13.024" transform="translate(37.49 268.851)" fill="#3f3d56"/>
      <path id="Path_798" data-name="Path 798" d="M537.857,457.977a15.734,15.734,0,0,0,2.08-7.963c0-7.194-4.458-13.024-9.956-13.024S520,442.838,520,450.031a15.733,15.733,0,0,0,2.08,7.963,16.267,16.267,0,0,0,0,15.917,16.267,16.267,0,0,0,0,15.917,15.681,15.681,0,0,0-2.08,7.963c0,7.185,4.458,13.024,9.947,13.024s9.956-5.839,9.956-13.024a15.68,15.68,0,0,0-2.08-7.963,16.267,16.267,0,0,0,0-15.917,16.267,16.267,0,0,0,0-15.917Z" transform="translate(-482.544 -231.825)" fill="#3f3d56"/>
      <ellipse id="Ellipse_165" data-name="Ellipse 165" cx="9.947" cy="13.024" rx="9.947" ry="13.024" transform="translate(37.49 189.265)" fill="#3f3d56"/>
      <ellipse id="Ellipse_166" data-name="Ellipse 166" cx="9.947" cy="13.024" rx="9.947" ry="13.024" transform="translate(37.49 173.348)" fill="#3f3d56"/>
      <path id="Path_799" data-name="Path 799" d="M487.35,279.706a46.4,46.4,0,0,1-3.706-5.454l26.135-4.292-28.268.21a47.743,47.743,0,0,1-.874-37.761l37.927,19.676L483.6,226.369a47.664,47.664,0,1,1,78.668,53.319,47.67,47.67,0,0,1,5.437,8.688l-33.941,17.674,36.178-12.141a47.664,47.664,0,0,1-7.683,44.753,47.655,47.655,0,1,1-74.909,0,47.655,47.655,0,0,1,0-58.931Z" transform="translate(-477.149 -202.271)" fill="#6c63ff"/>
      <path id="Path_800" data-name="Path 800" d="M572.46,324.469a47.437,47.437,0,0,1-10.2,29.465,47.655,47.655,0,1,1-74.909,0C480.961,345.823,572.46,319.119,572.46,324.469Z" transform="translate(-477.149 -217.569)" opacity="0.1"/>
    </g>
    <g id="Group_22" data-name="Group 22" transform="translate(499.734 78.162)" opacity="0.1">
      <ellipse id="Ellipse_167" data-name="Ellipse 167" cx="7.438" cy="9.729" rx="7.438" ry="9.729" transform="translate(28.014 200.74)" fill="#3f3d56"/>
      <path id="Path_801" data-name="Path 801" d="M669.081,443a11.739,11.739,0,0,0,1.547-5.944c0-5.376-3.33-9.737-7.43-9.737s-7.439,4.37-7.439,9.737A11.652,11.652,0,0,0,657.316,443a12.15,12.15,0,0,0,0,11.9,12.15,12.15,0,0,0,0,11.9,11.652,11.652,0,0,0-1.556,5.944c0,5.376,3.33,9.737,7.438,9.737s7.43-4.37,7.43-9.737a11.739,11.739,0,0,0-1.547-5.944,12.237,12.237,0,0,0,0-11.9,12.237,12.237,0,0,0,0-11.9Z" transform="translate(-627.754 -274.165)" fill="#3f3d56"/>
      <ellipse id="Ellipse_168" data-name="Ellipse 168" cx="7.438" cy="9.729" rx="7.438" ry="9.729" transform="translate(28.014 141.267)" fill="#3f3d56"/>
      <ellipse id="Ellipse_169" data-name="Ellipse 169" cx="7.438" cy="9.729" rx="7.438" ry="9.729" transform="translate(28.014 129.371)" fill="#3f3d56"/>
      <path id="Path_802" data-name="Path 802" d="M631.342,309.8a34.09,34.09,0,0,1-2.771-4.073l19.536-3.208-21.127.157a35.7,35.7,0,0,1-.682-28.224l28.347,14.711L628.5,269.932a35.619,35.619,0,1,1,58.817,39.858,36.018,36.018,0,0,1,4.065,6.495l-25.349,13.172,27.036-9.073a35.628,35.628,0,0,1-5.743,33.443,35.61,35.61,0,1,1-55.942,0,35.61,35.61,0,0,1,0-44.037Z" transform="translate(-623.72 -252.103)" fill="#6c63ff"/>
      <path id="Path_803" data-name="Path 803" d="M694.943,343.224a35.461,35.461,0,0,1-7.622,22.018,35.61,35.61,0,1,1-55.942,0C626.589,359.185,694.943,339.23,694.943,343.224Z" transform="translate(-623.723 -263.51)" opacity="0.1"/>
    </g>
    <g id="Group_23" data-name="Group 23" transform="translate(859.701 -0.359)" opacity="0.1">
      <ellipse id="Ellipse_170" data-name="Ellipse 170" cx="9.947" cy="13.024" rx="9.947" ry="13.024" transform="translate(38.162 268.851)" fill="#3f3d56"/>
      <path id="Path_804" data-name="Path 804" d="M1081.27,417.977a15.735,15.735,0,0,1-2.08-7.963c0-7.194,4.458-13.024,9.956-13.024s9.947,5.83,9.947,13.024a15.733,15.733,0,0,1-2.08,7.963,16.266,16.266,0,0,1,0,15.917,16.266,16.266,0,0,1,0,15.917,15.679,15.679,0,0,1,2.08,7.963c0,7.185-4.458,13.024-9.947,13.024s-9.956-5.839-9.956-13.024a15.681,15.681,0,0,1,2.08-7.963,16.267,16.267,0,0,1,0-15.917A16.267,16.267,0,0,1,1081.27,417.977Z" transform="translate(-1041.037 -191.825)" fill="#3f3d56"/>
      <ellipse id="Ellipse_171" data-name="Ellipse 171" cx="9.947" cy="13.024" rx="9.947" ry="13.024" transform="translate(38.162 189.265)" fill="#3f3d56"/>
      <ellipse id="Ellipse_172" data-name="Ellipse 172" cx="9.947" cy="13.024" rx="9.947" ry="13.024" transform="translate(38.162 173.348)" fill="#3f3d56"/>
      <path id="Path_805" data-name="Path 805" d="M1120.886,239.706a46.388,46.388,0,0,0,3.706-5.454l-26.135-4.292,28.268.21a47.743,47.743,0,0,0,.874-37.761l-37.927,19.676,34.964-25.716a47.664,47.664,0,1,0-78.668,53.319,47.669,47.669,0,0,0-5.437,8.688l33.941,17.674-36.178-12.141a47.664,47.664,0,0,0,7.683,44.753,47.655,47.655,0,1,0,74.909,0,47.655,47.655,0,0,0,0-58.931Z" transform="translate(-1035.541 -162.271)" fill="#6c63ff"/>
      <path id="Path_806" data-name="Path 806" d="M1035.81,284.469a47.437,47.437,0,0,0,10.2,29.465,47.655,47.655,0,1,0,74.909,0C1127.309,305.823,1035.81,279.119,1035.81,284.469Z" transform="translate(-1035.575 -177.569)" opacity="0.1"/>
    </g>
    <g id="Group_24" data-name="Group 24" transform="translate(775.977 72.918)" opacity="0.1">
      <ellipse id="Ellipse_173" data-name="Ellipse 173" cx="7.438" cy="9.729" rx="7.438" ry="9.729" transform="translate(28.367 200.74)" fill="#3f3d56"/>
      <path id="Path_807" data-name="Path 807" d="M973.777,437a11.739,11.739,0,0,1-1.547-5.944c0-5.376,3.33-9.737,7.43-9.737s7.438,4.37,7.438,9.737A11.651,11.651,0,0,1,985.542,437a12.15,12.15,0,0,1,0,11.9,12.15,12.15,0,0,1,0,11.9,11.651,11.651,0,0,1,1.556,5.944c0,5.376-3.33,9.737-7.439,9.737s-7.43-4.37-7.43-9.737a11.739,11.739,0,0,1,1.547-5.944,12.237,12.237,0,0,1,0-11.9,12.237,12.237,0,0,1,0-11.9Z" transform="translate(-943.845 -268.165)" fill="#3f3d56"/>
      <ellipse id="Ellipse_174" data-name="Ellipse 174" cx="7.438" cy="9.729" rx="7.438" ry="9.729" transform="translate(28.367 141.267)" fill="#3f3d56"/>
      <ellipse id="Ellipse_175" data-name="Ellipse 175" cx="7.438" cy="9.729" rx="7.438" ry="9.729" transform="translate(28.367 129.371)" fill="#3f3d56"/>
      <path id="Path_808" data-name="Path 808" d="M1003.393,303.8a34.081,34.081,0,0,0,2.771-4.073l-19.536-3.208,21.127.157a35.7,35.7,0,0,0,.682-28.224L980.09,283.162l26.144-19.23a35.619,35.619,0,1,0-58.817,39.858,36.016,36.016,0,0,0-4.064,6.494L968.7,323.457l-26.983-9.064a35.628,35.628,0,0,0,5.743,33.443,35.61,35.61,0,1,0,55.942,0,35.61,35.61,0,0,0,0-44.037Z" transform="translate(-939.757 -246.103)" fill="#6c63ff"/>
      <path id="Path_809" data-name="Path 809" d="M939.8,337.224a35.463,35.463,0,0,0,7.622,22.018,35.61,35.61,0,1,0,55.942,0C1008.151,353.185,939.8,333.23,939.8,337.224Z" transform="translate(-939.759 -257.51)" opacity="0.1"/>
    </g>
    <g id="Group_25" data-name="Group 25" transform="translate(6.389 -0.212)" opacity="0.1">
      <ellipse id="Ellipse_176" data-name="Ellipse 176" cx="9.947" cy="13.024" rx="9.947" ry="13.024" transform="translate(37.499 268.704)" fill="#3f3d56"/>
      <path id="Path_810" data-name="Path 810" d="M120.024,417.977a15.734,15.734,0,0,0,2.08-7.963c0-7.194-4.458-13.024-9.947-13.024s-9.947,5.83-9.947,13.024a15.734,15.734,0,0,0,2.072,7.963,16.319,16.319,0,0,0,0,15.917,16.319,16.319,0,0,0,0,15.917,15.672,15.672,0,0,0-2.072,7.963c0,7.185,4.449,13.024,9.947,13.024s9.973-5.821,9.973-13.006a15.681,15.681,0,0,0-2.08-7.963,16.267,16.267,0,0,0,0-15.917,16.267,16.267,0,0,0,0-15.917Z" transform="translate(-64.711 -191.972)" fill="#3f3d56"/>
      <ellipse id="Ellipse_177" data-name="Ellipse 177" cx="9.947" cy="13.024" rx="9.947" ry="13.024" transform="translate(37.499 189.119)" fill="#3f3d56"/>
      <ellipse id="Ellipse_178" data-name="Ellipse 178" cx="9.947" cy="13.024" rx="9.947" ry="13.024" transform="translate(37.499 173.202)" fill="#3f3d56"/>
      <path id="Path_811" data-name="Path 811" d="M69.528,239.727a47.485,47.485,0,0,1-3.706-5.454l26.144-4.292-28.294.253a47.743,47.743,0,0,1-.874-37.761l37.935,19.676L65.769,186.434a47.655,47.655,0,1,1,78.668,53.319,47.672,47.672,0,0,1,5.437,8.688l-33.95,17.63,36.187-12.141a47.716,47.716,0,0,1-7.692,44.753,47.655,47.655,0,1,1-74.909,0,47.655,47.655,0,0,1,0-58.931Z" transform="translate(-59.309 -162.439)" fill="#6c63ff"/>
      <path id="Path_812" data-name="Path 812" d="M154.62,284.469a47.437,47.437,0,0,1-10.2,29.465,47.655,47.655,0,1,1-74.909,0C63.121,305.823,154.62,279.119,154.62,284.469Z" transform="translate(-59.309 -177.715)" opacity="0.1"/>
    </g>
    <g id="Group_26" data-name="Group 26" transform="translate(114.401 72.917)" opacity="0.1">
      <ellipse id="Ellipse_179" data-name="Ellipse 179" cx="7.438" cy="9.729" rx="7.438" ry="9.729" transform="translate(28.014 200.74)" fill="#3f3d56"/>
      <path id="Path_813" data-name="Path 813" d="M228.251,437a11.739,11.739,0,0,0,1.547-5.944c0-5.376-3.322-9.737-7.43-9.737s-7.438,4.37-7.438,9.737A11.739,11.739,0,0,0,216.486,437a12.15,12.15,0,0,0,0,11.9,12.15,12.15,0,0,0,0,11.9,11.74,11.74,0,0,0-1.556,5.944c0,5.376,3.33,9.737,7.438,9.737s7.43-4.37,7.43-9.737a11.739,11.739,0,0,0-1.547-5.944,12.237,12.237,0,0,0,0-11.9,12.237,12.237,0,0,0,0-11.9Z" transform="translate(-186.916 -268.165)" fill="#3f3d56"/>
      <ellipse id="Ellipse_180" data-name="Ellipse 180" cx="7.438" cy="9.729" rx="7.438" ry="9.729" transform="translate(28.014 141.268)" fill="#3f3d56"/>
      <ellipse id="Ellipse_181" data-name="Ellipse 181" cx="7.438" cy="9.729" rx="7.438" ry="9.729" transform="translate(28.014 129.371)" fill="#3f3d56"/>
      <path id="Path_814" data-name="Path 814" d="M190.5,303.8a35.144,35.144,0,0,1-2.771-4.073l19.536-3.208-21.127.157a35.7,35.7,0,0,1-.682-28.224l28.347,14.711-26.144-19.23a35.619,35.619,0,1,1,58.817,39.858,35.069,35.069,0,0,1,4.064,6.495l-25.349,13.172,27.036-9.073a35.628,35.628,0,0,1-5.743,33.443,35.61,35.61,0,1,1-55.942,0,35.61,35.61,0,0,1,0-44.037Z" transform="translate(-182.88 -246.103)" fill="#6c63ff"/>
      <path id="Path_815" data-name="Path 815" d="M254.1,337.224a35.462,35.462,0,0,1-7.622,22.018,35.61,35.61,0,1,1-55.942,0C185.732,353.185,254.1,333.23,254.1,337.224Z" transform="translate(-182.883 -257.51)" opacity="0.1"/>
    </g>
    <ellipse id="Ellipse_182" data-name="Ellipse 182" cx="479" cy="7.744" rx="479" ry="7.744" transform="translate(0 423.249)" fill="#6c63ff" opacity="0.1"/>
    <ellipse id="Ellipse_183" data-name="Ellipse 183" cx="479" cy="7.744" rx="479" ry="7.744" transform="translate(0 486.839)" fill="#6c63ff" opacity="0.1"/>
    <ellipse id="Ellipse_184" data-name="Ellipse 184" cx="479" cy="7.744" rx="479" ry="7.744" transform="translate(0 290.536)" fill="#6c63ff" opacity="0.1"/>
    <ellipse id="Ellipse_185" data-name="Ellipse 185" cx="479" cy="7.744" rx="479" ry="7.744" transform="translate(0 356.888)" fill="#6c63ff" opacity="0.1"/>
    <path id="Path_816" data-name="Path 816" d="M853.886,269.933a16,16,0,0,0-9.265,1.014,13.68,13.68,0,0,1-11.136,0,15.629,15.629,0,0,0-13.111.253,8.077,8.077,0,0,1-3.767.944c-5.314,0-9.729-5.349-10.646-12.4a10.384,10.384,0,0,0,2.622-2.858c3.112-5.017,7.928-8.243,13.347-8.243s10.174,3.182,13.286,8.146a10.209,10.209,0,0,0,8.82,4.842h.14C848.449,261.585,852.112,264.977,853.886,269.933Z" transform="translate(-146.933 -173.505)" fill="#6c63ff" opacity="0.1"/>
    <path id="Path_817" data-name="Path 817" d="M870.063,244.932l-8.584,5.437,5.245-9.475a8.479,8.479,0,0,0-5.192-1.844h-.14a9.922,9.922,0,0,1-1.748-.131l-2.954,1.844,1.25-2.273a10.305,10.305,0,0,1-5.1-3.863l-5.244,3.3,3.287-5.979a15.231,15.231,0,0,0-11.66-5.891c-5.419,0-10.236,3.217-13.356,8.234a9.973,9.973,0,0,1-8.82,4.755h-.288c-5.979,0-10.821,6.774-10.821,15.13s4.842,15.139,10.821,15.139a8.208,8.208,0,0,0,3.767-.944,15.611,15.611,0,0,1,13.111-.262,13.592,13.592,0,0,0,11.136,0,15.664,15.664,0,0,1,12.989.254,8.129,8.129,0,0,0,3.724.927c5.979,0,10.821-6.783,10.821-15.139A19.169,19.169,0,0,0,870.063,244.932Z" transform="translate(-146.93 -170.662)" fill="#6c63ff" opacity="0.1"/>
    <path id="Path_818" data-name="Path 818" d="M438.43,265.443a11.223,11.223,0,0,0-6.494.708,9.545,9.545,0,0,1-7.788,0,10.908,10.908,0,0,0-9.169.184,5.786,5.786,0,0,1-2.622.656c-3.715,0-6.809-3.741-7.456-8.68a7.273,7.273,0,0,0,1.862-2c2.176-3.5,5.55-5.769,9.344-5.769s7.124,2.229,9.3,5.7a7.159,7.159,0,0,0,6.18,3.391h.1C434.619,259.613,437.18,261.991,438.43,265.443Z" transform="translate(-96.434 -173.744)" fill="#6c63ff" opacity="0.1"/>
    <path id="Path_819" data-name="Path 819" d="M449.747,247.956l-6,3.811,3.645-6.634a5.9,5.9,0,0,0-3.628-1.294h-.1a6.547,6.547,0,0,1-1.241-.1l-2.037,1.294.874-1.591a7.255,7.255,0,0,1-3.566-2.7l-3.645,2.308,2.308-4.178a10.672,10.672,0,0,0-8.164-4.134c-3.794,0-7.168,2.255-9.344,5.769a6.993,6.993,0,0,1-6.18,3.33h-.2c-4.187,0-7.578,4.738-7.578,10.594s3.391,10.594,7.578,10.594a5.681,5.681,0,0,0,2.622-.664,10.926,10.926,0,0,1,9.16-.175,9.388,9.388,0,0,0,7.8.052,10.961,10.961,0,0,1,9.091.175,5.664,5.664,0,0,0,2.622.647c4.178,0,7.57-4.746,7.57-10.594a13.4,13.4,0,0,0-1.573-6.512Z" transform="translate(-96.432 -171.755)" fill="#6c63ff" opacity="0.1"/>
    <path id="Path_820" data-name="Path 820" d="M321.59,343.853a11.206,11.206,0,0,1,6.486.708,9.562,9.562,0,0,0,7.8,0,10.943,10.943,0,0,1,9.169.175,5.655,5.655,0,0,0,2.622.664c3.715,0,6.809-3.75,7.447-8.688a7.124,7.124,0,0,1-1.853-2c-2.185-3.5-5.559-5.76-9.344-5.76s-7.124,2.22-9.309,5.7a7.159,7.159,0,0,1-6.171,3.391h-.1C325.392,338.058,322.822,340.427,321.59,343.853Z" transform="translate(-85.945 -183.617)" fill="#6c63ff" opacity="0.1"/>
    <path id="Path_821" data-name="Path 821" d="M308.407,326.4l6.014,3.811-3.654-6.626a5.935,5.935,0,0,1,3.636-1.3h.1a7.447,7.447,0,0,0,1.25-.087l2.037,1.285-.874-1.582a7.247,7.247,0,0,0,3.558-2.7l3.645,2.308-2.273-4.187a10.664,10.664,0,0,1,8.164-4.126c3.785,0,7.168,2.255,9.344,5.769a6.993,6.993,0,0,0,6.171,3.33h.21c4.178,0,7.57,4.746,7.57,10.594s-3.391,10.594-7.57,10.594a5.673,5.673,0,0,1-2.622-.656,10.909,10.909,0,0,0-9.169-.184,9.492,9.492,0,0,1-3.916.874,9.614,9.614,0,0,1-3.881-.822,10.943,10.943,0,0,0-9.082.175,5.664,5.664,0,0,1-2.622.647c-4.187,0-7.578-4.738-7.578-10.594a13.5,13.5,0,0,1,1.547-6.521Z" transform="translate(-84.09 -181.633)" fill="#6c63ff" opacity="0.1"/>
    <path id="Path_822" data-name="Path 822" d="M714.9,639.483c2.281-4.231-.306-9.405-3.278-13.172s-6.608-7.692-6.529-12.491c.114-6.9,7.438-10.979,13.286-14.632a64.943,64.943,0,0,0,11.931-9.615,17.593,17.593,0,0,0,3.662-4.912c1.215-2.692,1.18-5.769,1.1-8.741q-.376-14.763-1.46-29.509" transform="translate(-134.232 -210.998)" fill="none" stroke="#3f3d56" stroke-miterlimit="10" stroke-width="4"/>
    <path id="Path_823" data-name="Path 823" d="M747.352,544.371a10.76,10.76,0,0,0-5.376-8.819l-2.412,4.764.079-5.769a10.76,10.76,0,1,0,7.709,9.825Z" transform="translate(-136.845 -209.449)" fill="#6c63ff"/>
    <path id="Path_824" data-name="Path 824" d="M725.562,626.924a10.76,10.76,0,0,1-20.314-4.37,10.488,10.488,0,0,1,.7-4.37,10.769,10.769,0,0,1,20.1.114l-6.722,5.472,7.395-1.748A10.7,10.7,0,0,1,725.562,626.924Z" transform="translate(-134.25 -219.173)" fill="#6c63ff"/>
    <path id="Path_825" data-name="Path 825" d="M720.787,602.171a10.76,10.76,0,0,1-3.409-21.109l-.061,4.432,2.439-4.825h0a10.763,10.763,0,1,1,1.005,21.5Z" transform="translate(-134.79 -215.31)" fill="#6c63ff"/>
    <path id="Path_826" data-name="Path 826" d="M750.67,582.282a10.76,10.76,0,1,1,4.755-20.1l-1.9,5.245,3.872-3.829a10.76,10.76,0,0,1-6.765,18.679Z" transform="translate(-138.546 -212.807)" fill="#6c63ff"/>
    <path id="Path_827" data-name="Path 827" d="M745.9,548.089c-2.482.271-4.895,1.04-7.395,1.2s-5.245-.446-6.8-2.378a34.5,34.5,0,0,1-1.993-3.5A7.657,7.657,0,0,0,727,540.86a10.76,10.76,0,1,0,20.1,7.15C746.711,548.019,746.3,548.045,745.9,548.089Z" transform="translate(-136.843 -210.299)" opacity="0.1"/>
    <path id="Path_828" data-name="Path 828" d="M750.677,583.169a10.76,10.76,0,0,1-10.235-15.349,7.963,7.963,0,0,1,2.159,2.168,36.456,36.456,0,0,0,2.133,3.558c1.678,1.967,4.545,2.622,7.141,2.491s5.1-.874,7.692-1.093c.358,0,.717-.052,1.084-.061a10.76,10.76,0,0,1-9.973,8.286Z" transform="translate(-138.553 -213.694)" opacity="0.1"/>
    <path id="Path_829" data-name="Path 829" d="M720.787,603.088a10.76,10.76,0,0,1-10.323-15.148,8.74,8.74,0,0,1,2.281,2.185,36.03,36.03,0,0,0,2.334,3.628c1.809,2.019,4.869,2.736,7.613,2.622s5.245-.708,7.867-.874A10.777,10.777,0,0,1,720.787,603.088Z" transform="translate(-134.79 -216.227)" opacity="0.1"/>
    <path id="Path_830" data-name="Path 830" d="M725.562,627.911a10.76,10.76,0,0,1-20.314-4.37,10.488,10.488,0,0,1,.7-4.37,10.742,10.742,0,0,1,2.36,2.107c1.023,1.241,1.7,2.622,2.884,3.82,2.194,2.159,5.752,3.051,8.907,3.129a45.19,45.19,0,0,0,5.463-.315Z" transform="translate(-134.25 -220.159)" opacity="0.1"/>
    <path id="Path_831" data-name="Path 831" d="M104.9,567.483c2.281-4.231-.306-9.405-3.278-13.172S95.011,546.6,95.09,541.82c.114-6.9,7.438-10.979,13.286-14.632a64.945,64.945,0,0,0,11.931-9.615,17.6,17.6,0,0,0,3.662-4.912c1.215-2.692,1.18-5.769,1.1-8.741q-.385-14.763-1.46-29.509" transform="translate(-57.425 -201.932)" fill="none" stroke="#3f3d56" stroke-miterlimit="10" stroke-width="4"/>
    <path id="Path_832" data-name="Path 832" d="M137.352,472.372a10.76,10.76,0,0,0-5.376-8.82l-2.412,4.764.079-5.769a10.76,10.76,0,1,0,7.709,9.825Z" transform="translate(-60.039 -200.383)" fill="#6c63ff"/>
    <path id="Path_833" data-name="Path 833" d="M115.562,554.924a10.76,10.76,0,0,1-20.314-4.37,10.489,10.489,0,0,1,.7-4.37,10.769,10.769,0,0,1,20.1.114l-6.722,5.472,7.395-1.748a10.7,10.7,0,0,1-1.163,4.9Z" transform="translate(-57.444 -210.107)" fill="#6c63ff"/>
    <path id="Path_834" data-name="Path 834" d="M110.787,530.171a10.76,10.76,0,0,1-3.409-21.109l-.061,4.432,2.439-4.825h0a10.763,10.763,0,0,1,1.005,21.5Z" transform="translate(-57.983 -206.244)" fill="#6c63ff"/>
    <path id="Path_835" data-name="Path 835" d="M140.67,510.282a10.76,10.76,0,1,1,4.755-20.1l-1.9,5.245,3.872-3.829a10.76,10.76,0,0,1-6.765,18.679Z" transform="translate(-61.74 -203.741)" fill="#6c63ff"/>
    <path id="Path_836" data-name="Path 836" d="M135.9,476.089c-2.482.271-4.895,1.04-7.395,1.2s-5.245-.446-6.8-2.378a34.506,34.506,0,0,1-1.993-3.5A7.657,7.657,0,0,0,117,468.86a10.76,10.76,0,1,0,20.1,7.15C136.711,476.019,136.3,476.045,135.9,476.089Z" transform="translate(-60.036 -201.233)" opacity="0.1"/>
    <path id="Path_837" data-name="Path 837" d="M140.677,511.169a10.76,10.76,0,0,1-10.236-15.349,7.963,7.963,0,0,1,2.159,2.168,36.463,36.463,0,0,0,2.133,3.558c1.678,1.967,4.545,2.622,7.141,2.491s5.1-.874,7.692-1.093c.358,0,.717-.052,1.084-.061A10.76,10.76,0,0,1,140.677,511.169Z" transform="translate(-61.747 -204.628)" opacity="0.1"/>
    <path id="Path_838" data-name="Path 838" d="M110.787,531.088a10.76,10.76,0,0,1-10.323-15.148,8.741,8.741,0,0,1,2.281,2.185,36.047,36.047,0,0,0,2.334,3.627c1.809,2.019,4.869,2.736,7.613,2.622s5.245-.708,7.867-.874A10.778,10.778,0,0,1,110.787,531.088Z" transform="translate(-57.984 -207.161)" opacity="0.1"/>
    <path id="Path_839" data-name="Path 839" d="M115.562,555.911a10.76,10.76,0,0,1-20.314-4.37,10.489,10.489,0,0,1,.7-4.37,10.745,10.745,0,0,1,2.36,2.107c1.023,1.241,1.7,2.622,2.884,3.82,2.194,2.159,5.752,3.051,8.907,3.129a45.179,45.179,0,0,0,5.463-.315Z" transform="translate(-57.444 -211.094)" opacity="0.1"/>
    <path id="Path_840" data-name="Path 840" d="M509.61,485.115c-2.281-4.222.306-9.4,3.287-13.164s6.6-7.692,6.521-12.491c-.1-6.905-7.43-10.979-13.286-14.632a64.685,64.685,0,0,1-11.923-9.615,17.289,17.289,0,0,1-3.671-4.9c-1.206-2.7-1.171-5.769-1.1-8.741q.393-14.763,1.46-29.509" transform="translate(-107.075 -191.563)" fill="none" stroke="#3f3d56" stroke-miterlimit="10" stroke-width="4"/>
    <path id="Path_841" data-name="Path 841" d="M478.388,390.012a10.751,10.751,0,0,1,5.367-8.82l2.413,4.764-.07-5.769a11.032,11.032,0,0,1,3.54-.428,10.76,10.76,0,1,1-11.249,10.253Z" transform="translate(-105.686 -190.013)" fill="#6c63ff"/>
    <path id="Path_842" data-name="Path 842" d="M500.169,472.552a10.76,10.76,0,1,0-.516-8.662l6.722,5.472-7.395-1.748a10.7,10.7,0,0,0,1.189,4.939Z" transform="translate(-108.28 -199.724)" fill="#6c63ff"/>
    <path id="Path_843" data-name="Path 843" d="M504.942,447.811A10.76,10.76,0,0,0,508.36,426.7l.052,4.432-2.439-4.825h0A10.76,10.76,0,0,0,494.7,436.526a10.63,10.63,0,0,0,.463,3.671,10.751,10.751,0,0,0,9.781,7.613Z" transform="translate(-107.74 -195.874)" fill="#6c63ff"/>
    <path id="Path_844" data-name="Path 844" d="M475.058,427.9a10.76,10.76,0,1,0-4.764-20.1l1.905,5.245-3.916-3.75a10.673,10.673,0,0,0-3.5,7.43,10.41,10.41,0,0,0,.271,2.963A10.751,10.751,0,0,0,475.058,427.9Z" transform="translate(-103.973 -193.368)" fill="#6c63ff"/>
    <path id="Path_845" data-name="Path 845" d="M479.876,393.729c2.482.271,4.895,1.04,7.386,1.2s5.245-.446,6.809-2.378a34.431,34.431,0,0,0,1.984-3.5,7.683,7.683,0,0,1,2.718-2.552,10.76,10.76,0,1,1-20.1,7.141C479.063,393.65,479.465,393.685,479.876,393.729Z" transform="translate(-105.723 -190.863)" opacity="0.1"/>
    <path id="Path_846" data-name="Path 846" d="M475.1,428.789a10.769,10.769,0,0,0,10.236-15.349,8,8,0,0,0-2.168,2.168,36.462,36.462,0,0,1-2.133,3.557c-1.67,1.967-4.537,2.622-7.133,2.491s-5.1-.874-7.692-1.093c-.358,0-.725-.052-1.084-.061a10.751,10.751,0,0,0,9.973,8.286Z" transform="translate(-104.018 -194.255)" opacity="0.1"/>
    <path id="Path_847" data-name="Path 847" d="M505.012,448.728a10.751,10.751,0,0,0,10.323-15.148,8.591,8.591,0,0,0-2.273,2.185,36.049,36.049,0,0,1-2.334,3.627c-1.818,2.019-4.869,2.736-7.622,2.622s-5.245-.708-7.867-.874a10.751,10.751,0,0,0,9.772,7.587Z" transform="translate(-107.809 -196.791)" opacity="0.1"/>
    <path id="Path_848" data-name="Path 848" d="M500.34,473.551a10.76,10.76,0,0,0,19.623-8.741,10.328,10.328,0,0,0-2.36,2.107c-1.023,1.241-1.748,2.622-2.885,3.82-2.2,2.159-5.751,3.051-8.916,3.129A47.17,47.17,0,0,1,500.34,473.551Z" transform="translate(-108.452 -200.723)" opacity="0.1"/>
    <circle id="Ellipse_186" data-name="Ellipse 186" cx="87.374" cy="87.374" r="87.374" transform="translate(594.179 120.771)" fill="#3f3d56"/>
    <path id="Path_849" data-name="Path 849" d="M863.5,417.607c-3.042-3.042-10.358-7.631-13.985-9.344-4.187-2.01-5.725-1.975-8.688.166-2.465,1.748-4.065,3.435-6.9,2.815s-8.444-4.851-13.872-10.262-9.641-10.987-10.244-13.863,1.058-4.44,2.823-6.905c2.133-2.963,2.194-4.5.166-8.688-1.748-3.627-6.285-10.926-9.353-13.985s-3.732-2.386-5.411-1.748a31.291,31.291,0,0,0-4.956,2.622c-3.042,2.037-4.746,3.732-5.944,6.285s-2.552,7.29,4.414,19.693a109.866,109.866,0,0,0,19.317,25.759h0A110.028,110.028,0,0,0,836.719,429.5c12.395,6.993,17.141,5.6,19.693,4.414s4.248-2.876,6.276-5.944a30.886,30.886,0,0,0,2.622-4.956C865.887,421.34,866.569,420.658,863.5,417.607Z" transform="translate(-144.441 -186.928)" fill="#6c63ff"/>
    <path id="Path_850" data-name="Path 850" d="M819.132,300.86A87.409,87.409,0,1,0,906.5,388.24,87.409,87.409,0,0,0,819.132,300.86Zm0,163.122a75.757,75.757,0,1,1,75.757-75.757,75.757,75.757,0,0,1-75.757,75.757Z" transform="translate(-137.58 -180.08)" opacity="0.1"/>
    <circle id="Ellipse_187" data-name="Ellipse 187" cx="87.374" cy="87.374" r="87.374" transform="translate(393.444 253.484)" fill="#3f3d56"/>
    <path id="Path_851" data-name="Path 851" d="M644.489,522.413l-26.161,26.616a.472.472,0,0,0,0,.682l18.356,19.518a3.158,3.158,0,1,1-4.467,4.467l-18.26-19.448a.5.5,0,0,0-.7,0l-4.449,4.493a19.553,19.553,0,0,1-13.985,5.883,19.982,19.982,0,0,1-14.23-6.049l-4.274-4.37a.5.5,0,0,0-.7,0l-18.216,19.4a3.158,3.158,0,1,1-4.467-4.467l18.286-19.475a.525.525,0,0,0,0-.682L545.062,522.37a.481.481,0,0,0-.822.341v53.258a7.8,7.8,0,0,0,7.771,7.771h85.547a7.8,7.8,0,0,0,7.771-7.771V522.754a.481.481,0,0,0-.839-.341Z" transform="translate(-113.979 -207.953)" fill="#6c63ff"/>
    <path id="Path_852" data-name="Path 852" d="M595.227,557.095a13.234,13.234,0,0,0,9.545-3.933l38.1-38.783a7.6,7.6,0,0,0-4.807-1.748H552.458a7.552,7.552,0,0,0-4.807,1.748l38.11,38.783A13.181,13.181,0,0,0,595.227,557.095Z" transform="translate(-114.408 -206.745)" fill="#6c63ff"/>
    <path id="Path_853" data-name="Path 853" d="M588.222,452.69a87.409,87.409,0,1,0,87.365,87.38A87.409,87.409,0,0,0,588.222,452.69Zm0,163.122a75.757,75.757,0,1,1,75.757-75.757,75.757,75.757,0,0,1-75.757,75.757Z" transform="translate(-108.506 -199.197)" opacity="0.1"/>
    <circle id="Ellipse_188" data-name="Ellipse 188" cx="87.374" cy="87.374" r="87.374" transform="translate(186.085 188.233)" fill="#3f3d56"/>
    <path id="Path_854" data-name="Path 854" d="M359.832,430.16,325,510.524l3.252,3.252,31.59-13.933,31.59,13.933,3.252-3.252Z" transform="translate(-86.374 -196.361)" fill="#6c63ff"/>
    <path id="Path_855" data-name="Path 855" d="M352.252,378a87.358,87.358,0,1,0,.015,0Zm0,163.122a62.376,62.376,0,1,1,.009.035Z" transform="translate(-78.794 -189.793)" opacity="0.1"/>
    <path id="Path_856" data-name="Path 856" d="M834.92,598.413q-1.189-2.9-2.439-5.786a17.173,17.173,0,0,0-2.981-5.148,5.454,5.454,0,0,0-1.748-1.311,7.454,7.454,0,0,0-2.281-.455,18.212,18.212,0,0,0-3.584-.1c-.463-.14-.988-.323-1.5-.533a12.482,12.482,0,0,0,9.3-11.582v-.533a12.456,12.456,0,0,0-12.4-12.508,12.237,12.237,0,0,0-6.512,1.862,11.687,11.687,0,0,0-13.111,6.32,14.448,14.448,0,0,0-4.458,10.751c0,.184,0,.376,0,.551.227,6.792,4.615,12.237,10.157,12.788a5.823,5.823,0,0,0-1.608,1.075c-1.7,1.635-1.975,4.231-2.159,6.591l-.131,1.748-2.937,1.049a.542.542,0,0,0-.131.953l2.806,2v.5a2.188,2.188,0,0,0,.052.568,4.011,4.011,0,0,0-1.084,1.547,7.148,7.148,0,0,0-.254,2.832l.1,2.439a19.151,19.151,0,0,0,.743,5.428c.367,1.084,1.958,3.7,3.1,3.715-1.058,4.807-1.337,14.947-1.337,14.947-.131.131.236.253.874.358.629,4.825,2.683,18.356,6.328,24.308A51.236,51.236,0,0,1,809.1,668.7s1.04,12.858,2.412,16.678c1.171,3.252,2.1,11.276,2.351,13.6a1.337,1.337,0,0,0-.97,1c-.691,2.08-5.166,5.245-5.166,5.245a21.646,21.646,0,0,0-3.863,2.474c-1.407,1.267-1.355,2.413,4.895,1.7,12.062-1.39,14.125-5.245,14.125-5.245s-.192-.647-.481-1.486a16.139,16.139,0,0,0-1.582-3.732c-.175-.166-.35.114-.559.551a74.849,74.849,0,0,1-.822-16.879s.341-5.909-1.381-10.078a19.083,19.083,0,0,1,0-6.6c.69-2.78-2.753-16.337-2.753-16.337L813.33,639.6a2.867,2.867,0,0,1,.551,1.163l.052.2.052.288a.541.541,0,0,0,.14.271c1.346,5.594,5.035,21.092,5.035,23.364,0,2.78,3.444,9.729,3.444,9.729s1.372,11.468,3.785,15.978c1.835,3.435,1.879,8.47,1.792,10.69h0s-.411,2.858-1.1,3.549a8.443,8.443,0,0,0-1.3,2.264l-.079.166s-1.031,2.089-.341,2.439a16.931,16.931,0,0,0,8.269,1.04s1.381-1.748,1.381-2.43a10.911,10.911,0,0,0-.157-1.241c-.253-1.643-.725-4.231-.734-4.257.288-1.119-.874-4.231-.874-4.231l-.35-9.729a44.911,44.911,0,0,0-2.412-19.466s-1.748-6.25-1.372-7.989-.69-20.156-.69-20.156l-.1-.262a19.915,19.915,0,0,1,.1-3.907c.341-4.169-1.031-12.858-1.381-13.2a11.454,11.454,0,0,1-.49-2.876c.079-.726.315-2.85.638-5.489a98.667,98.667,0,0,0,10.157-.874,1.268,1.268,0,0,0,.874-.35,1.224,1.224,0,0,0,.2-.708C838.818,608.342,836.9,603.255,834.92,598.413Zm-6.932,11.022c.358-2.491.743-4.9,1.128-6.7l.052.157a48.631,48.631,0,0,1,1.661,5.507A18.729,18.729,0,0,1,827.988,609.435Z" transform="translate(-145.326 -212.767)" fill="url(#linear-gradient)"/>
    <path id="Path_857" data-name="Path 857" d="M802.37,648.582s2.063,18.557,6.529,25.768a50.013,50.013,0,0,1,1.372,5.839s1.031,12.709,2.4,16.485,2.4,14.09,2.4,14.09,4.807,5.489,6.529,1.031a72.393,72.393,0,0,1-1.031-17.866s.341-5.839-1.372-9.965a18.636,18.636,0,0,1,0-6.521c.682-2.753-2.753-16.144-2.753-16.144l-2.745-13.4Z" transform="translate(-146.481 -223.777)" fill="#be6f72"/>
    <path id="Path_858" data-name="Path 858" d="M824.291,724.18s-2.063,3.776-14.082,5.148c-6.241.708-6.285-.419-4.877-1.678a21.762,21.762,0,0,1,3.846-2.447s4.467-3.086,5.148-5.148,3.094-.341,3.094-.341c3.435,5.148,4.126-1.381,4.807-.69a15.5,15.5,0,0,1,1.582,3.68C824.1,723.533,824.291,724.18,824.291,724.18Z" transform="translate(-146.759 -232.725)" fill="#ff6f61"/>
    <path id="Path_859" data-name="Path 859" d="M824.291,724.717s-2.063,3.776-14.082,5.148c-6.241.708-6.285-.419-4.877-1.678.979.621,2.954.874,6.932-.725,5.725-2.343,9.877-3.7,11.547-4.222C824.1,724.07,824.291,724.717,824.291,724.717Z" transform="translate(-146.759 -233.263)" opacity="0.1"/>
    <path id="Path_860" data-name="Path 860" d="M821.868,693.929s.341-5.839-1.372-9.965a18.638,18.638,0,0,1,0-6.521c.682-2.753-2.753-16.144-2.753-16.144L815,647.9l-2.377.14,2.718,13.26s3.435,13.391,2.753,16.144a18.632,18.632,0,0,0,0,6.521c1.748,4.126,1.372,9.965,1.372,9.965A72.393,72.393,0,0,0,820.5,711.8a3.008,3.008,0,0,1-1,1.416c1.276.577,2.622.551,3.4-1.416A72.4,72.4,0,0,1,821.868,693.929Z" transform="translate(-147.771 -223.777)" opacity="0.1"/>
    <path id="Path_861" data-name="Path 861" d="M817.176,562.42a12.239,12.239,0,0,0-6.486,1.844,11.669,11.669,0,0,0-13.111,6.25,14.23,14.23,0,0,0-4.449,10.629c0,7.307,4.921,13.225,10.987,13.225,4.37,0,8.2-3.112,9.956-7.613a12.061,12.061,0,0,0,3.094.4,12.368,12.368,0,0,0,0-24.737Z" transform="translate(-145.317 -213.014)" fill="#3f3d56"/>
    <path id="Path_862" data-name="Path 862" d="M830.253,650.65l1.031,2.745s1.031,18.207.682,19.929,1.381,7.867,1.381,7.867a43.974,43.974,0,0,1,2.4,19.23l.341,9.615s1.372,3.776.69,4.467-5.865-.612-5.865-.612.691-7.211-1.748-11.678-3.776-15.8-3.776-15.8-3.435-6.87-3.435-9.615-5.5-25.078-5.5-25.078Z" transform="translate(-148.255 -224.123)" fill="#be6f72"/>
    <path id="Path_863" data-name="Path 863" d="M801.576,647.145s.35-12.368,1.748-16.144a25.631,25.631,0,0,0,1.53-5.481s20.794,3.759,22.516,2.386c0,0,.341,4.807.691,5.148s1.748,8.933,1.372,13.059,0,4.117,0,4.117-14.09,2.063-14.431,0-1.372-2.054-1.372-2.054S800.894,647.792,801.576,647.145Z" transform="translate(-146.378 -220.959)" fill="#3f3d56"/>
    <g id="Group_27" data-name="Group 27" transform="translate(655.198 406.947)" opacity="0.1">
      <path id="Path_864" data-name="Path 864" d="M812.917,650.158s-8.688-.236-11.311-.708v.708c-.682.682,12.027,1.031,12.027,1.031a.874.874,0,0,1,.472.192C813.642,650.158,812.917,650.158,812.917,650.158Z" transform="translate(-801.58 -630.919)"/>
      <path id="Path_865" data-name="Path 865" d="M829.954,633.4c-.35-.341-.691-5.148-.691-5.148a1.477,1.477,0,0,1-.586.21,17.374,17.374,0,0,0,.586,3.907c.227.227,1.748,8.933,1.372,13.059s0,4.117,0,4.117-11.145,1.635-13.846.542a4.149,4.149,0,0,0,.1.489c.341,2.063,14.431,0,14.431,0s-.35,0,0-4.117S830.295,633.748,829.954,633.4Z" transform="translate(-803.495 -628.25)"/>
      <path id="Path_866" data-name="Path 866" d="M812.917,650.158s-8.688-.236-11.311-.708v.708c-.682.682,12.027,1.031,12.027,1.031a.874.874,0,0,1,.472.192C813.642,650.158,812.917,650.158,812.917,650.158Z" transform="translate(-801.58 -630.919)"/>
      <path id="Path_867" data-name="Path 867" d="M829.954,633.4c-.35-.341-.691-5.148-.691-5.148a1.477,1.477,0,0,1-.586.21,17.374,17.374,0,0,0,.586,3.907c.227.227,1.748,8.933,1.372,13.059s0,4.117,0,4.117-11.145,1.635-13.846.542a4.149,4.149,0,0,0,.1.489c.341,2.063,14.431,0,14.431,0s-.35,0,0-4.117S830.295,633.748,829.954,633.4Z" transform="translate(-803.495 -628.25)"/>
    </g>
    <path id="Path_868" data-name="Path 868" d="M817.835,586.671a4.555,4.555,0,0,0,1.311,1.7,2.938,2.938,0,0,0,1.232.533c-.769.446-1.608.778-2.377,1.224a42.274,42.274,0,0,0-3.5,2.622,7.115,7.115,0,0,1-4.012,1.556,4.913,4.913,0,0,0,.559-4.886,4.564,4.564,0,0,1-.612-1.7,3.047,3.047,0,0,1,1.687-2.273c.656-.446,1.329-.874,2.01-1.3.533-.332,1.337-1.031,2.01-1.005s.752.621.874,1.232A9.691,9.691,0,0,0,817.835,586.671Z" transform="translate(-147.497 -215.622)" fill="#be6f72"/>
    <path id="Path_869" data-name="Path 869" d="M817.835,586.671a4.555,4.555,0,0,0,1.311,1.7,2.938,2.938,0,0,0,1.232.533c-.769.446-1.608.778-2.377,1.224a42.274,42.274,0,0,0-3.5,2.622,7.115,7.115,0,0,1-4.012,1.556,4.913,4.913,0,0,0,.559-4.886,4.564,4.564,0,0,1-.612-1.7,3.047,3.047,0,0,1,1.687-2.273c.656-.446,1.329-.874,2.01-1.3.533-.332,1.337-1.031,2.01-1.005s.752.621.874,1.232A9.691,9.691,0,0,0,817.835,586.671Z" transform="translate(-147.497 -215.622)" opacity="0.1"/>
    <circle id="Ellipse_189" data-name="Ellipse 189" cx="7.902" cy="7.902" r="7.902" transform="translate(670.486 375.515)" fill="#be6f72"/>
    <path id="Path_870" data-name="Path 870" d="M839.461,728.463c0,.69-1.372,2.4-1.372,2.4a17.01,17.01,0,0,1-8.243-1.031c-.69-.341.341-2.4.341-2.4l.079-.166a8.341,8.341,0,0,1,1.3-2.238c.682-.682,1.093-3.5,1.093-3.5,2.133-3.5,5.918,1.512,5.918,1.512s.481,2.622.734,4.213A11.971,11.971,0,0,1,839.461,728.463Z" transform="translate(-149.91 -232.892)" fill="#ff6f61"/>
    <path id="Path_871" data-name="Path 871" d="M839.461,729.464c0,.69-1.372,2.4-1.372,2.4a17.01,17.01,0,0,1-8.243-1.031c-.69-.341.341-2.4.341-2.4l.079-.166a16.608,16.608,0,0,0,7.482,1.538l1.565-1.565C839.4,728.826,839.461,729.289,839.461,729.464Z" transform="translate(-149.91 -233.893)" opacity="0.1"/>
    <circle id="Ellipse_190" data-name="Ellipse 190" cx="7.727" cy="7.727" r="7.727" transform="translate(654.858 359.196)" fill="#be6f72"/>
    <path id="Path_872" data-name="Path 872" d="M802.539,599.842c-1.7,1.617-1.975,4.178-2.15,6.512l-.262,3.418a17.251,17.251,0,0,0-.061,2.771c0,.568.14,1.145.192,1.748s.07,1.364.079,2.054V621.4a5.961,5.961,0,0,0,.559,3.033,2.063,2.063,0,0,0,2.622.944A2.989,2.989,0,0,0,804.6,623.7a26.094,26.094,0,0,0,1.748-6.4c.07-.76.079-1.521.149-2.281s.2-1.556.315-2.325c.49-3.217.708-6.468.927-9.711.061-.961.927-4.746-.332-5.166-.612-.2-1.879.428-2.465.638a6.94,6.94,0,0,0-2.4,1.39Z" transform="translate(-146.187 -217.465)" fill="#be6f72"/>
    <path id="Path_873" data-name="Path 873" d="M802.539,599.842c-1.7,1.617-1.975,4.178-2.15,6.512l-.262,3.418a17.251,17.251,0,0,0-.061,2.771c0,.568.14,1.145.192,1.748s.07,1.364.079,2.054V621.4a5.961,5.961,0,0,0,.559,3.033,2.063,2.063,0,0,0,2.622.944A2.989,2.989,0,0,0,804.6,623.7a26.094,26.094,0,0,0,1.748-6.4c.07-.76.079-1.521.149-2.281s.2-1.556.315-2.325c.49-3.217.708-6.468.927-9.711.061-.961.927-4.746-.332-5.166-.612-.2-1.879.428-2.465.638a6.94,6.94,0,0,0-2.4,1.39Z" transform="translate(-146.187 -217.465)" opacity="0.1"/>
    <path id="Path_874" data-name="Path 874" d="M819.12,588.16s-5.839,4.467-9.274,5.5c0,0-2.037,2.325-2.386,2.884s-1.049,6.73-1.748,8.112-2.4,4.467,0,7.552c0,0,.682,3.094.341,4.126s-1.591,4.807-.455,4.982,4.58,2.57,7.666,1.888,14.606,2.622,14.606,2.622,1.905-17.7,3.286-20.829l-3.094-1.031s-8.584-5.148-3.435-13.05C824.618,590.913,819.793,589.882,819.12,588.16Z" transform="translate(-146.745 -216.255)" fill="#ff6f61"/>
    <path id="Path_875" data-name="Path 875" d="M796.808,611.509l7.1,5.026a.524.524,0,0,0,.621,0l1.923-1.442a.542.542,0,0,0,0-.822l-5.463-4.851a.524.524,0,0,0-.533-.1l-3.505,1.259a.533.533,0,0,0-.14.935Z" transform="translate(-145.753 -218.914)" fill="#3f3d56"/>
    <path id="Path_876" data-name="Path 876" d="M799.442,627.2a19.022,19.022,0,0,1-.743-5.358l-.1-2.421a6.992,6.992,0,0,1,.253-2.8,4.571,4.571,0,0,1,2.946-2.578,10.173,10.173,0,0,1,4.012-.289,1.031,1.031,0,0,1,.516.14.961.961,0,0,1,.28.472,3.164,3.164,0,0,1,.157,2.526,2.621,2.621,0,0,1-.8.831c-.953.682-2.063,1.136-2.963,1.879a1.075,1.075,0,0,0-.4.507,1.18,1.18,0,0,0,0,.551,8.805,8.805,0,0,0,.454,1.407,1.39,1.39,0,0,0,.393.594c.166.14.385.192.559.323.376.306,1.163.708,1.119,1.189-.131,1.748-1.18,3.706-1.591,5.437C802.737,633,799.949,628.679,799.442,627.2Z" transform="translate(-146 -219.467)" fill="#be6f72"/>
    <g id="Group_28" data-name="Group 28" transform="translate(664.289 388.225)" opacity="0.1">
      <path id="Path_877" data-name="Path 877" d="M812.172,628.238h-.192a5.883,5.883,0,0,0,2.246,0h.219a7.87,7.87,0,0,0-2.273,0Z" transform="translate(-811.98 -609.515)"/>
      <path id="Path_878" data-name="Path 878" d="M832.344,606.83c-1.232,2.771-3.051,17.779-3.374,20.76,1.206.315,2,.542,2,.542s1.888-17.657,3.269-20.786Z" transform="translate(-814.119 -606.83)"/>
    </g>
    <path id="Path_879" data-name="Path 879" d="M826.341,600.253a2.622,2.622,0,0,0,1.128,1.7,15.132,15.132,0,0,1,2,2.028,14.36,14.36,0,0,1,1.984,3.977,48.721,48.721,0,0,1,1.652,5.437c-4.37,2.028-9.335,1.932-13.985,3.269a11.163,11.163,0,0,0-5.245,3.1,7.228,7.228,0,0,0-1.932,5.69.742.742,0,0,0,.1.341.734.734,0,0,0,.612.245,5.245,5.245,0,0,0,3.208-1.1,15.27,15.27,0,0,0,2.456-2.413,3.951,3.951,0,0,1,1.748-1.294,28.609,28.609,0,0,1,7.867-.769,99.138,99.138,0,0,0,11.721-.927.944.944,0,0,0,1.049-1.049c.385-5.157-1.53-10.192-3.5-14.973q-1.18-2.876-2.43-5.725a16.959,16.959,0,0,0-2.972-5.087,5.244,5.244,0,0,0-1.748-1.294,7.394,7.394,0,0,0-2.342-.437,16.612,16.612,0,0,0-3.837-.07,8.18,8.18,0,0,0-.367,1.984,17.189,17.189,0,0,0,2.115,6.7C825.764,599.92,826.14,599.938,826.341,600.253Z" transform="translate(-147.682 -216.591)" fill="#be6f72"/>
    <path id="Path_880" data-name="Path 880" d="M812.284,606.67a6.407,6.407,0,0,0-.874,3.339,4.5,4.5,0,0,0,.219,1.364,4.423,4.423,0,0,0,2.788,2.622" transform="translate(-147.619 -218.585)" fill="none" stroke="#000" stroke-miterlimit="10" stroke-width="1" opacity="0.1"/>
    <path id="Path_881" data-name="Path 881" d="M815.221,573.423a4.011,4.011,0,0,0-1.267.2c-1.145-1.748-3.837-2.954-6.993-2.954-4.178,0-7.561,2.159-7.561,4.816s3.383,4.807,7.561,4.807a10.636,10.636,0,0,0,4.536-.961,4.117,4.117,0,1,0,3.706-5.909Z" transform="translate(-146.107 -214.052)" fill="#3f3d56"/>
    <path id="Path_882" data-name="Path 882" d="M815.559,581.111a4.109,4.109,0,0,1-3.707-2.335,10.638,10.638,0,0,1-4.536.962c-4.169,0-7.552-2.15-7.552-4.807a2.893,2.893,0,0,1,0-.481,3.26,3.26,0,0,0-.385,1.512c0,2.622,3.383,4.807,7.561,4.807a10.638,10.638,0,0,0,4.536-.961,4.117,4.117,0,0,0,7.753-1.023,4.1,4.1,0,0,1-3.671,2.325Z" transform="translate(-146.104 -214.528)" opacity="0.1"/>
    <path id="Path_883" data-name="Path 883" d="M797.582,572.542a11.669,11.669,0,0,1,13.111-6.25,12.36,12.36,0,0,1,18.81,9.493v-1.031a12.36,12.36,0,0,0-18.854-10.489,11.669,11.669,0,0,0-13.111,6.25,14.23,14.23,0,0,0-4.449,10.629v1.031A13.985,13.985,0,0,1,797.582,572.542Z" transform="translate(-145.312 -213.014)" opacity="0.1"/>
    <path id="Path_884" data-name="Path 884" d="M886.977,563.594c2.281-4.222-.306-9.405-3.287-13.173s-6.6-7.683-6.521-12.491c.1-6.9,7.43-10.97,13.286-14.632a64.592,64.592,0,0,0,11.923-9.615,17.42,17.42,0,0,0,3.671-4.9c1.206-2.7,1.171-5.769,1.1-8.741q-.385-14.772-1.46-29.509" transform="translate(-155.899 -201.444)" fill="none" stroke="#3f3d56" stroke-miterlimit="10" stroke-width="4"/>
    <path id="Path_885" data-name="Path 885" d="M919.422,468.452a10.743,10.743,0,0,0-5.367-8.811l-2.412,4.764.07-5.769a10.559,10.559,0,0,0-3.54-.428,10.76,10.76,0,1,0,11.25,10.244Z" transform="translate(-158.511 -199.89)" fill="#6c63ff"/>
    <path id="Path_886" data-name="Path 886" d="M897.642,551a10.76,10.76,0,1,1,.516-8.671l-6.722,5.472,7.395-1.748A10.7,10.7,0,0,1,897.641,551Z" transform="translate(-155.917 -209.602)" fill="#6c63ff"/>
    <path id="Path_887" data-name="Path 887" d="M892.865,526.252a10.76,10.76,0,0,1-3.418-21.109l-.052,4.432,2.439-4.816h0a10.763,10.763,0,1,1,1.005,21.5Z" transform="translate(-156.455 -205.752)" fill="#6c63ff"/>
    <path id="Path_888" data-name="Path 888" d="M922.741,506.372a10.76,10.76,0,1,1,4.764-20.1l-1.906,5.245,3.916-3.759a10.7,10.7,0,0,1,3.5,7.43,10.382,10.382,0,0,1-.271,2.963A10.76,10.76,0,0,1,922.741,506.372Z" transform="translate(-160.213 -203.249)" fill="#6c63ff"/>
    <path id="Path_889" data-name="Path 889" d="M917.978,472.169c-2.482.28-4.9,1.049-7.395,1.206s-5.245-.446-6.809-2.386a33.39,33.39,0,0,1-1.984-3.5,7.736,7.736,0,0,0-2.71-2.552,10.76,10.76,0,1,0,20.1,7.141C918.782,472.1,918.38,472.125,917.978,472.169Z" transform="translate(-158.509 -200.74)" opacity="0.1"/>
    <path id="Path_890" data-name="Path 890" d="M922.747,507.259a10.769,10.769,0,0,1-10.236-15.349,7.962,7.962,0,0,1,2.168,2.159,34.475,34.475,0,0,0,2.133,3.558c1.669,1.975,4.536,2.622,7.133,2.5s5.1-.874,7.692-1.093c.358,0,.725-.061,1.084-.07A10.76,10.76,0,0,1,922.747,507.259Z" transform="translate(-160.22 -204.136)" opacity="0.1"/>
    <path id="Path_891" data-name="Path 891" d="M892.866,527.165A10.751,10.751,0,0,1,882.542,512a8.87,8.87,0,0,1,2.273,2.185c.874,1.18,1.355,2.544,2.334,3.628,1.818,2.028,4.869,2.736,7.622,2.675s5.245-.717,7.867-.918A10.76,10.76,0,0,1,892.866,527.165Z" transform="translate(-156.455 -206.665)" opacity="0.1"/>
    <path id="Path_892" data-name="Path 892" d="M897.65,552a10.769,10.769,0,0,1-19.623-8.741,10.54,10.54,0,0,1,2.36,2.107c1.031,1.25,1.7,2.622,2.885,3.829,2.2,2.159,5.752,3.042,8.916,3.129A47.15,47.15,0,0,0,897.65,552Z" transform="translate(-155.926 -210.601)" opacity="0.1"/>
    <path id="Path_893" data-name="Path 893" d="M1045.977,715.594c2.281-4.222-.306-9.405-3.287-13.172s-6.6-7.683-6.521-12.491c.1-6.9,7.43-10.97,13.286-14.632a64.6,64.6,0,0,0,11.922-9.615,17.418,17.418,0,0,0,3.671-4.9c1.206-2.7,1.171-5.769,1.1-8.741q-.376-14.772-1.46-29.509" transform="translate(-175.919 -220.582)" fill="none" stroke="#3f3d56" stroke-miterlimit="10" stroke-width="4"/>
    <path id="Path_894" data-name="Path 894" d="M1078.428,620.453a10.742,10.742,0,0,0-5.367-8.811l-2.412,4.764.07-5.769a10.557,10.557,0,0,0-3.5-.428,10.76,10.76,0,1,0,11.25,10.244Z" transform="translate(-178.537 -219.029)" fill="#6c63ff"/>
    <path id="Path_895" data-name="Path 895" d="M1056.641,703a10.76,10.76,0,1,1,.516-8.671l-6.722,5.472,7.395-1.748a10.7,10.7,0,0,1-1.189,4.947Z" transform="translate(-175.937 -228.74)" fill="#6c63ff"/>
    <path id="Path_896" data-name="Path 896" d="M1051.865,678.252a10.76,10.76,0,0,1-3.418-21.109l-.052,4.432,2.439-4.816h0a10.763,10.763,0,1,1,1.005,21.5Z" transform="translate(-176.475 -224.891)" fill="#6c63ff"/>
    <path id="Path_897" data-name="Path 897" d="M1081.741,658.372a10.76,10.76,0,1,1,4.764-20.1l-1.906,5.245,3.916-3.759a10.7,10.7,0,0,1,3.5,7.43,10.391,10.391,0,0,1-.271,2.963A10.76,10.76,0,0,1,1081.741,658.372Z" transform="translate(-180.233 -222.387)" fill="#6c63ff"/>
    <path id="Path_898" data-name="Path 898" d="M1076.978,624.169c-2.482.28-4.9,1.049-7.395,1.206s-5.245-.446-6.809-2.386a33.35,33.35,0,0,1-1.984-3.5,7.736,7.736,0,0,0-2.71-2.552,10.76,10.76,0,1,0,20.1,7.141C1077.782,624.1,1077.38,624.125,1076.978,624.169Z" transform="translate(-178.529 -219.878)" opacity="0.1"/>
    <path id="Path_899" data-name="Path 899" d="M1081.747,659.259a10.769,10.769,0,0,1-10.235-15.349,7.966,7.966,0,0,1,2.168,2.159,34.505,34.505,0,0,0,2.133,3.558c1.669,1.975,4.536,2.622,7.132,2.5s5.1-.874,7.692-1.093c.358,0,.725-.061,1.084-.07A10.76,10.76,0,0,1,1081.747,659.259Z" transform="translate(-180.24 -223.274)" opacity="0.1"/>
    <path id="Path_900" data-name="Path 900" d="M1051.866,679.165A10.751,10.751,0,0,1,1041.543,664a8.874,8.874,0,0,1,2.273,2.185c.874,1.18,1.355,2.544,2.334,3.628,1.818,2.028,4.869,2.736,7.622,2.675s5.245-.717,7.867-.918A10.76,10.76,0,0,1,1051.866,679.165Z" transform="translate(-176.476 -225.804)" opacity="0.1"/>
    <path id="Path_901" data-name="Path 901" d="M1056.65,704a10.769,10.769,0,0,1-19.623-8.741,10.541,10.541,0,0,1,2.36,2.107c1.031,1.25,1.748,2.622,2.885,3.829,2.2,2.159,5.751,3.042,8.916,3.129a47.135,47.135,0,0,0,5.463-.323Z" transform="translate(-175.946 -229.74)" opacity="0.1"/>
    <path id="Path_902" data-name="Path 902" d="M513.118,584.374a8.575,8.575,0,0,0-3.418-6.923,10.052,10.052,0,0,0-8.4-9.86,10.035,10.035,0,0,0-6.687-7.474h0a8.531,8.531,0,0,0-1.241-.288H491.9a9.842,9.842,0,0,0-9.51,8.409c-3.068-.708-5.874.21-6.39,2.15a2.622,2.622,0,0,0,.087,1.556c.524,1.5,2.229,2.946,4.51,3.654l.3.087.446.114h.1a7.728,7.728,0,0,0-.734,3.313,7.64,7.64,0,0,0,4.117,6.818l-.2.122a2.727,2.727,0,0,0-.664.927,13.863,13.863,0,0,0-1.285,3.094c-.219.927-.254,1.888-.524,2.806-.507,1.687-1.8,3.112-1.949,4.869-.07.787.061,1.748-.5,2.255a2.717,2.717,0,0,1-.446.315,3.609,3.609,0,0,0-.97,1.023,3.392,3.392,0,0,1-.682.979c-.507.376-1.337.341-1.582.927s.393,1.276.245,1.914-.691.76-1.084,1.119a3.89,3.89,0,0,0-.935,1.748,5.734,5.734,0,0,1-4.72-1.206,8.82,8.82,0,0,1,.49,1.748,7.657,7.657,0,0,0-2.544-1.276,8.032,8.032,0,0,1-2.71-2.01l1.451-.2L459.8,595.3l-1.9-.393,1.7,3.26a1.04,1.04,0,0,0-.577.69,2.963,2.963,0,0,0-.061,1.11,19.869,19.869,0,0,0,.437,2.622l.489,2.29c.044.21.1.428.157.638a6.023,6.023,0,0,0-1.9.21,16.506,16.506,0,0,0-3.942-.935,2.185,2.185,0,0,0-.874,0,2.264,2.264,0,0,0-.83.673,26.88,26.88,0,0,0-2.928,4.126c-3.5,6-8.05,11.232-12.36,16.651-2.972,1.206-5.97,2.351-8.968,3.5l-6.451,2.465a9.781,9.781,0,0,1-4,.874c-.612,0-1.372-.131-1.748.393a3.681,3.681,0,0,0-.393.874l-.664.07h0a7.639,7.639,0,0,0-1.547-2.85.979.979,0,0,0-.725.559c-.157.288-.253.6-.437.874-.341.507-.944.752-1.372,1.18s-.7,1.093-1.171,1.53a4.632,4.632,0,0,1-2.194.874,13.845,13.845,0,0,0-3.435,1.3,5.532,5.532,0,0,1-1.267.586,4.763,4.763,0,0,1-1.495.052l-3.409-.253a2.693,2.693,0,0,0-.918.044,1.748,1.748,0,0,0-1.084,1.748,2.753,2.753,0,0,0,1.084,1.879,6.94,6.94,0,0,0,1.941,1.005,56.946,56.946,0,0,0,9.091,2.692v.691a15.515,15.515,0,0,0,6.993,1.661,1.084,1.084,0,0,0,.525-.1,1.154,1.154,0,0,0,.437-.682,28.119,28.119,0,0,0,1.364-6.7h0a3.5,3.5,0,0,0,1.232-.315c1.171-.323,2.343.481,3.558.612,1.495.166,2.876-.708,4.292-1.241l.612-.2a6.711,6.711,0,0,1-1.416,1.355c-.586.42-1.241.734-1.809,1.171a12.468,12.468,0,0,1-1.538,1.189,9.643,9.643,0,0,1-1.18.455,7.788,7.788,0,0,0-1.687.874,3.418,3.418,0,0,0-1.145,1.119,1.678,1.678,0,0,0-.1,1.573,1.661,1.661,0,0,0,1.128.787,4.625,4.625,0,0,0,1.39,0c1.853-.14,3.7-.306,5.542-.472a14.788,14.788,0,0,0,2.316-.332c.4-.1.8-.227,1.206-.341a10.764,10.764,0,0,1,2.107-.315,1.748,1.748,0,0,1,.612.061c.428.14.734.577,1.171.664a1.748,1.748,0,0,0,.874-.114,19.5,19.5,0,0,1,4.1-.437,1.692,1.692,0,0,0,1.591-.708c.28-.559-.227-1.46-.454-2.2a6.74,6.74,0,0,1-.192-1.451,9.084,9.084,0,0,0-1.014-3.444,8.991,8.991,0,0,1-.76-1.573,39.747,39.747,0,0,0,7.543-3.829,13.489,13.489,0,0,1,4.3-2.071,11.7,11.7,0,0,1,5.4.629,122.911,122.911,0,0,1,12.386,4.318c1.932.8,3.855,1.635,5.848,2.238a9.117,9.117,0,0,0,2.08,2.019,9.616,9.616,0,0,0,4.5,1.232A59.01,59.01,0,0,0,486.2,642a10.689,10.689,0,0,0,4.72-.874,4.851,4.851,0,0,0,.988-.656,3.916,3.916,0,0,0,3.112-1.145,7.544,7.544,0,0,0,2.369-3.741c.516-1.993.122-4.37,1.346-5.961.323-.437.752-.787,1.075-1.224a3.444,3.444,0,0,0,.559-2.019.407.407,0,0,1,.052-.079,7.4,7.4,0,0,0,.525-2.01,11.49,11.49,0,0,1,.568-1.591,49.114,49.114,0,0,0,1.626-4.711,27.532,27.532,0,0,0,.752-3.234c.131-.874.21-1.748.28-2.622a16.287,16.287,0,0,1,.8-4.047A32.935,32.935,0,0,0,506.8,598.4v-.192a6.5,6.5,0,0,0,5.751-6.608,6.9,6.9,0,0,0-.6-2.823,8.741,8.741,0,0,0,1.171-4.405Zm-31.275,38c.1.341.21.673.323,1.005-.516-.5-1.014-1.014-1.53-1.521.2.07.411.131.6.21a3.257,3.257,0,0,1,.577.306Zm-2.474-1.678c-3.024-2.622-6.521-4.659-9.615-7.2,1.687.83,3.33,1.8,4.956,2.727q2.893,1.652,5.865,3.173a4.8,4.8,0,0,1-1.233,1.3Zm1.285-6.608.149-.149v1.04l-.813-.28a7.247,7.247,0,0,0,.638-.612Zm-26.6,7.08a25.024,25.024,0,0,0,3.217-4.589c1.2,2.089,3.147,3.6,4.8,5.358C459.406,621.593,456.731,621.3,454.056,621.165Z" transform="translate(-95.304 -212.688)" fill="url(#linear-gradient-2)"/>
    <path id="Path_903" data-name="Path 903" d="M415.35,438.25l1.906.385,6.494,9.606-2.858.385Z" transform="translate(-52.298 -55.226)" fill="#2f2e41"/>
    <path id="Path_904" data-name="Path 904" d="M414.49,645.446A37.4,37.4,0,0,0,416.4,650.4a47.185,47.185,0,0,0,6.337-1.809,19.979,19.979,0,0,0-1.32-1.748,6.52,6.52,0,0,0-1.792-1.372,4.931,4.931,0,0,0-2.176,0C416.465,645.446,415.478,645.464,414.49,645.446Z" transform="translate(-97.642 -223.456)" fill="#fbbebe"/>
    <path id="Path_905" data-name="Path 905" d="M417.277,647.611a3.951,3.951,0,0,1-2.168-2.465,7.937,7.937,0,0,0-1.652-2.946.944.944,0,0,0-.734.551c-.157.28-.253.594-.428.874-.35.5-.962.743-1.4,1.163s-.7,1.075-1.171,1.5a4.649,4.649,0,0,1-2.211.874,14.341,14.341,0,0,0-3.5,1.285,6.033,6.033,0,0,1-1.285.577,5.083,5.083,0,0,1-1.5,0l-3.444-.245a2.693,2.693,0,0,0-.874,0,1.669,1.669,0,0,0-1.093,1.748,2.622,2.622,0,0,0,1.093,1.853,7.257,7.257,0,0,0,1.958,1A57.6,57.6,0,0,0,408.1,656v.682a15.978,15.978,0,0,0,7.036,1.634,1.188,1.188,0,0,0,.524-.087,1.153,1.153,0,0,0,.437-.682,27.271,27.271,0,0,0,1.442-7.482,5.961,5.961,0,0,0-.149-1.932c-.192-.621.455-.358-.14-.6" transform="translate(-95.29 -223.059)" fill="#2f2e41"/>
    <path id="Path_906" data-name="Path 906" d="M486.165,633.148c-10.209.612-20.3-2.378-30.523-2.692a14.9,14.9,0,0,0-3.794.236,19.115,19.115,0,0,0-3.759,1.46c-5.48,2.552-11.153,4.668-16.817,6.774l-6.512,2.421a9.861,9.861,0,0,1-4.03.874c-.621,0-1.381-.131-1.748.385-1.058,1.573-.559,3.872.14,5.638.227.568.612,1.189,1.224,1.25a3.557,3.557,0,0,0,1.241-.315c1.18-.315,2.36.481,3.584.612,1.5.157,2.9-.7,4.327-1.224,2.36-.874,4.93-.874,7.412-1.259a33.209,33.209,0,0,0,11.608-4.816,13.549,13.549,0,0,1,4.327-2.045,11.975,11.975,0,0,1,5.446.621,124.986,124.986,0,0,1,12.491,4.248A58.2,58.2,0,0,0,477.3,647.7a23.6,23.6,0,0,0,14.624-.874c1.635-.647,3.409-1.748,3.5-3.549.061-1.005-.725-1.888-1.241-2.753-.332-.551-.673-1.1-1.031-1.635C491.4,636.355,489.268,632.964,486.165,633.148Z" transform="translate(-98.131 -221.576)" fill="#2f2e41"/>
    <path id="Path_907" data-name="Path 907" d="M486.165,633.148c-10.209.612-20.3-2.378-30.523-2.692a14.9,14.9,0,0,0-3.794.236,19.115,19.115,0,0,0-3.759,1.46c-5.48,2.552-11.153,4.668-16.817,6.774l-6.512,2.421a9.861,9.861,0,0,1-4.03.874c-.621,0-1.381-.131-1.748.385-1.058,1.573-.559,3.872.14,5.638.227.568.612,1.189,1.224,1.25a3.557,3.557,0,0,0,1.241-.315c1.18-.315,2.36.481,3.584.612,1.5.157,2.9-.7,4.327-1.224,2.36-.874,4.93-.874,7.412-1.259a33.209,33.209,0,0,0,11.608-4.816,13.549,13.549,0,0,1,4.327-2.045,11.975,11.975,0,0,1,5.446.621,124.986,124.986,0,0,1,12.491,4.248A58.2,58.2,0,0,0,477.3,647.7a23.6,23.6,0,0,0,14.624-.874c1.635-.647,3.409-1.748,3.5-3.549.061-1.005-.725-1.888-1.241-2.753-.332-.551-.673-1.1-1.031-1.635C491.4,636.355,489.268,632.964,486.165,633.148Z" transform="translate(-98.131 -221.576)" opacity="0.1"/>
    <path id="Path_908" data-name="Path 908" d="M436.92,645.388q2.4.813,4.834,1.5c.874-1.495,2.622-2.535,3-4.248a.4.4,0,0,0,0-.227.419.419,0,0,0-.184-.166,9.159,9.159,0,0,0-3.794-1.11c-1.049-.061-1.53,1.031-2,1.8C438.589,643.281,437.348,645.554,436.92,645.388Z" transform="translate(-100.466 -222.925)" fill="#fbbebe"/>
    <path id="Path_909" data-name="Path 909" d="M437.206,644.431a3.5,3.5,0,0,1-2.351-1.547c-.219-.393-.463-.927-.918-.874s-.6.524-.7.935a26.218,26.218,0,0,1-1.32,4.537,8.514,8.514,0,0,1-2.823,3.715c-.594.411-1.25.717-1.836,1.154a12.615,12.615,0,0,1-1.547,1.171,9.19,9.19,0,0,1-1.189.437,8.241,8.241,0,0,0-1.7.874,3.367,3.367,0,0,0-1.163,1.11,1.6,1.6,0,0,0-.087,1.547,1.652,1.652,0,0,0,1.128.769,4.757,4.757,0,0,0,1.407,0c1.862-.131,3.724-.3,5.585-.463a16.114,16.114,0,0,0,2.334-.323l1.215-.332a9.669,9.669,0,0,1,2.124-.315,1.652,1.652,0,0,1,.621.061c.428.14.734.568,1.18.656a1.975,1.975,0,0,0,.874-.114,19.3,19.3,0,0,1,4.134-.428,1.745,1.745,0,0,0,1.608-.7c.35-.682-.227-1.442-.463-2.177a6.993,6.993,0,0,1-.192-1.425,8.687,8.687,0,0,0-1.023-3.391c-.472-.874-1.119-1.836-.787-2.762a2.621,2.621,0,0,0,.315-.953C441.506,644.09,438.062,644.623,437.206,644.431Z" transform="translate(-98.514 -223.034)" fill="#2f2e41"/>
    <path id="Path_910" data-name="Path 910" d="M477.181,613.507a7.972,7.972,0,0,1-4.073-4.038c-.166-.385-.306-.8-.472-1.18a8.969,8.969,0,0,0-2.43-3.383,1.2,1.2,0,0,0-.874-.376.953.953,0,0,0-.655.708,2.7,2.7,0,0,0-.07,1.093,19.463,19.463,0,0,0,.437,2.552l.5,2.255a4.948,4.948,0,0,0,.306,1.005,3.5,3.5,0,0,0,.83.988c.455.42.918.822,1.381,1.224a4.746,4.746,0,0,0,.874.6,5.075,5.075,0,0,0,1.547.455,13.165,13.165,0,0,1,5.8,2.238s0-1.512,0-1.678a2.219,2.219,0,0,0-.437-1.215,7.751,7.751,0,0,0-2.666-1.25Z" transform="translate(-104.453 -218.316)" fill="#fbbebe"/>
    <path id="Path_911" data-name="Path 911" d="M477.181,613.507a7.972,7.972,0,0,1-4.073-4.038c-.166-.385-.306-.8-.472-1.18a8.969,8.969,0,0,0-2.43-3.383,1.2,1.2,0,0,0-.874-.376.953.953,0,0,0-.655.708,2.7,2.7,0,0,0-.07,1.093,19.463,19.463,0,0,0,.437,2.552l.5,2.255a4.948,4.948,0,0,0,.306,1.005,3.5,3.5,0,0,0,.83.988c.455.42.918.822,1.381,1.224a4.746,4.746,0,0,0,.874.6,5.075,5.075,0,0,0,1.547.455,13.165,13.165,0,0,1,5.8,2.238s0-1.512,0-1.678a2.219,2.219,0,0,0-.437-1.215,7.751,7.751,0,0,0-2.666-1.25Z" transform="translate(-104.453 -218.316)" opacity="0.1"/>
    <ellipse id="Ellipse_191" data-name="Ellipse 191" cx="2.482" cy="2.5" rx="2.482" ry="2.5" transform="translate(391.032 372.937)" fill="#2f2e41"/>
    <path id="Path_912" data-name="Path 912" d="M497.966,590.469a2.683,2.683,0,0,0-1.958.28,2.719,2.719,0,0,0-.673.918,13.331,13.331,0,0,0-1.294,3.042c-.219.874-.254,1.862-.533,2.762-.507,1.661-1.809,3.068-1.958,4.8-.07.778.061,1.687-.507,2.211a3.21,3.21,0,0,1-.446.323,3.358,3.358,0,0,0-.979,1.005,3.3,3.3,0,0,1-.691.953c-.507.376-1.346.341-1.591.874s.393,1.259.245,1.888-.7.752-1.093,1.1a3.82,3.82,0,0,0-.944,1.748,5.83,5.83,0,0,1-4.755-1.18,15.139,15.139,0,0,1,.743,5.437,2.22,2.22,0,0,1-.437,1.678,30.274,30.274,0,0,1,5.83,1.014,4.021,4.021,0,0,0,2.544,0,4.248,4.248,0,0,0,1.171-.927,7.467,7.467,0,0,0,2.4-3.706,21.774,21.774,0,0,0,.044-2.509,14.141,14.141,0,0,1,.638-3.051,36.3,36.3,0,0,0,1.11-6.276c.114-1.311,1.25-2.36,1.844-3.5,1.119-2.211,2.273-4.51,2.351-6.993C499.067,591.562,498.787,590.557,497.966,590.469Z" transform="translate(-105.99 -216.536)" fill="#2f2e41"/>
    <path id="Path_913" data-name="Path 913" d="M497.966,590.469a2.683,2.683,0,0,0-1.958.28,2.719,2.719,0,0,0-.673.918,13.331,13.331,0,0,0-1.294,3.042c-.219.874-.254,1.862-.533,2.762-.507,1.661-1.809,3.068-1.958,4.8-.07.778.061,1.687-.507,2.211a3.21,3.21,0,0,1-.446.323,3.358,3.358,0,0,0-.979,1.005,3.3,3.3,0,0,1-.691.953c-.507.376-1.346.341-1.591.874s.393,1.259.245,1.888-.7.752-1.093,1.1a3.82,3.82,0,0,0-.944,1.748,5.83,5.83,0,0,1-4.755-1.18,15.139,15.139,0,0,1,.743,5.437,2.22,2.22,0,0,1-.437,1.678,30.274,30.274,0,0,1,5.83,1.014,4.021,4.021,0,0,0,2.544,0,4.248,4.248,0,0,0,1.171-.927,7.467,7.467,0,0,0,2.4-3.706,21.774,21.774,0,0,0,.044-2.509,14.141,14.141,0,0,1,.638-3.051,36.3,36.3,0,0,0,1.11-6.276c.114-1.311,1.25-2.36,1.844-3.5,1.119-2.211,2.273-4.51,2.351-6.993C499.067,591.562,498.787,590.557,497.966,590.469Z" transform="translate(-105.99 -216.536)" opacity="0.1"/>
    <path id="Path_914" data-name="Path 914" d="M490.436,632.971c-2.124-1.014-3.68-2.893-5.4-4.51-3.278-3.086-7.29-5.245-10.743-8.155-2.29-1.914-4.37-4.143-6.844-5.751a17.1,17.1,0,0,0-7.334-2.561,1.95,1.95,0,0,0-.874,0,2.01,2.01,0,0,0-.83.656,26.417,26.417,0,0,0-2.963,4.065c-4.37,7.43-10.585,13.671-15.734,20.576a1.311,1.311,0,0,0-.253.49,1.215,1.215,0,0,0,.192.76l1.049,2.045c.586,1.154,1.53,2.491,2.788,2.264a3.05,3.05,0,0,0,1.46-.935l4.7-4.5,4.93-4.711c2.884-2.753,5.821-5.577,7.709-9.108,1.468,2.552,4.082,4.222,5.865,6.556.682.874,1.241,1.862,1.853,2.806.97,1.5,2.08,2.919,3.182,4.37l5.655,7.211a10.819,10.819,0,0,0,2.622,2.622A10.008,10.008,0,0,0,486,648.372a59.922,59.922,0,0,0,6.39.227,11.014,11.014,0,0,0,4.764-.874,4.318,4.318,0,0,0,2.579-3.837,5.629,5.629,0,0,0-.813-2.386A19.48,19.48,0,0,0,490.436,632.971Z" transform="translate(-100.785 -219.249)" fill="#2f2e41"/>
    <ellipse id="Ellipse_192" data-name="Ellipse 192" cx="1.914" cy="1.923" rx="1.914" ry="1.923" transform="translate(393.13 375.244)" fill="#e8e8f0"/>
    <path id="Path_915" data-name="Path 915" d="M503.092,591.665a3.68,3.68,0,0,1,.21,2.762,11.2,11.2,0,0,1-1.232,2.544,12.109,12.109,0,0,1-1.6,2.273,16.465,16.465,0,0,0,8.409-2.412c2.1-1.128,4.187-2.517,5.306-4.624a2.447,2.447,0,0,1-1.958-.367,7,7,0,0,1-1.495-1.39l-1.477-1.661a6.65,6.65,0,0,1-.874-1.2,3.3,3.3,0,0,1-.393-1.932,11.246,11.246,0,0,1-1.958,1.626c-1.058.691-2.22,1.189-3.287,1.871-.367.245-1.206.629-.988,1.119S502.8,591.141,503.092,591.665Z" transform="translate(-108.468 -215.94)" fill="#fbbebe"/>
    <path id="Path_916" data-name="Path 916" d="M503.092,591.665a3.68,3.68,0,0,1,.21,2.762,11.2,11.2,0,0,1-1.232,2.544,12.109,12.109,0,0,1-1.6,2.273,16.465,16.465,0,0,0,8.409-2.412c2.1-1.128,4.187-2.517,5.306-4.624a2.447,2.447,0,0,1-1.958-.367,7,7,0,0,1-1.495-1.39l-1.477-1.661a6.65,6.65,0,0,1-.874-1.2,3.3,3.3,0,0,1-.393-1.932,11.246,11.246,0,0,1-1.958,1.626c-1.058.691-2.22,1.189-3.287,1.871-.367.245-1.206.629-.988,1.119S502.8,591.141,503.092,591.665Z" transform="translate(-108.468 -215.94)" opacity="0.1"/>
    <path id="Path_917" data-name="Path 917" d="M501.834,592.815a2.491,2.491,0,0,0,0,2.884c.087.1.4.76.533.769a.481.481,0,0,0,.332-.175,21.935,21.935,0,0,0,1.871-2.229,4.16,4.16,0,0,1,2.377-1.556,5.14,5.14,0,0,1,3.278,1.023,3.111,3.111,0,0,1,1.128.874,3.051,3.051,0,0,1,.367,1.25,60.216,60.216,0,0,1,.332,7.946,31.312,31.312,0,0,1-.376,5.725c-.192.97-.472,1.923-.6,2.911a18.575,18.575,0,0,0-.122,2.622v3.654a9.615,9.615,0,0,0,.14,2c.175.8.551,1.538.8,2.316a15.154,15.154,0,0,1,.533,2.736l.5,3.776a4.774,4.774,0,0,1-.446,3.5c-.323.428-.752.778-1.084,1.206-1.232,1.608-.874,3.907-1.355,5.874a7.325,7.325,0,0,1-2.4,3.671,3.96,3.96,0,0,1-3.155,1.128c-1.538-.288-2.456-1.888-2.876-3.4s-.568-3.155-1.477-4.432a11.754,11.754,0,0,0-2.919-2.439,5.043,5.043,0,0,1-2.281-2.963c-.1-.551,0-1.119-.1-1.678A3.96,3.96,0,0,0,492.4,626.6c-.787-.306-1.748-.419-2.2-1.136a5.305,5.305,0,0,0,2.3-3.086,15.847,15.847,0,0,0,.559-3.9l.262-4.37a14.6,14.6,0,0,1,1.04-5.673c.385-.787.874-1.53,1.267-2.308a25.052,25.052,0,0,0,1.355-3.383c.629-1.8,1.259-3.6,1.818-5.419a10.213,10.213,0,0,1,1-2.526C500.269,593.978,500.951,592.99,501.834,592.815Z" transform="translate(-107.175 -216.802)" fill="#e8e8f0"/>
    <path id="Path_918" data-name="Path 918" d="M492.342,621.231H493.5l.245-1.748a3.643,3.643,0,0,1,.245-1.023,6.117,6.117,0,0,1,.673-.979c1.136-1.617,1.058-3.759,1.337-5.725a29.133,29.133,0,0,1,2.552-7.482l2.255-5.026a6.936,6.936,0,0,0,.49-1.285,7.7,7.7,0,0,0,.14-1.486c0-.778.245-3.61.271-4.37,0-.289-.638-.131-.769-.385-.28-.559-.664.953-1.2,1.285a2.937,2.937,0,0,0-1.04,1.521c-.489,1.259-.787,2.622-1.241,3.872a7.91,7.91,0,0,1-2.107,3.426c-.463.4-1,.725-1.434,1.163-1.4,1.381-1.538,3.575-1.582,5.55C492.307,609.746,492.08,621.231,492.342,621.231Z" transform="translate(-107.429 -216.688)" fill="#2f2e41"/>
    <path id="Path_919" data-name="Path 919" d="M509.973,590.453a3.968,3.968,0,0,0-2.072,2.841,14.372,14.372,0,0,1-1.049,3.5c-1.416,2.465-5.026,3.182-6.031,5.848a10.752,10.752,0,0,0-.4,2.753c-.175,1.914-.8,3.759-1,5.664a25.238,25.238,0,0,0,.1,4.449l1.267,15.052a20.1,20.1,0,0,1-.376,6.626,6.381,6.381,0,0,0,3.794-.629c1.18-.542,2.264-1.285,3.409-1.914,1.958-1.084,4.126-1.844,5.848-3.287a3.576,3.576,0,0,0,.787-.874,7.558,7.558,0,0,0,.524-1.975,10.673,10.673,0,0,1,.568-1.556,45.822,45.822,0,0,0,1.643-4.65,26.7,26.7,0,0,0,.752-3.182c.14-.874.219-1.748.288-2.622a15.381,15.381,0,0,1,.8-3.977,32.036,32.036,0,0,0,1.844-9.545,4.99,4.99,0,0,0-.1-1.4,7.482,7.482,0,0,0-.769-1.6c-.524-.988-.874-2.072-1.329-3.077a15.131,15.131,0,0,0-5.166-5.428C512.306,590.776,511.118,590.042,509.973,590.453Z" transform="translate(-108.329 -216.528)" fill="#2f2e41"/>
    <path id="Path_920" data-name="Path 920" d="M479.319,617.839a9.115,9.115,0,0,1-2.4-1.827c-.315-.367-.577-.778-.874-1.145a5.953,5.953,0,0,0-3.024-1.748,14.775,14.775,0,0,0-3.5-.341,6.344,6.344,0,0,0-2.334.28,2.378,2.378,0,0,0-1.547,1.661,2.753,2.753,0,0,0,1.18,2.447,5.56,5.56,0,0,0,2.351,1.136,18.8,18.8,0,0,0,2.124.253c4.178.437,7.91,2.71,11.573,4.781q4.825,2.745,9.842,5.1a20.451,20.451,0,0,0,.166-3.016c0-.752-.061-1.906-.769-2.351a15.432,15.432,0,0,0-3.129-.935,49.242,49.242,0,0,1-6.3-2.552A31.353,31.353,0,0,1,479.319,617.839Z" transform="translate(-104.081 -219.353)" fill="#fbbebe"/>
    <ellipse id="Ellipse_193" data-name="Ellipse 193" cx="7.447" cy="7.491" rx="7.447" ry="7.491" transform="translate(386.067 359.887)" fill="#fbbebe"/>
    <path id="Path_921" data-name="Path 921" d="M511.285,600.043a11.939,11.939,0,0,0-1.442,2.7c-.874,1.888-2.36,3.5-3.086,5.5s-.734,4.571-2.229,6.206a2.176,2.176,0,0,0-.656.944,4.509,4.509,0,0,1-.07.682c-.219.594-1.189.621-1.372,1.232-.052.175,0,.367-.087.542-.149.393-.673.455-1.014.69-.725.49-.577,1.626-1.093,2.334a1.967,1.967,0,0,1-1.862.656,6.555,6.555,0,0,1-1.932-.726,1.864,1.864,0,0,0-.7-.218,1.442,1.442,0,0,0-.8.28,4.956,4.956,0,0,0-2.01,4.239,13.845,13.845,0,0,0,1.154,4.746,1.905,1.905,0,0,0,.376.708,1.67,1.67,0,0,0,1.853.14,8.741,8.741,0,0,1,1.809-.813c1.154-.21,2.281.586,3.453.516a4.8,4.8,0,0,0,2.325-1.023,12.85,12.85,0,0,0,3.129-2.622c.507-.673.874-1.434,1.329-2.15a27.581,27.581,0,0,1,1.879-2.509l4.3-5.245a12.082,12.082,0,0,0,1.154-1.591,11.213,11.213,0,0,0,.874-2.4,18.411,18.411,0,0,0,.874-4.274,16.428,16.428,0,0,0-.315-3.584,12.668,12.668,0,0,0-.874-3.418C515.314,599.606,513.042,598,511.285,600.043Z" transform="translate(-107.518 -217.631)" fill="#2f2e41"/>
    <path id="Path_922" data-name="Path 922" d="M525.649,585.5a8.391,8.391,0,0,0-3.444-6.818,9.973,9.973,0,0,0-8.47-9.711,9.676,9.676,0,0,0-19.064.516c-3.094-.7-5.926.21-6.442,2.115s1.67,4.37,4.93,5.245a9.187,9.187,0,0,0,3.164.315,9.685,9.685,0,0,0,6.661,4.152,9.938,9.938,0,0,0,7.272,7.5,8.347,8.347,0,0,0,2.246,3.1v.725a6.3,6.3,0,1,0,12.6,0,6.73,6.73,0,0,0-.6-2.788A8.425,8.425,0,0,0,525.649,585.5Z" transform="translate(-106.917 -212.859)" fill="#f86d70"/>
    <path id="Path_923" data-name="Path 923" d="M490.326,572c.516-1.906,3.348-2.815,6.442-2.115a9.842,9.842,0,0,1,9.615-8.286h.638a9.473,9.473,0,0,0-2.745-.411,9.842,9.842,0,0,0-9.615,8.286c-3.094-.7-5.926.21-6.442,2.115s1.669,4.37,4.93,5.245a9.616,9.616,0,0,0,1.871.323C491.9,576.224,489.81,573.952,490.326,572Z" transform="translate(-106.916 -212.859)" opacity="0.1"/>
    <path id="Path_924" data-name="Path 924" d="M515.77,595.354a6.545,6.545,0,0,1,0-.717,8.163,8.163,0,0,1-2.246-3.1,9.912,9.912,0,0,1-7.272-7.508,9.659,9.659,0,0,1-6.669-4.143,8.387,8.387,0,0,1-1.862-.052,9.711,9.711,0,0,0,6.425,3.82,9.938,9.938,0,0,0,7.272,7.5,8.347,8.347,0,0,0,2.246,3.1v.726a6.416,6.416,0,0,0,6.267,6.521A6.521,6.521,0,0,1,515.77,595.354Z" transform="translate(-108.122 -215.206)" opacity="0.1"/>
    <ellipse id="Ellipse_194" data-name="Ellipse 194" cx="1.145" cy="1.53" rx="1.145" ry="1.53" transform="translate(394.169 368.383) rotate(-37.22)" fill="#fbbebe"/>
  </g>
</svg>
