<svg xmlns="http://www.w3.org/2000/svg" width="630.202" height="665.964" viewBox="0 0 630.202 665.964">
  <g id="Group_38" data-name="Group 38" transform="translate(40.094 0.006)">
    <circle id="Ellipse_235" data-name="Ellipse 235" cx="276.571" cy="276.571" r="276.571" transform="translate(36.967 93.536)" fill="#f2f2f2"/>
    <path id="Path_1032" data-name="Path 1032" d="M405.266,436.711a22.329,22.329,0,0,0,2.953-11.319c0-10.23-6.335-18.523-14.149-18.523s-14.149,8.293-14.149,18.523a22.33,22.33,0,0,0,2.953,11.319,23.17,23.17,0,0,0,0,22.639,23.17,23.17,0,0,0,0,22.639,23.17,23.17,0,0,0,0,22.639,22.329,22.329,0,0,0-2.953,11.319c0,10.23,6.335,18.523,14.149,18.523s14.149-8.293,14.149-18.523a22.329,22.329,0,0,0-2.953-11.319,23.17,23.17,0,0,0,0-22.639,23.17,23.17,0,0,0,0-22.639A23.17,23.17,0,0,0,405.266,436.711Z" transform="translate(-253.232 -115.512)" fill="#3f3d56"/>
    <ellipse id="Ellipse_236" data-name="Ellipse 236" cx="14.149" cy="18.523" rx="14.149" ry="18.523" transform="translate(126.688 268.719)" fill="#3f3d56"/>
    <ellipse id="Ellipse_237" data-name="Ellipse 237" cx="14.149" cy="18.523" rx="14.149" ry="18.523" transform="translate(126.688 246.08)" fill="#3f3d56"/>
    <path id="Path_1033" data-name="Path 1033" d="M428.235,123.6a67.926,67.926,0,0,0,5.269-7.757l-37.178-6.106,40.209.3a67.894,67.894,0,0,0,1.294-53.7L383.883,84.321l49.751-36.57A67.78,67.78,0,1,0,321.692,123.6a67.813,67.813,0,0,0-7.73,12.36l48.26,25.073-51.459-17.27a67.815,67.815,0,0,0,10.928,63.646,67.775,67.775,0,1,0,106.542,0,67.784,67.784,0,0,0,0-83.808Z" transform="translate(-234.429 -13.925)" fill="#6c63ff"/>
    <path id="Path_1034" data-name="Path 1034" d="M307.189,218.011a67.484,67.484,0,0,0,14.5,41.9,67.775,67.775,0,1,0,106.542,0C437.319,248.383,307.189,210.4,307.189,218.011Z" transform="translate(-234.429 -66.429)" opacity="0.1"/>
    <path id="Path_1035" data-name="Path 1035" d="M718.256,694.874c-17.539,62.5-152.868,120.461-296.778,80.075S179.572,611.121,197.111,548.624s143.97-40.382,287.881,0S735.8,632.378,718.256,694.874Z" transform="translate(-205.447 -142.072)" fill="#3f3d56"/>
    <path id="Path_1036" data-name="Path 1036" d="M718.256,694.874c-17.539,62.5-152.868,120.461-296.778,80.075S179.572,611.121,197.111,548.624s143.97-40.382,287.881,0S735.8,632.378,718.256,694.874Z" transform="translate(-205.447 -142.072)" opacity="0.1"/>
    <ellipse id="Ellipse_238" data-name="Ellipse 238" cx="117.532" cy="270.639" rx="117.532" ry="270.639" transform="translate(-40.094 519.711) rotate(-74.324)" fill="#3f3d56"/>
    <ellipse id="Ellipse_239" data-name="Ellipse 239" cx="79.338" cy="22.986" rx="79.338" ry="22.986" transform="translate(128.91 460.567)" opacity="0.1"/>
    <path id="Path_1037" data-name="Path 1037" d="M563.109,485.984,462.763,586.331l-42.176-42.176a14.417,14.417,0,0,0-20.389,0l-1.515-2.266c-5.63,5.63-4.115,17.025,1.515,22.656l54.723,54.723a11,11,0,0,0,15.553,0l113.014-112.9c5.634-5.628,7.678-15.948,2.047-21.58h0C579.906,479.166,568.739,480.356,563.109,485.984Z" transform="translate(-257.168 -134.707)" fill="#57b894"/>
    <path id="Path_1038" data-name="Path 1038" d="M563.109,485.984,462.763,586.331l-42.176-42.176a14.417,14.417,0,0,0-20.389,0l-1.515-2.266c-5.63,5.63-4.115,17.025,1.515,22.656l54.723,54.723a11,11,0,0,0,15.553,0l113.014-112.9c5.634-5.628,7.678-15.948,2.047-21.58h0C579.906,479.166,568.739,480.356,563.109,485.984Z" transform="translate(-257.168 -134.707)" opacity="0.1"/>
    <path id="Path_1039" data-name="Path 1039" d="M563.4,480.208,463.054,580.554l-42.176-42.176a14.417,14.417,0,0,0-20.389,0h0a14.417,14.417,0,0,0,0,20.389l54.723,54.723a11,11,0,0,0,15.553,0L583.779,500.6a14.414,14.414,0,0,0,.005-20.39h0A14.414,14.414,0,0,0,563.4,480.208Z" transform="translate(-257.458 -133.38)" fill="#57b894"/>
    <path id="Path_1040" data-name="Path 1040" d="M675.064,712.05s-8.974,2.692-13.461,8.077c0,0-8.077,3.59-13.012,2.692s-13.91,8.077-6.731,10.769,51.152,9.871,52.049,7.628.9-25.127.9-25.127Z" transform="translate(-320.257 -194.408)" fill="#575a89"/>
    <path id="Path_1041" data-name="Path 1041" d="M771.392,706.854s-8.382,4.185-11.884,10.257c0,0-7.345,4.916-12.361,4.875s-12.326,10.334-4.792,11.76,52.086.989,52.587-1.374-3.408-24.911-3.408-24.911Z" transform="translate(-346.093 -193.065)" fill="#575a89"/>
    <circle id="Ellipse_240" data-name="Ellipse 240" cx="20.192" cy="20.192" r="20.192" transform="translate(349.197 169.227)" fill="#ffb9b9"/>
    <path id="Path_1042" data-name="Path 1042" d="M722.033,273.926s2.243,15.256,6.282,17.051a29.812,29.812,0,0,1,7.628,5.384l-11.217,5.384L702.739,300.4s1.795-9.871-1.346-14.807S722.033,273.926,722.033,273.926Z" transform="translate(-336.267 -81.143)" fill="#ffb9b9"/>
    <path id="Path_1043" data-name="Path 1043" d="M779.35,371.354s10.32,26.473,0,52.049-14.807,29.614-14.807,29.614L761.4,419.365l3.612-3.277s2.187-10.21.409-16.255.915-24.89.915-24.89Z" transform="translate(-351.854 -106.33)" fill="#ffb9b9"/>
    <path id="Path_1044" data-name="Path 1044" d="M677.422,443.024S664.409,472.639,665.755,487s11.666,74.933,11.666,74.933S676.076,640,680.114,640s23.332,7.179,23.332,2.243,4.038-123.393,4.038-123.393,22.884,52.049,25.127,56.088,16.6,67.3,21.538,67.3,20.192-4.487,18.845-7.628-16.6-73.138-25.127-91.086-6.731-85.7-6.731-85.7l-14.359-31.409Z" transform="translate(-327.102 -120.566)" fill="#2f2e41"/>
    <path id="Path_1045" data-name="Path 1045" d="M693.668,249.652s-12.564-.9-13.461-4.038-2.692-5.833-1.795-5.833,1.346-2.243,1.346-2.243.9-.449,1.346,0,.9-3.141.9-3.141.449-1.346.9-.449.449.449.9-.9,2.693-2.243,2.693-2.243,8.525.449,9.871-1.346,16.6-.449,19.743,1.795,17.051,10.32,14.807,17.051-10.32,21.538-10.32,23.781-3.141,1.795-4.038-.449-8.077-4.936-8.077-6.282-4.038-13.91-6.282-13.012-4.936,8.077-5.833,6.73S693.668,249.652,693.668,249.652Z" transform="translate(-330.336 -69.432)" fill="#3f3d56"/>
    <path id="Path_1046" data-name="Path 1046" d="M754.562,328.31s-18.4-26.922-23.781-28.268-17.5-4.936-17.5-4.936-12.115,1.795-15.7,3.59-17.051,4.936-17.5,10.32,3.59,56.985,1.346,61.921-9.871,52.049-6.282,51.152.9-12.564,16.6-13.012,24.23-9.871,30.063,1.346,22.435,19.743,22.435,19.743a108.6,108.6,0,0,1,1.795-10.769c1.346-6.282-3.59-21.538-3.59-21.538s.449-35.447,2.244-39.486S754.562,328.31,754.562,328.31Z" transform="translate(-329.31 -86.618)" fill="#575a89"/>
    <path id="Path_1047" data-name="Path 1047" d="M770.845,338.677l6.731.9s-.449,8.974,1.346,11.666,4.936,16.6,3.141,17.051-17.948,3.141-17.948,3.141l-.9-20.64Z" transform="translate(-352.324 -97.882)" fill="#575a89"/>
    <path id="Path_1048" data-name="Path 1048" d="M664.271,360.462s-4.487,29.166-6.731,32.755-13.461,53.844-13.461,53.844-18.446,25.652-9.472,25.2,18.446-23.409,18.446-23.409,27.819-50.7,27.819-56.087,6.73-32.306,6.73-32.306Z" transform="translate(-318.439 -103.514)" fill="#ffb9b9"/>
    <path id="Path_1049" data-name="Path 1049" d="M687.278,307.209,679.2,310.35s-10.32,36.793-8.077,39.934,29.166-1.346,29.614-2.692S695.8,307.209,687.278,307.209Z" transform="translate(-328.433 -89.747)" fill="#575a89"/>
    <path id="Path_1050" data-name="Path 1050" d="M206.474,434.718c0,31.268,19.616,56.57,43.858,56.57" transform="translate(-208.393 -122.711)" fill="#3f3d56"/>
    <path id="Path_1051" data-name="Path 1051" d="M265.624,491.067c0-31.62,21.89-57.206,48.943-57.206" transform="translate(-223.684 -122.49)" fill="#6c63ff"/>
    <path id="Path_1052" data-name="Path 1052" d="M227.9,438.541c0,29.7,12.509,53.736,27.967,53.736" transform="translate(-213.933 -123.699)" fill="#6c63ff"/>
    <path id="Path_1053" data-name="Path 1053" d="M265.624,485.526c0-40.4,25.3-73.1,56.57-73.1" transform="translate(-223.684 -116.949)" fill="#3f3d56"/>
    <path id="Path_1054" data-name="Path 1054" d="M253.18,510.378s6.22-.192,8.094-1.526,9.568-2.929,10.033-.788,9.347,10.647,2.325,10.7-16.316-1.094-18.187-2.233S253.18,510.378,253.18,510.378Z" transform="translate(-220.467 -141.402)" fill="#a8a8a8"/>
    <path id="Path_1055" data-name="Path 1055" d="M273.758,519.191c-7.022.057-16.316-1.094-18.187-2.233-1.425-.868-1.993-3.982-2.182-5.419l-.208.008s.394,5.016,2.265,6.156,11.165,2.29,18.187,2.233c2.027-.016,2.727-.738,2.689-1.806C276.039,518.776,275.266,519.179,273.758,519.191Z" transform="translate(-220.467 -142.571)" opacity="0.2"/>
  </g>
</svg>
