<svg xmlns="http://www.w3.org/2000/svg" xmlns:xlink="http://www.w3.org/1999/xlink" width="536" height="472.007" viewBox="0 0 536 472.007">
  <defs>
    <linearGradient id="linear-gradient" x1="0.5" y1="1" x2="0.5" y2="0.001" gradientUnits="objectBoundingBox">
      <stop offset="0" stop-color="gray" stop-opacity="0.251"/>
      <stop offset="0.54" stop-color="gray" stop-opacity="0.122"/>
      <stop offset="1" stop-color="gray" stop-opacity="0.102"/>
    </linearGradient>
    <linearGradient id="linear-gradient-2" x1="0.5" y1="1" x2="0.5" y2="0" xlink:href="#linear-gradient"/>
  </defs>
  <g id="Group_36" data-name="Group 36" transform="translate(0 -0.001)">
    <ellipse id="Ellipse_220" data-name="Ellipse 220" cx="68.54" cy="11.79" rx="68.54" ry="11.79" transform="translate(365.958 423.111)" fill="#6c63ff" opacity="0.1"/>
    <ellipse id="Ellipse_221" data-name="Ellipse 221" cx="101.472" cy="7.178" rx="101.472" ry="7.178" transform="translate(125.503 416.193)" fill="#6c63ff" opacity="0.1"/>
    <path id="Path_925" data-name="Path 925" d="M301.351,59.116c18.173-16.2,46.7-19.493,72.645-18.2,81.547,4.036,155.155,43.42,218.828,87.947,23.062,16.143,45.743,33.492,60.7,55.694,30.459,45.19,21.424,107.814-20.929,145.019-14.414,12.684-31.877,22.376-49.814,30.984-31.883,15.307-66.3,27.594-102.475,31.087-25.806,2.5-51.935.467-77.592-3.01-71.676-9.721-142.032-31.22-200.99-68-25.864-16.143-50.246-36.184-60.906-62.267s-3.834-59.165,22.572-74.611c10.954-6.388,23.984-9.271,36.772-11.981,18.818-3.99,37.943-7.922,54.928-16.028,17.55-8.383,38.306-24.578,34.847-43.108C286.193,92.746,283.2,75.288,301.351,59.116Z" transform="translate(-135.518 -40.66)" fill="#6c63ff" opacity="0.1"/>
    <line id="Line_11" data-name="Line 11" x1="4.341" transform="translate(90.212 101.998)" fill="#6c63ff"/>
    <g id="Group_33" data-name="Group 33" transform="translate(137.824 67.33)" opacity="0.1">
      <path id="Path_926" data-name="Path 926" d="M472.224,616.076c2.214,3.765,5.685,6.192,9.594,6.192,6.676,0,12.107-7.074,12.107-15.809s-5.448-15.751-12.107-15.751a10.672,10.672,0,0,0-8.158,4.145,15.623,15.623,0,0,0-2.058,3.223l-.115.686a5.325,5.325,0,0,1-6.088.179V547.732h-50a4.036,4.036,0,0,1-.605-3.771,4.82,4.82,0,0,1,2.254-2.75c3.765-2.214,6.2-5.685,6.2-9.594,0-6.676-7.08-12.107-15.809-12.107s-15.809,5.414-15.809,12.107a10.69,10.69,0,0,0,4.151,8.164A15.708,15.708,0,0,0,399,541.834l.069.115a4.918,4.918,0,0,1,.963,5.765H377.48v94.831a22.485,22.485,0,0,0,22.485,22.485h65.45V614.709a3.984,3.984,0,0,1,4.076-.865A4.774,4.774,0,0,1,472.224,616.076Z" transform="translate(-375.595 -310.76)"/>
      <path id="Path_927" data-name="Path 927" d="M386.692,392.6h7.829a15.8,15.8,0,0,1-6.175-12.4c0-8.988,7.841-16.27,17.51-16.27s17.516,7.282,17.516,16.27a15.8,15.8,0,0,1-6.175,12.4h46.931V342.077a4.036,4.036,0,0,1,4.076-.865,4.8,4.8,0,0,1,2.756,2.254c2.208,3.765,5.679,6.192,9.594,6.192,6.676,0,12.107-7.074,12.107-15.8s-5.408-15.809-12.107-15.809a10.693,10.693,0,0,0-8.164,4.145,15.932,15.932,0,0,0-2.058,3.223l-.11.069a4.924,4.924,0,0,1-6.094.813V275.1H415.992a4.036,4.036,0,0,1-.605-3.771,4.791,4.791,0,0,1,2.254-2.75c3.765-2.208,6.192-5.685,6.192-9.594,0-6.676-7.074-12.108-15.8-12.108s-15.809,5.414-15.809,12.108a10.692,10.692,0,0,0,4.145,8.164,15.932,15.932,0,0,0,3.223,2.058l.069.11a4.918,4.918,0,0,1,.963,5.765H386.692v-2.594h10.286a15.8,15.8,0,0,1-6.169-12.378c0-8.988,7.841-16.276,17.516-16.276s17.51,7.288,17.51,16.276a15.8,15.8,0,0,1-6.2,12.4h44.452v-51.14a4,4,0,0,1,4.082-.865,4.808,4.808,0,0,1,2.75,2.254c2.208,3.765,5.685,6.192,9.594,6.192,6.676,0,12.108-7.074,12.108-15.809s-5.408-15.8-12.108-15.8a10.674,10.674,0,0,0-8.164,4.145,15.62,15.62,0,0,0-2.058,3.223l-.11.686a5.333,5.333,0,0,1-6.094.179v-47.7H398.667a22.485,22.485,0,0,0-22.485,22.485V204.7h-.34a1.32,1.32,0,0,0-1.32,1.32v11.531a1.326,1.326,0,0,0,1.32,1.32h.34v11.773h-.444a1.326,1.326,0,0,0-1.326,1.32V253.98a1.326,1.326,0,0,0,1.326,1.32h.444v8.648h-.363a1.32,1.32,0,0,0-1.32,1.32v7.092h-.288V287.3a1.314,1.314,0,0,0,1.32,1.32h.392V392.6Z" transform="translate(-374.21 -157.622)"/>
      <path id="Path_928" data-name="Path 928" d="M627.2,239.344a1.326,1.326,0,0,0-1.32-1.326h-.8v-1.447h-.432V179.061a21.615,21.615,0,0,0-21.62-21.621H538.17v43.818a16,16,0,0,1,12.684-6.371c9.058,0,16.4,7.847,16.4,17.521s-7.345,17.521-16.4,17.521a15.988,15.988,0,0,1-12.684-6.371v48.62h52.466a15.838,15.838,0,0,1-6.163-12.413c0-9,7.824-16.293,17.481-16.293A18.132,18.132,0,0,1,613.7,247.7a15.405,15.405,0,0,1,0,24.071v.386h11.387v-.04H627.2Z" transform="translate(-443.639 -157.44)"/>
      <path id="Path_929" data-name="Path 929" d="M609.326,543.237v-5.766h0a10.965,10.965,0,0,0,.651-1.078,9.605,9.605,0,0,0,1.188-4.584,9.439,9.439,0,0,0-.542-3.136,10.376,10.376,0,0,0-1.3-2.525h0c-2.658-3.823-7.91-6.429-13.964-6.429-8.735,0-15.809,5.414-15.809,12.107a10.693,10.693,0,0,0,4.145,8.164,15.928,15.928,0,0,0,3.223,2.058l.069.109a4.924,4.924,0,0,1,.963,5.766H537.09V595.2a15.8,15.8,0,0,1,12.551-6.342c8.988,0,16.27,7.841,16.27,17.51s-7.282,17.516-16.27,17.516a15.8,15.8,0,0,1-12.551-6.342V655.7h58.364a13.872,13.872,0,0,0,13.872-13.837V547.942h0V641.8a13.872,13.872,0,0,1-13.872,13.872H537.09V664.9h60.537a22.485,22.485,0,0,0,22.485-22.485V547.942h0v-2.479H609.326Z" transform="translate(-443.182 -310.848)"/>
    </g>
    <path id="Path_930" data-name="Path 930" d="M403.139,672.5a13.872,13.872,0,0,1-13.872-13.872V564.46H378.48v94.813a22.485,22.485,0,0,0,22.485,22.485h65.45v-9.225Z" transform="translate(-238.194 -262.464)" fill="#3a3768"/>
    <path id="Path_931" data-name="Path 931" d="M478.374,609.845a4.774,4.774,0,0,1,2.75,2.254c2.214,3.765,5.685,6.192,9.594,6.192,6.676,0,12.107-7.074,12.107-15.809s-5.425-15.774-12.084-15.774a10.672,10.672,0,0,0-8.158,4.145,15.621,15.621,0,0,0-2.058,3.223l-.115.686a5.326,5.326,0,0,1-6.088.179V543.732h-50a4.036,4.036,0,0,1-.605-3.771,4.82,4.82,0,0,1,2.254-2.75c3.765-2.214,6.2-5.685,6.2-9.594,0-6.676-7.08-12.107-15.809-12.107s-15.809,5.414-15.809,12.107a10.69,10.69,0,0,0,4.151,8.164,15.709,15.709,0,0,0,3.217,2.052l.069.115a4.918,4.918,0,0,1,.963,5.766H397.19v94.191a13.872,13.872,0,0,0,13.872,13.872h63.276V610.709A3.984,3.984,0,0,1,478.374,609.845Z" transform="translate(-246.117 -241.736)" fill="#6c63ff"/>
    <rect id="Rectangle_117" data-name="Rectangle 117" width="1.712" height="2.79" transform="translate(138.383 179.716)" fill="#3a3768"/>
    <rect id="Rectangle_118" data-name="Rectangle 118" width="9.357" height="2.79" transform="translate(141.525 179.716)" fill="#3a3768"/>
    <rect id="Rectangle_119" data-name="Rectangle 119" width="1.43" height="2.79" transform="translate(140.095 179.716)" fill="#3a3768"/>
    <path id="Path_932" data-name="Path 932" d="M537.09,566.33" transform="translate(-305.358 -263.256)" fill="#6c63ff"/>
    <path id="Path_933" data-name="Path 933" d="M376.488,370.68h.392V357.2h-1.73v12.159a1.315,1.315,0,0,0,1.338,1.32Z" transform="translate(-236.784 -174.699)" fill="#3a3768"/>
    <path id="Path_934" data-name="Path 934" d="M388.937,357.2H379.58v12.159a1.32,1.32,0,0,1-1.326,1.32h-.1V474.7h10.787Z" transform="translate(-238.055 -174.699)" fill="#3a3768"/>
    <path id="Path_935" data-name="Path 935" d="M378.15,370.68h.1a1.32,1.32,0,0,0,1.326-1.32V357.2h-1.43Z" transform="translate(-238.055 -174.699)" fill="#3a3768"/>
    <path id="Path_936" data-name="Path 936" d="M398.515,441.548c0-8.988,7.841-16.27,17.51-16.27s17.516,7.282,17.516,16.27a15.8,15.8,0,0,1-6.175,12.425H474.3V403.449a4.036,4.036,0,0,1,4.076-.865,4.8,4.8,0,0,1,2.756,2.254c2.208,3.765,5.679,6.192,9.594,6.192,6.676,0,12.108-7.074,12.108-15.8s-5.408-15.809-12.108-15.809a10.692,10.692,0,0,0-8.164,4.145,15.927,15.927,0,0,0-2.058,3.223l-.11.069a4.924,4.924,0,0,1-6.094.813v-51.2H426.16a4.036,4.036,0,0,1-.605-3.771,4.791,4.791,0,0,1,2.254-2.75c3.765-2.208,6.192-5.685,6.192-9.594,0-6.676-7.074-12.107-15.8-12.107s-15.809,5.414-15.809,12.107a10.693,10.693,0,0,0,4.145,8.164,15.928,15.928,0,0,0,3.223,2.058l.069.11a4.918,4.918,0,0,1,.963,5.766H396.86V453.972h7.829A15.8,15.8,0,0,1,398.515,441.548Z" transform="translate(-245.978 -153.971)" fill="#6c63ff"/>
    <path id="Path_937" data-name="Path 937" d="M380.08,338.77a1.32,1.32,0,0,0-1.326-1.32h-.1v8.6h1.43Z" transform="translate(-238.266 -166.336)" fill="#3a3768"/>
    <path id="Path_938" data-name="Path 938" d="M377.379,235.07h-.288a1.32,1.32,0,0,0-1.32,1.32v11.531a1.326,1.326,0,0,0,1.32,1.32h.34V235.076Z" transform="translate(-237.047 -122.983)" fill="#3a3768"/>
    <path id="Path_939" data-name="Path 939" d="M376.906,280.05a1.326,1.326,0,0,0-1.326,1.32v22.018a1.326,1.326,0,0,0,1.326,1.32h.444V280.05Z" transform="translate(-236.967 -142.03)" fill="#3a3768"/>
    <path id="Path_940" data-name="Path 940" d="M377.405,337.78h-.375a1.32,1.32,0,0,0-1.32,1.32v7.282h1.73Z" transform="translate(-237.022 -166.476)" fill="#3a3768"/>
    <path id="Path_941" data-name="Path 941" d="M378.642,176.35v24.342a1.314,1.314,0,0,1,1.268,1.315v11.531a1.32,1.32,0,0,1-1.268,1.315v11.773h.2a1.32,1.32,0,0,1,1.32,1.32v22.018a1.32,1.32,0,0,1-1.32,1.32h-.213v8.648h.1a1.326,1.326,0,0,1,1.326,1.32V268.5h9.357v-91.5a13.872,13.872,0,0,1,13.866-13.872h18.8v2.41a11.421,11.421,0,0,0,11.421,11.421h33.077v-7.541H451.356a2.243,2.243,0,0,1-2.231-2.22v-.484a2.237,2.237,0,0,1,2.231-2.231h15.2V153.87H401.115a22.485,22.485,0,0,0-22.474,22.48Z" transform="translate(-238.258 -88.599)" fill="#3a3768"/>
    <path id="Path_942" data-name="Path 942" d="M379.918,247.915V236.385a1.314,1.314,0,0,0-1.268-1.315v14.154a1.32,1.32,0,0,0,1.268-1.309Z" transform="translate(-238.266 -122.983)" fill="#3a3768"/>
    <path id="Path_943" data-name="Path 943" d="M380.184,303.389V281.37a1.32,1.32,0,0,0-1.32-1.32h-.213v24.659h.2a1.32,1.32,0,0,0,1.332-1.32Z" transform="translate(-238.266 -142.03)" fill="#3a3768"/>
    <path id="Path_944" data-name="Path 944" d="M401.188,262.9c0-8.988,7.841-16.276,17.515-16.276s17.51,7.288,17.51,16.276a15.8,15.8,0,0,1-6.2,12.4h44.452v-51.14a4,4,0,0,1,4.082-.865,4.808,4.808,0,0,1,2.75,2.254c2.208,3.765,5.685,6.192,9.594,6.192,6.676,0,12.107-7.074,12.107-15.809s-5.408-15.8-12.107-15.8a10.674,10.674,0,0,0-8.164,4.145,15.622,15.622,0,0,0-2.058,3.223l-.11.686a5.333,5.333,0,0,1-6.094.179V183.741H441.408a11.421,11.421,0,0,1-11.393-11.421v-2.41h-18.79A13.872,13.872,0,0,0,397.36,183.8v91.5h10a15.8,15.8,0,0,1-6.169-12.4Z" transform="translate(-246.189 -95.391)" fill="#6c63ff"/>
    <path id="Path_945" data-name="Path 945" d="M503.131,172.26a2.237,2.237,0,0,0-2.231,2.231v.5a2.243,2.243,0,0,0,2.231,2.237h15.2v-4.953Z" transform="translate(-290.034 -96.386)" fill="#e6e8ec"/>
    <path id="Path_946" data-name="Path 946" d="M683.17,292.068v34.224h3.892v-35.6h-2.1A1.624,1.624,0,0,0,683.17,292.068Z" transform="translate(-367.216 -146.535)" fill="#3a3768"/>
    <rect id="Rectangle_120" data-name="Rectangle 120" width="4.612" height="10.378" transform="translate(232.931 65.024)" fill="#3a3768"/>
    <rect id="Rectangle_121" data-name="Rectangle 121" width="4.612" height="7.495" transform="translate(232.931 80.59)" fill="#3a3768"/>
    <rect id="Rectangle_122" data-name="Rectangle 122" width="4.612" height="5.189" transform="translate(232.931 75.401)" fill="#e6e8ec"/>
    <path id="Path_947" data-name="Path 947" d="M690.5,293.2H689.42v34.114h2.4V294.526a1.326,1.326,0,0,0-1.32-1.326Z" transform="translate(-369.863 -147.598)" fill="#3a3768"/>
    <path id="Path_948" data-name="Path 948" d="M546.741,163.818c1.228.277,2.306,2.514,2.306,2.514v.484s-1.084,2.231-2.306,2.191h0v7.5h26.054a11.427,11.427,0,0,0,11.421-11.427v-2.41h19.6a13.866,13.866,0,0,1,13.837,13.866V243.7a15.405,15.405,0,0,1,0,24.071v.386h8.072V234.324a.167.167,0,0,1,.173-.167h2.71v-59.1a21.615,21.615,0,0,0-21.62-21.621H546.17v10.378Zm8.729-.052a2.808,2.808,0,1,1-2.808,2.808A2.808,2.808,0,0,1,555.47,163.766Z" transform="translate(-309.203 -88.416)" fill="#3a3768"/>
    <path id="Path_949" data-name="Path 949" d="M551.8,197.656c9.058,0,16.4,7.847,16.4,17.521S560.862,232.7,551.8,232.7a15.988,15.988,0,0,1-12.684-6.371v48.62h52.466a15.838,15.838,0,0,1-6.163-12.413c0-9,7.824-16.293,17.481-16.293a18.132,18.132,0,0,1,11.773,4.238V183.306a13.866,13.866,0,0,0-13.837-13.866h-19.6v2.41a11.427,11.427,0,0,1-11.421,11.427H539.149v20.756a16,16,0,0,1,12.655-6.377Z" transform="translate(-306.218 -95.192)" fill="#6c63ff"/>
    <path id="Path_950" data-name="Path 950" d="M546.737,176.629a2.306,2.306,0,0,0,2.306-2.191v-.484a2.883,2.883,0,0,0-2.306-2.514h-.577v5.189Z" transform="translate(-309.199 -96.039)" fill="#e6e8ec"/>
    <circle id="Ellipse_222" data-name="Ellipse 222" cx="2.808" cy="2.808" r="2.808" transform="translate(243.045 75.822) rotate(-9.22)" fill="#e6e8ec"/>
    <path id="Path_951" data-name="Path 951" d="M663.38,543.959v-5.766a9.634,9.634,0,0,0,0-11.323Z" transform="translate(-358.836 -246.546)" fill="#3a3768"/>
    <rect id="Rectangle_123" data-name="Rectangle 123" width="10.787" height="2.479" transform="translate(304.544 299.638)" fill="#3a3768"/>
    <path id="Path_952" data-name="Path 952" d="M654.01,550.454a4.808,4.808,0,0,0-2.254,2.75,4.036,4.036,0,0,0,.605,3.776h6V554.5h-2.306a17.288,17.288,0,0,0,2.306-2.225V546.51A13.654,13.654,0,0,1,654.01,550.454Z" transform="translate(-353.819 -254.863)" fill="#6c63ff"/>
    <path id="Path_953" data-name="Path 953" d="M659.36,558.735h2.306V556.51A17.291,17.291,0,0,1,659.36,558.735Z" transform="translate(-357.134 -259.098)" fill="#6c63ff"/>
    <path id="Path_954" data-name="Path 954" d="M665.219,532.552a9.842,9.842,0,0,0-1.839-5.662v11.318A9.865,9.865,0,0,0,665.219,532.552Z" transform="translate(-358.836 -246.555)" fill="#3a3768"/>
    <path id="Path_955" data-name="Path 955" d="M621.113,564.67v94.5a22.485,22.485,0,0,1-22.485,22.485H538.09v-9.225h58.364a13.872,13.872,0,0,0,13.872-13.872V564.67Z" transform="translate(-305.782 -262.553)" fill="#3a3768"/>
    <path id="Path_956" data-name="Path 956" d="M603.718,540.174a4.808,4.808,0,0,1,2.254-2.75,13.653,13.653,0,0,0,4.353-3.938V522.169c-2.658-3.823-7.91-6.429-13.964-6.429-8.735,0-15.809,5.414-15.809,12.107a10.692,10.692,0,0,0,4.145,8.164,15.929,15.929,0,0,0,3.223,2.058l.069.11a4.924,4.924,0,0,1,.963,5.765H538.09v47.277a15.8,15.8,0,0,1,12.551-6.342c8.988,0,16.27,7.841,16.27,17.51S559.63,619.9,550.641,619.9a15.8,15.8,0,0,1-12.551-6.342v38.162h58.364a13.872,13.872,0,0,0,13.872-13.837V543.95h-5.985A4.036,4.036,0,0,1,603.718,540.174Z" transform="translate(-305.782 -241.833)" fill="#6c63ff"/>
    <path id="Path_957" data-name="Path 957" d="M842.18,296.271a10.888,10.888,0,0,0,6.411-7.011,8.851,8.851,0,0,0,.219-1.153,10.293,10.293,0,0,0,.369-1.1,10.6,10.6,0,0,0-2.2-9.156l-4.215,16.143h0Z" transform="translate(-434.549 -141.098)" fill="url(#linear-gradient)"/>
    <path id="Path_958" data-name="Path 958" d="M863.084,245.378c-.657-3.857-12.834-12.211-12.834-12.211s-5.379-2.883-8.227-6.215c-1.822-2.122-2.393-2.1-2.566-1.81a.864.864,0,0,0-.392-.133c-.115-.081-.225-.156-.329-.242h0a.778.778,0,0,0-.456-.79c-.138-.081-.277-.184-.415-.282a13.071,13.071,0,0,1-1.361-5.662c-.138-2.416-2.883-1.81-3.823-1.539-.646-1.211-1.274-2.468-1.868-3.725a6.838,6.838,0,0,0,.651-1.3c1.7-3.684,1.326-7.91,2.064-11.808.53-2.819,1.637-5.766,1.418-8.51v-.161a7.3,7.3,0,0,0-.467-2.006c-.49-1.234-1.343-2.306-1.73-3.58-.617-1.862-.225-3.915-.738-5.8a8.667,8.667,0,0,0-4.941-5.287,24.553,24.553,0,0,0-7.328-1.73c-6.255-.784-12.9-1.251-18.611,1.378a3.344,3.344,0,0,1-1.73.467,5.31,5.31,0,0,1-1.58-.732,4.807,4.807,0,0,0-4.831.738,13.891,13.891,0,0,0-3.211,3.9,12.132,12.132,0,0,1-3.315,3.811c-1.666,1.113-3.869,1.488-5.189,2.987a4.826,4.826,0,0,0-1.072,2.491v-.04a3.173,3.173,0,0,0,0,.329v1.211a15.741,15.741,0,0,0,1.113,4.093,5.7,5.7,0,0,0,1.511,2.571c2.006,1.632,5.189.092,7.61,1,.213.075.415.173.617.265a1.153,1.153,0,0,1-.092.283,19.139,19.139,0,0,0-.778,5.425,19.843,19.843,0,0,0,20.075,19.6,10.99,10.99,0,0,0,1.234-.046c.058.213.121.432.173.64a21.258,21.258,0,0,1,.577,7.334l-.121-1.072a5.315,5.315,0,0,0-.836-.317,7.461,7.461,0,0,0-2.491-.381c-2.727-.035-6.832,1.061-11.214,6.377,0,0-5.592,3.108-7.236,3.857a.773.773,0,0,0-.306.346h0s-7.478,11.295-8.25,15.59-1.73,9.225-1.73,9.225-1.868,5.569-3.073,8.037-2.306,4.82-2.41,5.892.438,3.425-1.868,4.924-2.883,5.569-2.883,5.569-1.153,1.084-2.785,2.456h-.058l6.025-23.1,1.078.271a1.384,1.384,0,0,0,1.418-.484,1.286,1.286,0,0,0,.236-.479l1.217-4.682.49-1.862.1-.381.709-2.716-2.4-.577-2.808-.7-7.933-2,.692-2.652h0l.577-2.249h0l3.626-13.918h0l.577-2.243A19,19,0,0,0,760.1,226.49c-8.706-2.162-17.135,1.355-18.83,7.853a8.849,8.849,0,0,0-.225,1.153,8.412,8.412,0,0,0-.363,1.1,9.269,9.269,0,0,0-.231,3.459q.035.283.086.577a11.865,11.865,0,0,0,2.208,4.941,15.751,15.751,0,0,0,2.692,2.8l.04.127a5.264,5.264,0,0,1,.755,2.306c0,.115,0,.236,0,.357a5.3,5.3,0,0,1-.692.969L692.345,238.9l-.577,2.243h0l-11.981,46.037h0a17.365,17.365,0,0,1,5.189-2.739,16.9,16.9,0,0,1,2.249-.577l.271-.046a16.069,16.069,0,0,1,6.446.265,16.494,16.494,0,0,1,12.234,14.131,17.2,17.2,0,0,1,.144,2.566,18.08,18.08,0,0,1-.346,3.258c-2.883,8.752-11.739,14.039-20.341,11.9a16.143,16.143,0,0,1-10.9-9.311l-.577,2.249h0L661.8,356.127l47.11,11.715h0l.507-2.266h.075a15.653,15.653,0,0,1-3.252-12.465.661.661,0,0,1,.075-.219c.058-.167.121-.329.184-.49a15.885,15.885,0,0,1,1.153-2.277c.231-.375.473-.738.732-1.09q.242-.329.5-.64a16.377,16.377,0,0,1,2.819-2.687l.334-.242c.38-.271.773-.53,1.153-.773.236-.138.479-.277.721-.4a18.7,18.7,0,0,1,9.063-2.162,19.9,19.9,0,0,1,4.5.577,18.646,18.646,0,0,1,11.122,7.732,16.844,16.844,0,0,1,.946,1.614,15.786,15.786,0,0,1,1.632,5.27,14.925,14.925,0,0,1-.115,4.411,15.694,15.694,0,0,1-6.1,7.893l-.577,2.168h.063l-.086.063-.577,2.162,10.758,2.675,15.238-58.26c4.111-.479,6.215-2.306,6.215-2.571s4.941-3,7.68-3.753c1.361-.369,2.935-.634,4.186-.9-1.476,7.328-2.883,14.414-2.756,14.829.04.161.306-.092.709-.646a3.113,3.113,0,0,0-.052.646c0,.11.156.029.358-.2l-.029.138s-8.556,16.553-9.225,18.45.161,6.751,2.8,8.36a5.638,5.638,0,0,1,1.349,1.193l-.311.617c-.98,1.989-1.851,4.2-1.7,5.581a7.559,7.559,0,0,1-1.153,4.981s-7.409,22.895-7.241,29.485-2.635,21.05-2.635,21.05-3.044,9.317-1.234,11.969,3.869,14.223,3.869,14.223a11.737,11.737,0,0,1,1.315,4.9c-.086,2.249,1.32,6.342,1.32,6.342l4.612,16.628s-.5,4.422,1.234,7.553,1.562,2.168.738,7.633.992,10.522,3.949,12.108a1.808,1.808,0,0,1,.853,2.5h0c-.755-.294-1.384,1.268-1.758,2.531l-.381.363.254.063c-.161.577-.254,1.061-.254,1.061s-7.731,6.428-8.227,8.758-5.927,3.534-5.927,3.534-8.227,2.249-10.378,3.373a3.92,3.92,0,0,0-2.272,3.119,8.558,8.558,0,0,0,.3,3.148c.819,3.292,12.338,3.615,17.873,2.733s16.945-4.1,16.945-4.1,12.015-1.153,15.567-2.571.738-5.143.738-5.143v-.346c.086-1.343.334-6.215-.519-7.5-.64-.992-.623-3.459-.53-5.027,2.4-4.324-2.756-17.3-2.756-17.3s.986-12.684.329-14.541-3.459-17.6-3.459-17.6-1.73-7.149-1.067-8.354-.415-4.664-.415-4.664-2.819-3.846-2.566-5.056-.824-3.373-.824-3.373,8.395-12.534,7.651-14.863.334-6.106.334-6.106,1.055-1.776,2.306-3.9c1.557-2.606,3.459-5.725,4.082-6.7.807-1.24,2.75-6.515,3.834-9.553.461-1.291.773-2.179.773-2.179s1.315,23.638,2.468,26.031,2.883,21.453,2.883,21.453a13.042,13.042,0,0,1,.824,5.3c-.161,2.969,2.635,15.907,2.635,15.907s1.234,9.156.409,11.566-.161,20.179-.161,20.179-4.526,3.459-5.679,6.106.161,9.882.161,9.882l.53.248a15.242,15.242,0,0,0-.94,3.125c-.161,1.528-2.635,8.441-2.387,9.4s-1.067,3.938-1.234,5.46-2.22,3.776-2.387,4.584a19.7,19.7,0,0,1-.905,2.116A20.176,20.176,0,0,0,799.433,534c-.824,3.379,8.965,3.938,8.965,3.938,14.483,2.652,17.118-8.193,17.118-8.193s1.81-9.64,2.468-10.378a1.153,1.153,0,0,0,.11-.917h0a12.223,12.223,0,0,0-2.087-4.537c-.461-.536-.49-1.914-.415-3.148a7.276,7.276,0,0,0,1.24-.231c5.84-1.683,3.459-11.41,3.459-11.41s3.949-6.423,3.949-8.913a98.711,98.711,0,0,1,1.4-10.124c5.022-9,3.044-30.851,3.869-32.621s-1.73-8.354-3.788-11.329-1.234-11.006,0-13.336-1.234-10.378-1.234-10.378,2.387-15.567,2.306-18,2.058-9.559,2.058-9.559,2.139-3.7,1.643-4.82,1.643-4.036,1.072-5.3.49-5.224,1.562-7.553a42.832,42.832,0,0,0,1.73-7.4c.058-.323.115-.646.167-.963,2.4,1.516,4.612,2.646,5.4,2.341,1.47-.577-.871-8.072-2.473-12.742.277-.208.392-.363.277-.432-.986-.646.109-3.54.109-3.54,5.817-3.425,3.84-6,1.978-7.5s-.657-5.765-1.211-7.5.663-9.53,1.649-15.209a10.886,10.886,0,0,0-.029-3.725c1.055-1.609,2.145-3.292,3.1-4.849,3.286-5.356,10.309-30.851,10.309-30.851l-.046-.133c.686-1.355,1.2-2.456,1.476-3.188C867.691,265.966,863.741,249.246,863.084,245.378ZM811.956,230.7l.15-.069v.121ZM707.117,365.034Zm72.916,139.15a2.633,2.633,0,0,1-1.044-.208Z" transform="translate(-358.167 -96.265)" fill="url(#linear-gradient-2)"/>
    <path id="Path_959" data-name="Path 959" d="M757.481,416.909c4.745,1.8,15.774,1.995,20.675,1.995h2.41l3.142-6.4-3.142-5.333s-2.883-.8-6.711-1.487c-5.65-1.015-13.382-1.81-17.066.473C750.608,409.978,751.3,414.562,757.481,416.909Z" transform="translate(-396.568 -194.805)" fill="#fec2be"/>
    <path id="Path_960" data-name="Path 960" d="M793.845,419.64h2.41l3.142-6.4-3.136-5.333s-2.883-.8-6.711-1.487C792.658,408.7,800.13,413.673,793.845,419.64Z" transform="translate(-412.263 -195.542)" opacity="0.1"/>
    <path id="Path_961" data-name="Path 961" d="M845.439,291.943l-1.384-1.6s-7.143,11.3-7.893,15.567-1.73,9.167-1.73,9.167-1.81,5.546-2.987,8a26.514,26.514,0,0,0-2.341,5.864c-.1,1.067.427,3.413-1.816,4.906s-2.767,5.546-2.767,5.546-8.106,7.887-12.373,8.072-16.524,2.346-16.1,4.48-5.114,3.407-7.357,3.944,14.414,6.919,4.693,15.14c0,0,6.181,1.28,6.821,2.767s7.143-.848,7.143-.848,1.39-3.309,6.186-3.523,7.247-2.347,7.247-2.664,4.8-2.987,7.5-3.73,6.181-1.067,6.29-1.816,15.993-69.3,15.993-69.3Z" transform="translate(-411.812 -146.387)" fill="#4c4981"/>
    <path id="Path_962" data-name="Path 962" d="M845.439,291.943l-1.384-1.6s-7.143,11.3-7.893,15.567-1.73,9.167-1.73,9.167-1.81,5.546-2.987,8a26.514,26.514,0,0,0-2.341,5.864c-.1,1.067.427,3.413-1.816,4.906s-2.767,5.546-2.767,5.546-8.106,7.887-12.373,8.072-16.524,2.346-16.1,4.48-5.114,3.407-7.357,3.944,14.414,6.919,4.693,15.14c0,0,6.181,1.28,6.821,2.767s7.143-.848,7.143-.848,1.39-3.309,6.186-3.523,7.247-2.347,7.247-2.664,4.8-2.987,7.5-3.73,6.181-1.067,6.29-1.816,15.993-69.3,15.993-69.3Z" transform="translate(-411.812 -146.387)" opacity="0.05"/>
    <path id="Path_963" data-name="Path 963" d="M909.651,781.727c14.073,2.641,16.633-8.158,16.633-8.158s1.758-9.594,2.4-10.314a1.153,1.153,0,0,0,.11-.911h0a12.551,12.551,0,0,0-2.029-4.52c-.876-1.038-.161-5.356-.161-5.356l-16.31-4.157a24.389,24.389,0,0,0-1.6,4.8c-.156,1.522-2.56,8.395-2.306,9.357s-1.038,3.915-1.2,5.437-2.156,3.759-2.306,4.555a18.808,18.808,0,0,1-.882,2.11,21.135,21.135,0,0,0-1.038,3.246C900.138,781.167,909.651,781.727,909.651,781.727Z" transform="translate(-459.42 -340.316)" fill="#ca8496"/>
    <path id="Path_964" data-name="Path 964" d="M909.633,792.034c14.073,2.641,16.633-8.158,16.633-8.158s1.758-9.594,2.4-10.315a1.153,1.153,0,0,0,.11-.911l-3.39,9.709s-2.8,5.835-13.191,4.958c-5.915-.5-8.827-1.6-10.239-2.45a21.121,21.121,0,0,0-1.038,3.246C900.12,791.474,909.633,792.034,909.633,792.034Z" transform="translate(-459.401 -350.623)" opacity="0.1"/>
    <path id="Path_965" data-name="Path 965" d="M932.309,777.866s-3.517.081-3.759-2.8Z" transform="translate(-471.123 -351.647)" opacity="0.1"/>
    <path id="Path_966" data-name="Path 966" d="M609.909,467.07l2.231.571-.49,2.266-2.07-.525Z" transform="translate(-258.128 -197.782)" fill="#6c63ff"/>
    <path id="Path_967" data-name="Path 967" d="M609.909,467.07l2.231.571-.49,2.266-2.07-.525Z" transform="translate(-258.128 -197.782)" opacity="0.1"/>
    <rect id="Rectangle_124" data-name="Rectangle 124" width="2.79" height="2.404" transform="translate(417.311 166.497) rotate(-75.72)" fill="#3a3768"/>
    <rect id="Rectangle_125" data-name="Rectangle 125" width="2.79" height="7.974" transform="translate(406.851 163.832) rotate(-75.72)" fill="#3a3768"/>
    <rect id="Rectangle_126" data-name="Rectangle 126" width="2.79" height="2.819" transform="translate(414.574 165.805) rotate(-75.72)" fill="#3a3768"/>
    <path id="Path_968" data-name="Path 968" d="M838.909,316.213c-.185.087-.363.179-.542.254l.45.115-.692,2.7-3.419-.871a4.036,4.036,0,0,1,.352-3.8,4.767,4.767,0,0,1,2.883-2.11,14.989,14.989,0,0,0,2.139-.8Z" transform="translate(-431.25 -155.436)" fill="#6c63ff"/>
    <path id="Path_969" data-name="Path 969" d="M856.38,335.421l1.044.271a1.32,1.32,0,0,0,1.609-.957l1.165-4.658-2.306-.577Z" transform="translate(-440.563 -162.97)" fill="#3a3768"/>
    <path id="Path_970" data-name="Path 970" d="M850.422,292.919a10.748,10.748,0,0,1-6.232,6.976l4.094-16.086A10.645,10.645,0,0,1,850.422,292.919Z" transform="translate(-435.401 -143.622)" fill="#3a3768"/>
    <path id="Path_971" data-name="Path 971" d="M826.962,333.083a1.32,1.32,0,0,1-.951-1.6l1.188-4.664-7.726-1.966-23.563,92.559a15.371,15.371,0,0,1-5.022,19.729l-.548,2.156,10.453,2.681,27.622-108.5Z" transform="translate(-412.598 -161.001)" fill="#3a3768"/>
    <path id="Path_972" data-name="Path 972" d="M852.18,332.924a1.32,1.32,0,0,0,.951,1.6l1.453.369,1.51-5.938-2.727-.7Z" transform="translate(-438.767 -162.444)" fill="#3a3768"/>
    <path id="Path_973" data-name="Path 973" d="M764.98,297.557a4.814,4.814,0,0,1,2.883-2.11,15.36,15.36,0,0,0,2.133-.8l4.1-16.086a18.328,18.328,0,0,0-10.2-6.5c-8.458-2.156-16.656,1.343-18.3,7.812a10.68,10.68,0,0,0,2.006,8.936,15.563,15.563,0,0,0,2.612,2.785l.04.127a4.924,4.924,0,0,1-.5,5.846l-51.693-13.163L686.4,330.23a15.82,15.82,0,0,1,13.693-3.079c8.712,2.22,13.837,11.617,11.45,20.986s-11.358,15.175-20.07,12.984a15.815,15.815,0,0,1-10.591-9.265L668.91,398.88,714.7,410.532a15.786,15.786,0,0,1-2.929-13.537c2.22-8.706,11.612-13.837,20.986-11.45a18.029,18.029,0,0,1,11.733,9.242l23.564-92.559-3.384-.871a4.036,4.036,0,0,1,.311-3.8Z" transform="translate(-361.178 -138.378)" fill="#6c63ff"/>
    <path id="Path_974" data-name="Path 974" d="M841.734,319.889l.1-.369c-.179.086-.357.179-.542.259Z" transform="translate(-434.173 -158.743)" fill="#6c63ff"/>
    <g id="Group_34" data-name="Group 34" transform="translate(307.732 133.048)" opacity="0.1">
      <path id="Path_975" data-name="Path 975" d="M779.192,302.187l-2.727-.7-7.72-1.966h0l.1-.369h0l1.153-4.5a15.005,15.005,0,0,1-2.139.8,4.768,4.768,0,0,0-2.883,2.11,5.561,5.561,0,0,0-.427.911,5.533,5.533,0,0,1,.421-.911,4.815,4.815,0,0,1,2.883-2.11,15.357,15.357,0,0,0,2.133-.8l4.1-16.086a18.329,18.329,0,0,0-10.2-6.5c-8.458-2.156-16.656,1.343-18.3,7.812a10.68,10.68,0,0,0,2.006,8.936A15.566,15.566,0,0,0,750.2,291.6l.04.127a4.924,4.924,0,0,1-.5,5.846l-51.693-13.163L686.391,330.23a15.821,15.821,0,0,1,13.7-3.079c8.712,2.22,13.837,11.617,11.45,20.986s-11.358,15.175-20.07,12.984a15.815,15.815,0,0,1-10.591-9.265L668.91,398.88,714.7,410.532a15.786,15.786,0,0,1-2.929-13.537c2.22-8.706,11.612-13.837,20.986-11.45a18.029,18.029,0,0,1,11.733,9.242,15.371,15.371,0,0,1-5.022,19.729l-.548,2.156,10.453,2.681L777,310.853l1.044.271a1.32,1.32,0,0,0,1.609-.957l1.165-4.682.686-2.7ZM768.56,299.3c-.087.04-.173.086-.259.121h0Zm-3.921,2.07h0l3.419.871h0Z" transform="translate(-668.91 -271.426)"/>
      <path id="Path_976" data-name="Path 976" d="M850.422,292.919a10.763,10.763,0,0,0-2.139-9.109L844.19,299.9A10.673,10.673,0,0,0,850.422,292.919Z" transform="translate(-743.133 -276.67)"/>
    </g>
    <rect id="Rectangle_127" data-name="Rectangle 127" width="2.79" height="2.404" transform="translate(417.877 164.268) rotate(-75.72)" fill="#3a3768"/>
    <rect id="Rectangle_128" data-name="Rectangle 128" width="2.79" height="7.974" transform="translate(407.417 161.602) rotate(-75.72)" fill="#3a3768"/>
    <rect id="Rectangle_129" data-name="Rectangle 129" width="2.79" height="2.819" transform="translate(415.141 163.564) rotate(-75.72)" fill="#3a3768"/>
    <path id="Path_977" data-name="Path 977" d="M839.894,312.346l-.542.259.444.11-.686,2.721-3.419-.871a4,4,0,0,1,.346-3.8,4.8,4.8,0,0,1,2.883-2.11,14.923,14.923,0,0,0,2.133-.8Z" transform="translate(-431.664 -153.806)" fill="#6c63ff"/>
    <path id="Path_978" data-name="Path 978" d="M857.36,331.547l1.049.265a1.32,1.32,0,0,0,1.626-.957l1.188-4.659-2.306-.577Z" transform="translate(-440.977 -161.327)" fill="#3a3768"/>
    <path id="Path_979" data-name="Path 979" d="M851.422,289.045a10.722,10.722,0,0,1-6.233,6.97l4.1-16.086A10.706,10.706,0,0,1,851.422,289.045Z" transform="translate(-435.824 -141.979)" fill="#3a3768"/>
    <path id="Path_980" data-name="Path 980" d="M827.956,329.222a1.32,1.32,0,0,1-.951-1.609l1.153-4.658L820.467,321l-23.558,92.547a15.348,15.348,0,0,1-5.022,19.724l-.548,2.156,10.459,2.664,27.617-108.5Z" transform="translate(-413.021 -159.37)" fill="#3a3768"/>
    <path id="Path_981" data-name="Path 981" d="M853.169,329.048a1.32,1.32,0,0,0,.951,1.609l1.447.369,1.522-5.944-2.733-.692Z" transform="translate(-439.185 -160.806)" fill="#3a3768"/>
    <path id="Path_982" data-name="Path 982" d="M765.97,293.679a4.8,4.8,0,0,1,2.883-2.11,14.913,14.913,0,0,0,2.133-.8l4.094-16.086a18.323,18.323,0,0,0-10.193-6.5c-8.464-2.151-16.656,1.343-18.305,7.818a10.675,10.675,0,0,0,2.012,8.931,15.6,15.6,0,0,0,2.612,2.79l.04.121a4.935,4.935,0,0,1-.5,5.846l-51.7-13.157-11.681,45.818a15.809,15.809,0,0,1,13.722-3.073c8.706,2.214,13.837,11.612,11.45,20.986s-11.364,15.169-20.1,12.955a15.832,15.832,0,0,1-10.574-9.271L669.9,394.973l45.784,11.658a15.786,15.786,0,0,1-2.923-13.537c2.214-8.712,11.612-13.837,20.986-11.45a17.988,17.988,0,0,1,11.738,9.271l23.558-92.547-3.419-.871a4.036,4.036,0,0,1,.346-3.817Z" transform="translate(-361.597 -136.737)" fill="#6c63ff"/>
    <path id="Path_983" data-name="Path 983" d="M842.724,316.015l.092-.375c-.179.086-.357.179-.536.259Z" transform="translate(-434.592 -157.101)" fill="#6c63ff"/>
    <path id="Path_984" data-name="Path 984" d="M828.583,545.47c1.73,2.635,3.759,14.154,3.759,14.154a11.906,11.906,0,0,1,1.28,4.878c-.081,2.243,1.28,6.342,1.28,6.342l4.48,16.553s-.484,4.4,1.2,7.5,1.516,2.156.721,7.593.957,10.476,3.834,12.108-1.28,5.356-1.28,5.356,18.392,4.958,22.232,1.92-2-18.075-2-18.075.963-12.632.323-14.471-3.361-17.51-3.361-17.51-1.678-7.12-1.038-8.32-.4-4.612-.4-4.612-2.721-3.84-2.479-5.039-.8-3.355-.8-3.355,8.141-12.511,7.42-14.858.317-6.077.317-6.077l2.272-3.886c1.516-2.594,3.35-5.7,3.967-6.671.784-1.234,2.675-6.48,3.73-9.507l.75-2.168s1.28,23.512,2.4,25.91,2.8,21.332,2.8,21.332a13.259,13.259,0,0,1,.8,5.275c-.161,2.958,2.56,15.832,2.56,15.832s1.2,9.115.4,11.531-.161,20.075-.161,20.075-4.4,3.459-5.518,6.077.161,9.8.161,9.8,12.794,6.4,18.449,4.722,3.355-11.358,3.355-11.358,3.84-6.394,3.84-8.873a97.391,97.391,0,0,1,1.4-10.049c4.878-8.954,2.958-30.7,3.759-32.46s-1.683-8.32-3.678-11.277-1.2-10.954,0-13.261-1.234-10.326-1.234-10.326,2.306-15.515,2.237-17.913,2-9.513,2-9.513,2.076-3.678,1.6-4.8,1.6-4,1.038-5.275.484-5.189,1.522-7.5a48.117,48.117,0,0,0,1.73-7.363c.49-2.762.853-5.189.853-5.189l-13.2-10.637-32.944-8.648-12.39-4-12.079,19.026a48.367,48.367,0,0,0-2.346,4.284c-.951,1.978-1.8,4.18-1.649,5.552a7.673,7.673,0,0,1-1.119,4.958s-7.2,22.785-7.04,29.346-2.56,20.946-2.56,20.946S826.807,542.823,828.583,545.47Z" transform="translate(-428.551 -213.758)" fill="#ceddf9"/>
    <path id="Path_985" data-name="Path 985" d="M912.627,265.35c.507-.208,35.29-14.575,30.5-17.429-2.842-1.7-6.342-8.879-8.74-14.5-1.672-3.926-2.808-7.092-2.808-7.092s-27.916-4.958-17.925,12.154a31.709,31.709,0,0,1,3.523,8.429C920.024,258.57,912.858,265.137,912.627,265.35Z" transform="translate(-463.901 -118.999)" fill="#fec2be"/>
    <path id="Path_986" data-name="Path 986" d="M913.654,238.483a31.714,31.714,0,0,1,3.523,8.429A19.493,19.493,0,0,0,933.66,235.33a18.553,18.553,0,0,0,.726-1.908c-1.672-3.926-2.808-7.091-2.808-7.091S903.662,221.371,913.654,238.483Z" transform="translate(-463.901 -118.999)" opacity="0.1"/>
    <path id="Path_987" data-name="Path 987" d="M885.14,213.317a19.5,19.5,0,1,0,.761-5.4A19.5,19.5,0,0,0,885.14,213.317Z" transform="translate(-452.741 -105.508)" fill="#fec2be"/>
    <path id="Path_988" data-name="Path 988" d="M852.5,472.748c2.041,1.857,2.825,5.391,2.825,5.391s9.6,6.555,8.959,2.4,4.958-20.952,4.958-20.952l-.64,22.872s30.7-1.441,32.944-3.678,15.353-6.527,15.353-6.527,4.036,3.223,7.7,5.667c.49-2.762.853-5.189.853-5.189l-13.2-10.637-32.944-8.648-12.39-4-12.079,19.026a48.381,48.381,0,0,0-2.346,4.272Z" transform="translate(-438.92 -213.763)" opacity="0.1"/>
    <path id="Path_989" data-name="Path 989" d="M848.581,386.861c2.56,1.6,3.517,5.915,3.517,5.915s9.594,6.555,8.954,2.4,4.958-20.952,4.958-20.952l-.64,22.872s30.707-1.43,32.938-3.678,15.354-6.555,15.354-6.555,11.358,9.115,13.434,8.314-3.678-16.311-3.678-16.311l-5.91-90.835s1.6-27.029-.8-27.991a3.457,3.457,0,0,1-1.009-.628c-1.58-1.418-2.053-4.3-2.191-6.723-.156-2.883-4-1.441-4-1.441l2.237,2.883-19.816,12.05-.173.1a21.9,21.9,0,0,0-2.381-1.078c-1.73-.675-4.088-1.309-5.616-.68a5.431,5.431,0,0,0-2.1,1.891,23.765,23.765,0,0,0-2.7,5.466l-7.178,12.148s-3.678,16.143-3.678,16.795-1.119,15.353-2.4,16.951-2.56,9.594-2.081,11.992-.8,11.358-.8,11.358c-5.276,4.318-7.991,19.026-7.991,19.026s-8.337,16.489-8.994,18.392S846.021,385.287,848.581,386.861Z" transform="translate(-436.009 -129.68)" fill="#fff"/>
    <path id="Path_990" data-name="Path 990" d="M925.94,267.272c1.943,2.883,7.559,6.919,7.559,6.919L949.705,260.5c-1.58-1.418-2.053-4.3-2.191-6.728-.156-2.883-4-1.436-4-1.436l.467.577a2.583,2.583,0,0,1-.7,3.788Z" transform="translate(-470.018 -130.139)" opacity="0.1"/>
    <path id="Path_991" data-name="Path 991" d="M925.94,266.164c1.943,2.883,7.559,6.919,7.559,6.919l16.207-13.693c-1.58-1.418-2.053-4.3-2.191-6.723-.156-2.883-4-1.441-4-1.441l.467.577a2.577,2.577,0,0,1-.7,3.782Z" transform="translate(-470.018 -129.671)" fill="#fff"/>
    <path id="Path_992" data-name="Path 992" d="M912.94,279.329c2.093,2.5,5.062,5.345,4.924,3.921s1.77-4.566,2.987-5.973a8.85,8.85,0,0,0-5.812.161A5.385,5.385,0,0,0,912.94,279.329Z" transform="translate(-464.513 -140.68)" opacity="0.1"/>
    <path id="Path_993" data-name="Path 993" d="M912.39,277.893c2.093,2.508,5.056,5.345,4.918,3.926s1.574-3.73,2.79-5.137c-1.73-.675-4.082-1.309-5.616-.675a5.362,5.362,0,0,0-2.093,1.885Z" transform="translate(-464.28 -140.207)" fill="#fff"/>
    <circle id="Ellipse_223" data-name="Ellipse 223" cx="1.28" cy="1.28" r="1.28" transform="translate(452.071 148.433)" fill="#ff718d"/>
    <circle id="Ellipse_224" data-name="Ellipse 224" cx="1.28" cy="1.28" r="1.28" transform="translate(442.367 182.974)" fill="#ff718d"/>
    <circle id="Ellipse_225" data-name="Ellipse 225" cx="1.28" cy="1.28" r="1.28" transform="translate(431.39 217.947)" fill="#ff718d"/>
    <circle id="Ellipse_226" data-name="Ellipse 226" cx="1.28" cy="1.28" r="1.28" transform="translate(431.067 256.005)" fill="#ff718d"/>
    <circle id="Ellipse_227" data-name="Ellipse 227" cx="1.28" cy="1.28" r="1.28" transform="translate(446.421 164.743)" fill="#ff718d"/>
    <circle id="Ellipse_228" data-name="Ellipse 228" cx="1.28" cy="1.28" r="1.28" transform="translate(437.784 200.247)" fill="#ff718d"/>
    <circle id="Ellipse_229" data-name="Ellipse 229" cx="1.28" cy="1.28" r="1.28" transform="translate(429.361 235.111)" fill="#ff718d"/>
    <circle id="Ellipse_230" data-name="Ellipse 230" cx="1.28" cy="1.28" r="1.28" transform="translate(431.28 260.271)" fill="#ff718d"/>
    <path id="Path_994" data-name="Path 994" d="M946.2,266.593s-.213-1.92,2.554,1.389,8,6.181,8,6.181,11.837,8.32,12.477,12.154,4.474,20.473,2.45,26.014-17.5,32.1-17.5,32.1,4.036,4.8,3.1,10.453-2.133,13.434-1.6,15.14-.64,5.967,1.153,7.461,3.73,4.036-1.92,7.461c0,0-1.067,2.883-.11,3.523s-14.177,7.247-20.179,3.73-16.72-31.664-16.951-37.954,3.3-27.1,5.224-31.987,7.68-23.99,10.13-28.251S946.2,266.593,946.2,266.593Z" transform="translate(-466.508 -136.097)" opacity="0.1"/>
    <path id="Path_995" data-name="Path 995" d="M947.308,266.593s-.213-1.92,2.56,1.389,8,6.181,8,6.181,11.837,8.32,12.477,12.154,4.474,20.473,2.45,26.014-17.487,32.1-17.487,32.1,4.036,4.8,3.1,10.453-2.133,13.434-1.6,15.14-.64,5.967,1.153,7.461,3.73,4.036-1.92,7.461c0,0-1.067,2.883-.109,3.523s-14.177,7.247-20.179,3.73-16.72-31.664-16.951-37.954,3.3-27.1,5.224-31.987,7.68-23.99,10.13-28.251S947.308,266.593,947.308,266.593Z" transform="translate(-466.987 -136.097)" fill="#4c4981"/>
    <path id="Path_996" data-name="Path 996" d="M969.154,298.48s-9.167,10.13-8.85,16.847C960.3,315.327,960.2,304.447,969.154,298.48Z" transform="translate(-484.566 -149.834)" opacity="0.1"/>
    <path id="Path_997" data-name="Path 997" d="M945.9,327.33c0,.317-6.186,23.344-5.864,26.227s-1.816,11.4-1.816,11.4l-2.883-.744s2.237-11.837,2.664-16.207S945.9,327.33,945.9,327.33Z" transform="translate(-473.998 -162.051)" opacity="0.1"/>
    <path id="Path_998" data-name="Path 998" d="M949.4,441.24c.213.317,14.61,16.628,10.557,17.8S949.4,441.24,949.4,441.24Z" transform="translate(-479.952 -210.286)" opacity="0.1"/>
    <path id="Path_999" data-name="Path 999" d="M969.93,434c.317.213,5.766,11.727,6.394,8.648s-4.687,8.423-5.541-.1Z" transform="translate(-488.646 -207.22)" opacity="0.1"/>
    <path id="Path_1000" data-name="Path 1000" d="M896.166,272.817s-5.944-3.626-13.411,5.65c0,0-5.437,3.09-7.034,3.84s-3.413,20.577-3.413,20.577-3.517,8.527-2.56,13.434-2.767,21.747-2.767,21.747S860.789,368.334,861,369.2s6.29-9.49,6.186-14.61,5.114-21.107,5.864-22.07,5.864-28.355,5.864-28.355,4.157-11.623,6.821-15.463,5.973-11.087,7.357-12.367a14.091,14.091,0,0,1,3.3-2.133Z" transform="translate(-442.515 -138.671)" opacity="0.1"/>
    <path id="Path_1001" data-name="Path 1001" d="M895.775,272.817s-6.665-3.626-14.125,5.65c0,0-5.443,3.09-7.04,3.84s-3.413,20.577-3.413,20.577-3.517,8.527-2.56,13.434-2.767,21.747-2.767,21.747-6.186,30.28-5.973,31.134,6.29-9.49,6.186-14.61,5.114-21.107,5.864-22.07,5.881-28.355,5.881-28.355,4.157-11.623,6.821-15.463,5.973-11.087,7.357-12.367a13.1,13.1,0,0,1,3.944-2.133Z" transform="translate(-442.049 -138.671)" fill="#4c4981"/>
    <path id="Path_1002" data-name="Path 1002" d="M849.883,384.972s-12.684-8.314-18.818-4.209-16.143,9.917-6.29,14.125,23.506,3.4,23.506,3.4Z" transform="translate(-425.423 -184.195)" fill="#fec2be"/>
    <path id="Path_1003" data-name="Path 1003" d="M886.155,522.06c1.891,4.036,3.459,24.434,4.509,30.9,1.516-2.594,3.35-5.7,3.967-6.671.784-1.234,2.675-6.48,3.73-9.507-1.2-2.929-4.532-11.323-4.532-14.414,0-3.759-6.077-8.475-6.077-8.475A7.08,7.08,0,0,0,886.155,522.06Z" transform="translate(-452.874 -241.05)" opacity="0.1"/>
    <path id="Path_1004" data-name="Path 1004" d="M943.632,634.254s-14.074-6-18.23-1.73S943.632,634.254,943.632,634.254Z" transform="translate(-469.572 -290.637)" opacity="0.1"/>
    <path id="Path_1005" data-name="Path 1005" d="M943.67,640.81s14.235,8,9.357,9.334S943.67,640.81,943.67,640.81Z" transform="translate(-477.526 -294.795)" opacity="0.1"/>
    <path id="Path_1006" data-name="Path 1006" d="M869.89,628.75s6.077.4,3.759,1.6S869.89,628.75,869.89,628.75Z" transform="translate(-446.283 -289.688)" opacity="0.1"/>
    <path id="Path_1007" data-name="Path 1007" d="M856.71,631.94c.081.4,17.671,6.077,14.235,8.648S856.71,631.94,856.71,631.94Z" transform="translate(-440.702 -291.039)" opacity="0.1"/>
    <path id="Path_1008" data-name="Path 1008" d="M944.3,713.83c-2.635-.4-17.348-7.2-11.594-2.306A11.406,11.406,0,0,0,944.3,713.83Z" transform="translate(-472.323 -323.991)" opacity="0.1"/>
    <path id="Path_1009" data-name="Path 1009" d="M935.734,726.11s-1.28,4.958-6.158,4.318S935.734,726.11,935.734,726.11Z" transform="translate(-471.031 -330.915)" opacity="0.1"/>
    <path id="Path_1010" data-name="Path 1010" d="M939.731,741.091c-.882-.236-11.358-5.033-11.594-2.8s9.992,6.157,10.793,4.958a4.289,4.289,0,0,0,.8-2.162Z" transform="translate(-470.947 -335.824)" opacity="0.1"/>
    <path id="Path_1011" data-name="Path 1011" d="M877.93,732.2c-1.28-.081-13.261-3.92-15.671-.484Z" transform="translate(-443.052 -332.683)" opacity="0.1"/>
    <path id="Path_1012" data-name="Path 1012" d="M867.216,736.629s-2.081-1.839-4.157-.882S867.216,736.629,867.216,736.629Z" transform="translate(-443.212 -334.879)" opacity="0.1"/>
    <path id="Path_1013" data-name="Path 1013" d="M914.631,771.88a3.581,3.581,0,0,1-2.721,2.8Z" transform="translate(-464.077 -350.297)" opacity="0.1"/>
    <path id="Path_1014" data-name="Path 1014" d="M810.546,765.913c.8,3.281,12,3.6,17.354,2.721s16.472-4.082,16.472-4.082,11.675-1.119,15.111-2.554.721-5.12.721-5.12v-.346c.081-1.338.323-6.186-.5-7.5-.957-1.522-.4-6.48-.4-6.48s-16.553,3.2-16.875,1.684-2.883-3.678-4.076-4.157-2.081,4-2.081,4-7.5,6.4-8,8.717-5.765,3.517-5.765,3.517-8,2.237-10.078,3.356a3.869,3.869,0,0,0-2.2,3.108A8.649,8.649,0,0,0,810.546,765.913Z" transform="translate(-421.007 -336.817)" fill="#ca8496"/>
    <path id="Path_1015" data-name="Path 1015" d="M810.559,778.02c.8,3.281,12,3.6,17.354,2.721s16.472-4.082,16.472-4.082,11.675-1.118,15.111-2.554.721-5.12.721-5.12v-.346l-16.72,3.707s-8.239,3.517-13.514,3.517c-4.612,0-14.933,1.885-19.718-.974a8.648,8.648,0,0,0,.294,3.131Z" transform="translate(-421.02 -348.925)" opacity="0.1"/>
    <path id="Path_1016" data-name="Path 1016" d="M850.05,763s.8,5.275,4,7.034Z" transform="translate(-437.882 -346.536)" opacity="0.1"/>
    <path id="Path_1017" data-name="Path 1017" d="M886.46,207.91a5.722,5.722,0,0,0,.951.4c1.5.4,2.964-.611,4.3-1.418s3.171-1.407,4.324-.357c1.5,1.366.415,4.284,1.966,5.6.98.836,2.537.548,3.626,1.234s1.418,2.191,1.7,3.488.83,2.779,2.1,3.159,2.45-.455,3.7-.409c.259,0,.577.04.738-.144a.779.779,0,0,0,.121-.577,12.321,12.321,0,0,1,.409-4.612,4.446,4.446,0,0,1,3.252-3.044c2.243-.346,4.128,1.62,5.448,3.459a56.67,56.67,0,0,1,3.782,6.088,3.909,3.909,0,0,1,.19.421,19.51,19.51,0,1,0-36.6-13.261Z" transform="translate(-453.3 -105.503)" opacity="0.1"/>
    <path id="Path_1018" data-name="Path 1018" d="M911.376,206.2c-1.32-1.856-3.206-3.817-5.454-3.459a4.422,4.422,0,0,0-3.246,3.038,12.213,12.213,0,0,0-.4,4.612.807.807,0,0,1-.127.577c-.179.19-.479.161-.738.15-1.251-.046-2.5.767-3.7.409s-1.822-1.862-2.1-3.159-.577-2.779-1.7-3.488-2.646-.4-3.627-1.24c-1.551-1.315-.455-4.238-1.966-5.6-1.153-1.044-2.992-.444-4.324.363s-2.8,1.816-4.3,1.413c-.507-.138-.963-.427-1.459-.617-2.37-.905-5.443.628-7.391-1a5.714,5.714,0,0,1-1.476-2.554,16.25,16.25,0,0,1-1.078-4.076,5.448,5.448,0,0,1,1.084-3.972c1.268-1.493,3.413-1.868,5.033-2.969a12.651,12.651,0,0,0,3.217-3.794,14.177,14.177,0,0,1,3.125-3.88,4.6,4.6,0,0,1,4.687-.738,5.19,5.19,0,0,0,1.539.732,3.182,3.182,0,0,0,1.7-.467c5.546-2.612,12-2.15,18.086-1.372a23.3,23.3,0,0,1,7.12,1.73,8.555,8.555,0,0,1,4.8,5.258c.5,1.88.115,3.926.715,5.765.4,1.257,1.234,2.306,1.73,3.569,1.3,3.373-.254,7.074-.911,10.626-.715,3.88-.357,8.072-2.006,11.75-.323.721-.686,1.983-1.5,1.511-.577-.352-1.188-2.4-1.534-3.038a56.02,56.02,0,0,0-3.805-6.077Z" transform="translate(-445.589 -97.332)" fill="#9a5e7f"/>
    <path id="Path_1019" data-name="Path 1019" d="M944.207,324.346l2.883,8.21s-6.826,25.368-10.026,30.7-7.887,12.154-7.887,12.154a29.229,29.229,0,0,1-17.06,2.133c-9.173-1.816-35.942-6.607-35.942-6.607a3.557,3.557,0,0,1-3.413-1.28c-1.17-1.707-7.265-2.571-7.265-2.571s-7.034-10.234,1.6-14.5c0,0,1.067,2.347,5.65.749s5.967,1.274,5.967,1.274,7.5,1.493,11.623.963,14.5-.749,15.567-1.6a1.372,1.372,0,0,1,1.92.11,11.569,11.569,0,0,0,3.407-1.92c.853-.963,2.029,1.067,2.029,1.067s1.493-.853,1.067-1.92,1.384-5.114,1.384-5.114a10.421,10.421,0,0,0,.323-4.8c-.53-2.133,2.664-9.8,2.664-9.8a13.57,13.57,0,0,0-.427-3.84c-.536-1.914,4.036-5.765,4.036-5.765s4.474-21.753,13.964-14.61S944.207,324.346,944.207,324.346Z" transform="translate(-443.28 -152.99)" opacity="0.1"/>
    <path id="Path_1020" data-name="Path 1020" d="M945.288,324.346l2.883,8.21s-6.826,25.368-10.026,30.7-7.881,12.154-7.881,12.154a29.228,29.228,0,0,1-17.06,2.133c-9.173-1.816-35.93-6.607-35.93-6.607a3.549,3.549,0,0,1-3.407-1.28c-1.17-1.707-7.259-2.571-7.259-2.571s-7.034-10.234,1.6-14.5c0,0,1.067,2.347,5.65.749s5.967,1.274,5.967,1.274,7.5,1.493,11.623.963,14.5-.749,15.567-1.6a1.372,1.372,0,0,1,1.92.11,11.568,11.568,0,0,0,3.407-1.92c.853-.963,2.029,1.067,2.029,1.067s1.493-.853,1.067-1.92,1.384-5.114,1.384-5.114a10.371,10.371,0,0,0,.317-4.8c-.536-2.133,2.669-9.8,2.669-9.8a13.568,13.568,0,0,0-.427-3.84c-.536-1.914,4.036-5.765,4.036-5.765s4.474-21.753,13.964-14.61S945.288,324.346,945.288,324.346Z" transform="translate(-443.75 -152.99)" fill="#4c4981"/>
    <path id="Path_1021" data-name="Path 1021" d="M883.93,397.41c.1.75,2.45,3.73,1.6,4.266s-2.237.213-.957,1.92,1.153,4.261.317,3.944-2.237-4.157-2.237-5.65A16.781,16.781,0,0,1,883.93,397.41Z" transform="translate(-451.687 -191.726)" opacity="0.1"/>
    <path id="Path_1022" data-name="Path 1022" d="M939.79,394.45s.64,7.466,5.887,9.6S939.79,394.45,939.79,394.45Z" transform="translate(-475.883 -190.473)" opacity="0.1"/>
    <path id="Path_1023" data-name="Path 1023" d="M958.65,390c.317.11,7.461,3.949,4.266,6.186S958.65,390,958.65,390Z" transform="translate(-483.869 -188.588)" opacity="0.1"/>
    <path id="Path_1024" data-name="Path 1024" d="M959.39,380.77s10.447,2.133,6.919,3.944S959.39,380.77,959.39,380.77Z" transform="translate(-484.182 -184.68)" opacity="0.1"/>
    <g id="Group_35" data-name="Group 35" transform="translate(422.678 92.681)" opacity="0.1">
      <path id="Path_1025" data-name="Path 1025" d="M927.659,217.814a4.46,4.46,0,0,1,3.246-3.038c2.249-.346,4.134,1.62,5.454,3.459a56.666,56.666,0,0,1,3.782,6.088c.346.64.934,2.681,1.534,3.033.813.479,1.153-.784,1.5-1.5,1.649-3.667,1.291-7.87,2.006-11.75a68.114,68.114,0,0,0,1.372-6.861c.248,2.79-.848,5.725-1.372,8.562-.715,3.88-.357,8.072-2.006,11.756-.323.721-.686,1.983-1.5,1.5-.577-.352-1.188-2.393-1.534-3.033a56.676,56.676,0,0,0-3.782-6.088c-1.32-1.851-3.206-3.817-5.454-3.459a4.422,4.422,0,0,0-3.246,3.038,8.455,8.455,0,0,0-.427,2.4A11.161,11.161,0,0,1,927.659,217.814Z" transform="translate(-893.227 -203.879)"/>
      <path id="Path_1026" data-name="Path 1026" d="M869.381,205.209a5.7,5.7,0,0,0,1.476,2.56c1.949,1.626,5.022.092,7.391,1,.5.184.951.479,1.459.617,1.5.4,2.975-.611,4.3-1.418s3.177-1.4,4.324-.357c1.511,1.366.415,4.284,1.966,5.6.98.836,2.537.577,3.626,1.24s1.418,2.185,1.7,3.459.824,2.779,2.1,3.159,2.45-.45,3.7-.4c.259,0,.577.04.738-.15a.539.539,0,0,0,.086-.161c0,.432,0,.859.04,1.286a.813.813,0,0,1-.127.577c-.179.184-.479.156-.738.144-1.251-.04-2.5.767-3.7.409s-1.822-1.856-2.1-3.159-.576-2.779-1.7-3.459-2.646-.4-3.626-1.24c-1.551-1.32-.455-4.243-1.966-5.6-1.153-1.049-2.992-.45-4.324.357s-2.8,1.816-4.3,1.418c-.507-.138-.963-.432-1.459-.617-2.37-.905-5.443.628-7.391-1a5.731,5.731,0,0,1-1.476-2.56,16.271,16.271,0,0,1-1.078-4.07,6.586,6.586,0,0,1,.034-1.43,17.151,17.151,0,0,0,1.044,3.8Z" transform="translate(-868.279 -201.41)"/>
    </g>
    <path id="Path_1027" data-name="Path 1027" d="M218.973,767.217s-24.376-1.47-21.505,15.607a4.161,4.161,0,0,0,2.168,4.393s.04-1.268,2.5-.842a11.476,11.476,0,0,0,2.646.133,5.511,5.511,0,0,0,3.234-1.338h0s6.855-2.831,9.519-14.033c0,0,1.972-2.439,1.891-3.067l-4.111,1.73s1.407,2.969.3,5.437c0,0-.133-5.327-.922-5.189-.161,0-2.139,1.026-2.139,1.026s2.421,5.189.577,8.931c0,0,.692-6.371-1.349-8.556l-2.883,1.689s2.825,5.339.911,9.7c0,0,.49-6.682-1.522-9.282l-2.623,2.047s2.658,5.258,1.038,8.873c0,0-.213-7.778-1.6-8.366a15.094,15.094,0,0,0-2.646,2.883s1.816,3.823.686,5.84c0,0-.692-5.189-1.257-5.189,0,0-2.306,3.43-2.525,5.765a12.483,12.483,0,0,1,1.972-6.117,6.867,6.867,0,0,0-3.5,1.816s.352-2.427,4.065-2.641c0,0,1.891-2.606,2.393-2.762,0,0-3.69-.311-5.927.68,0,0,1.972-2.306,6.607-1.245l2.589-2.116s-4.86-.663-6.919.069c0,0,2.37-2.024,7.616-.548l2.819-1.689a25.675,25.675,0,0,0-6.607-.577s2.6-1.4,7.437.121l2.012-.905s-3.033-.577-3.921-.692-.94-.34-.94-.34a10.528,10.528,0,0,1,5.7.634S219.042,767.482,218.973,767.217Z" transform="translate(-161.445 -348.308)" fill="#6c63ff"/>
    <ellipse id="Ellipse_231" data-name="Ellipse 231" cx="17.25" cy="2.917" rx="17.25" ry="2.917" transform="translate(23.489 437.479)" fill="#6c63ff" opacity="0.1"/>
    <path id="Path_1028" data-name="Path 1028" d="M307.008,689.157s-13.745-.83-12.107,8.8a2.352,2.352,0,0,0,1.222,2.473s0-.715,1.413-.473a6.757,6.757,0,0,0,1.493.075,3.154,3.154,0,0,0,1.822-.755h0s3.851-1.574,5.373-7.916c0,0,1.113-1.378,1.067-1.73l-2.306.986a4.179,4.179,0,0,1,.167,3.067s-.075-3-.519-2.935c-.092,0-1.2.577-1.2.577s1.361,2.883.334,5.033c0,0,.386-3.592-.761-4.826l-1.643.98s1.591,3.01.513,5.466c0,0,.277-3.771-.859-5.235l-1.476,1.153s1.493,2.969.577,5c0,0-.121-4.388-.905-4.716a9.227,9.227,0,0,0-1.493,1.609s1.026,2.156.392,3.292c0,0-.392-2.923-.709-2.935a9.626,9.626,0,0,0-1.424,3.263,7.033,7.033,0,0,1,1.107-3.459,3.909,3.909,0,0,0-1.972,1.026s.2-1.372,2.306-1.488a8.73,8.73,0,0,1,1.349-1.557,8.448,8.448,0,0,0-3.344.38s1.113-1.291,3.725-.7l1.459-1.193a12.015,12.015,0,0,0-3.9.04s1.338-1.153,4.3-.311l1.586-.946a14.241,14.241,0,0,0-3.724-.323s1.47-.8,4.191.063l1.153-.507s-1.73-.34-2.208-.392-.53-.19-.53-.19a5.95,5.95,0,0,1,3.217.357A13.387,13.387,0,0,0,307.008,689.157Z" transform="translate(-202.745 -315.26)" fill="#6c63ff"/>
    <ellipse id="Ellipse_232" data-name="Ellipse 232" cx="9.726" cy="1.643" rx="9.726" ry="1.643" transform="translate(85.093 384.367)" fill="#6c63ff" opacity="0.1"/>
    <path id="Path_1029" data-name="Path 1029" d="M164.5,703.654s-16.593-1-14.615,10.626a2.837,2.837,0,0,0,1.476,2.987s0-.865,1.7-.577a7.575,7.575,0,0,0,1.8.087,3.725,3.725,0,0,0,2.2-.911h0s4.664-1.926,6.48-9.548c0,0,1.338-1.66,1.286-2.087l-2.842,1.2a5.035,5.035,0,0,1,.2,3.7s-.092-3.621-.628-3.534c-.11,0-1.453.7-1.453.7s1.643,3.517.4,6.077c0,0,.467-4.336-.922-5.823l-1.966,1.153s1.92,3.632.617,6.6c0,0,.334-4.549-1.032-6.342l-1.787,1.4s1.8,3.58.7,6.042c0,0-.144-5.3-1.09-5.7a11.057,11.057,0,0,0-1.8,1.943s1.24,2.6.473,3.972c0,0-.473-3.529-.859-3.546a11.926,11.926,0,0,0-1.73,3.944,8.5,8.5,0,0,1,1.343-4.163,4.664,4.664,0,0,0-2.387,1.234s.242-1.655,2.773-1.8a11.033,11.033,0,0,1,1.626-1.88,10.225,10.225,0,0,0-4.036.461s1.343-1.557,4.5-.847l1.764-1.441s-3.309-.45-4.71.052c0,0,1.614-1.384,5.189-.375l1.92-1.153a17.331,17.331,0,0,0-4.5-.392s1.77-.957,5.062.081l1.372-.617s-2.064-.4-2.669-.467-.64-.231-.64-.231a7.127,7.127,0,0,1,3.88.427A16.955,16.955,0,0,0,164.5,703.654Z" transform="translate(-141.324 -321.397)" fill="#6c63ff"/>
    <ellipse id="Ellipse_233" data-name="Ellipse 233" cx="11.744" cy="1.983" rx="11.744" ry="1.983" transform="translate(0 394.901)" fill="#6c63ff" opacity="0.1"/>
    <ellipse id="Ellipse_234" data-name="Ellipse 234" cx="17.25" cy="2.917" rx="17.25" ry="2.917" transform="translate(333.129 466.174)" fill="#6c63ff" opacity="0.1"/>
    <path id="Path_1030" data-name="Path 1030" d="M722.79,826.881s9.842-.306,12.805-2.416,15.134-4.612,15.872-1.245,14.788,16.841,3.678,16.933-25.812-1.73-28.775-3.534S722.79,826.881,722.79,826.881Z" transform="translate(-383.993 -371.339)" fill="#a8a8a8"/>
    <path id="Path_1031" data-name="Path 1031" d="M755.338,842.862c-11.11.092-25.812-1.73-28.77-3.528-2.254-1.378-3.154-6.3-3.459-8.573h-.329s.623,7.933,3.58,9.738,17.665,3.621,28.775,3.534c3.206,0,4.313-1.153,4.255-2.883C758.953,842.2,757.724,842.844,755.338,842.862Z" transform="translate(-383.989 -375.229)" opacity="0.2"/>
  </g>
</svg>
