<svg xmlns="http://www.w3.org/2000/svg" width="36.675" height="36.667" viewBox="0 0 36.675 36.667">
  <path id="Icon_awesome-instagram" data-name="Icon awesome-instagram" d="M18.336,11.17a9.4,9.4,0,1,0,9.4,9.4A9.386,9.386,0,0,0,18.336,11.17Zm0,15.513a6.112,6.112,0,1,1,6.112-6.112A6.123,6.123,0,0,1,18.336,26.683Zm11.978-15.9a2.193,2.193,0,1,1-2.193-2.193A2.188,2.188,0,0,1,30.314,10.786Zm6.226,2.225c-.139-2.937-.81-5.539-2.962-7.683S28.834,2.514,25.9,2.367c-3.027-.172-12.1-.172-15.128,0-2.929.139-5.531.81-7.683,2.954S.271,10.066.124,13c-.172,3.027-.172,12.1,0,15.128.139,2.937.81,5.539,2.962,7.683s4.745,2.815,7.683,2.962c3.027.172,12.1.172,15.128,0,2.937-.139,5.539-.81,7.683-2.962s2.815-4.745,2.962-7.683c.172-3.027.172-12.093,0-15.12ZM32.63,31.379a6.188,6.188,0,0,1-3.485,3.485c-2.414.957-8.141.736-10.808.736s-8.4.213-10.808-.736a6.188,6.188,0,0,1-3.485-3.485c-.957-2.414-.736-8.141-.736-10.808s-.213-8.4.736-10.808A6.188,6.188,0,0,1,7.528,6.277c2.414-.957,8.141-.736,10.808-.736s8.4-.213,10.808.736A6.188,6.188,0,0,1,32.63,9.763c.957,2.414.736,8.141.736,10.808S33.587,28.974,32.63,31.379Z" transform="translate(0.005 -2.238)" fill="#fff"/>
</svg>
