<svg xmlns="http://www.w3.org/2000/svg" width="37.619" height="30.553" viewBox="0 0 37.619 30.553">
  <path id="Icon_awesome-twitter" data-name="Icon awesome-twitter" d="M33.752,11c.024.334.024.668.024,1,0,10.192-7.758,21.936-21.936,21.936A21.788,21.788,0,0,1,0,30.473a15.949,15.949,0,0,0,1.862.1,15.441,15.441,0,0,0,9.572-3.294,7.724,7.724,0,0,1-7.209-5.347,9.723,9.723,0,0,0,1.456.119,8.154,8.154,0,0,0,2.029-.263,7.711,7.711,0,0,1-6.182-7.567v-.1a7.765,7.765,0,0,0,3.485.979A7.721,7.721,0,0,1,2.626,4.789a21.915,21.915,0,0,0,15.9,8.068,8.7,8.7,0,0,1-.191-1.766A7.717,7.717,0,0,1,31.675,5.815a15.179,15.179,0,0,0,4.893-1.862A7.689,7.689,0,0,1,33.179,8.2a15.456,15.456,0,0,0,4.44-1.193A16.574,16.574,0,0,1,33.752,11Z" transform="translate(0 -3.381)" fill="#fff"/>
</svg>
