<svg xmlns="http://www.w3.org/2000/svg" width="38.391" height="26.993" viewBox="0 0 38.391 26.993">
  <path id="Icon_awesome-youtube" data-name="Icon awesome-youtube" d="M38.638,8.724a4.824,4.824,0,0,0-3.394-3.416c-2.994-.807-15-.807-15-.807s-12,0-15,.807A4.824,4.824,0,0,0,1.852,8.724c-.8,3.013-.8,9.3-.8,9.3s0,6.287.8,9.3a4.752,4.752,0,0,0,3.394,3.362c2.994.807,15,.807,15,.807s12,0,15-.807a4.752,4.752,0,0,0,3.394-3.362c.8-3.013.8-9.3.8-9.3s0-6.287-.8-9.3ZM16.319,23.732V12.316l10.034,5.708L16.319,23.732Z" transform="translate(-1.05 -4.5)" fill="#fff"/>
</svg>
